<svg id="Layer_1" data-name="Layer 1" xmlns="http://www.w3.org/2000/svg" viewBox="0 0 400 400"><defs><style>.cls-1{fill:#3f3d55;}.cls-1,.cls-10,.cls-16,.cls-2,.cls-5,.cls-7,.cls-8,.cls-9{fill-rule:evenodd;}.cls-2{fill:#ddf5f7;}.cls-3{fill:#04c5ae;}.cls-10,.cls-4{fill:#221f20;}.cls-5{fill:#ffcdd2;}.cls-6,.cls-7{fill:#013a5b;}.cls-8{fill:#fcfdfe;}.cls-9{fill:#fe71f3;}.cls-11{fill:#e4e2fc;}.cls-12{fill:#2493f0;}.cls-13{fill:#055e5c;}.cls-14{fill:#56403a;}.cls-15{fill:#8a3594;}.cls-16{fill:#2e5d61;}</style></defs><path class="cls-1" d="M89.52,342.91h225a8.27,8.27,0,0,1,8.25,8.25h0a8.26,8.26,0,0,1-8.25,8.25h-225a8.26,8.26,0,0,1-8.25-8.25h0a8.27,8.27,0,0,1,8.25-8.25Z"/><path class="cls-2" d="M179.06,59.73S86.82,75.35,44.81,133.23s49.5,75,37.51,108.74-31.44,62.14,31.49,75,204,18,234.77-32.22S290.8,220.23,277.31,191s32.26-38.23,20.24-76.47-39-71.27-118.49-54.77Z"/><path class="cls-1" d="M202,11.91h0a5.25,5.25,0,0,1,5.25,5.24V205a5.25,5.25,0,0,1-5.25,5.25h0a5.25,5.25,0,0,1-5.24-5.25V17.15A5.25,5.25,0,0,1,202,11.91Z"/><rect class="cls-3" x="270.76" y="89.83" width="79.88" height="120.73"/><path class="cls-2" d="M193.86,378.12c51.34,0,93.2-4.68,93.2-10.41s-41.86-10.4-93.2-10.4-93.17,4.68-93.17,10.4,41.86,10.41,93.17,10.41Z"/><path class="cls-4" d="M139.46,329.82s-8.78,17.34-24.29,9c-6.43-3.46-8.19-9.1-7.2-14.23a15.7,15.7,0,0,1,2.18-5.47,13.71,13.71,0,0,1,3.94-4.11,8.94,8.94,0,0,1,8.51-1.08,10.19,10.19,0,0,1,6.35,6.35,10.43,10.43,0,0,1,.36,4.91,11.53,11.53,0,0,1-1.67,4.36,6.74,6.74,0,0,1-4.08,3.18,4.31,4.31,0,0,1-4.45-2A6.89,6.89,0,0,1,118,327.8a6.18,6.18,0,0,1,.2-3.14c.68-2,2.52-3.63,5.92-3.77l0,.62c-3,.11-4.59,1.53-5.19,3.32a5.87,5.87,0,0,0-.2,2.89,6.48,6.48,0,0,0,1.08,2.66,3.54,3.54,0,0,0,3.57,1.73,6.22,6.22,0,0,0,3.6-2.86,10.68,10.68,0,0,0,1.56-4.14,10.2,10.2,0,0,0-.31-4.71,9.75,9.75,0,0,0-6-5.95,8.08,8.08,0,0,0-7.63,1,13.77,13.77,0,0,0-3.74,3.89,15.16,15.16,0,0,0-2.12,5.32c-.94,4.88.73,10.32,6.86,13.61,14.71,7.91,23.1-8.67,23.13-8.73Z"/><path class="cls-5" d="M196.13,372.62l-3.55-.26c-4.7-.36-18.45-3.51-18.73-3.57a25.69,25.69,0,0,1-5.28.54h-2.69a86.82,86.82,0,0,1-14.94-1.84c-15.5-3.2-20.72-6.95-22.56-19.7-1.19-8.25,2-13.35,4.48-15.93,2.86-3,7.88-4.34,7.88-4.34s-3,2.32-3.66.74-.05-16.13.06-16.44.42.51,3.57.79,7.91-2.84,7.91-2.84-.82.49-4.76.49-8.14.28-16.61-12.28-15.59-21.85-15.59-21.85l-.4.31c-3.18-6.07-5.7-10.94-5.7-10.94s-3.2-5.45-3.2-10.12v-9.19s-.37-1.87,2.44-1.87,10,7.49,11.62,9.19c3.23,3.2,15.79,3.26,23.1,11.85.11.76.42,1.3,1,1.3,2.52.06,7.68,2.86,7.68,2.86a12,12,0,0,1,3.63-.34c1.93.14,3.88,1.82,3.43.65a6.86,6.86,0,0,1,.65-4.79c.71-1,3.23.77,3.23.77s-1.64-2.81-1.58-4.45a7.52,7.52,0,0,1,1.5-3.52c-1.14-.53-2.21-1-3.23-1.44.45-.63.71-1,.71-1l-3.15-.74c4.73-2.24,10.57-2.92,16.44-2.78h0c13.55.31,27.18,5,27.18,5l.94-.28,0,0,.23-.06.05,0h0l.28-.09.2-.06.14-.05.17-.06.23-.06.14-.05.26-.06c.28-.08.59-.17.9-.28h0l.48-.15.43-.11.09,0h.08l.45-.14h.06l.48-.14.14,0,.43-.11.14,0,.54-.14.06,0c.42-.09.85-.2,1.3-.31h0c.42-.12.88-.2,1.33-.31l.11,0,.57-.12.2,0,.57-.12.11,0,.6-.12.19,0,.57-.12.17,0,.62-.11.17,0,.66-.14.11,0,1.59-.25.22-.06.6-.08.25,0,.6-.09.23-.06.59-.08.26,0,.59-.08.26,0,.62-.09h.2l.76-.08.09,0,1.76-.17h.17c.22,0,.48,0,.71-.06l.19,0,.66,0,.31,0,.54,0h.31a3.89,3.89,0,0,1,.59,0h.29a3.89,3.89,0,0,1,.59,0h3a6.7,6.7,0,0,0,.79,0l.26,0c.2,0,.39,0,.59,0l.31,0,.51,0,.35,0c.19,0,.36,0,.53.06l.32,0c.17,0,.36,0,.53,0l.32.06a3,3,0,0,1,.53.06l.32.05.56.09.26,0c.25,0,.54.11.79.14l.2.06c.2,0,.4.08.6.11l.31.09a2.5,2.5,0,0,1,.48.11l.31.08c.17,0,.31.09.48.12l.31.08a2.18,2.18,0,0,0,.46.14l.31.12a2.59,2.59,0,0,1,.45.14,2,2,0,0,1,.32.11,3.86,3.86,0,0,0,.45.17l.28.09.48.22.23.09a5.07,5.07,0,0,1,.71.31l-3.12.74s3.18,5.16,6.92,7.31a62.58,62.58,0,0,0,9.07,4c7.09-9.89,20.75-9.78,24.12-13.15,1.7-1.7,8.82-9.19,11.62-9.19s2.44,1.87,2.44,1.87v9.19c0,4.67-3.17,10.12-3.17,10.12s-9,17.26-14.26,27.38-15.2,18.28-15.2,18.28a1.8,1.8,0,0,1-.28-.37c-.11.18-.17.26-.17.26A79.73,79.73,0,0,1,259.4,324c-.29,5.44-.6,5.81-.6,5.81s8.76,5.24,6.92,18-7.09,16.5-22.59,19.7-22.88,1.3-22.88,1.3-14,3.18-18.74,3.57l-3.54.26v.11l-.94-.05-.9.05v-.11Z"/><path class="cls-6" d="M195.62,373.1l-1.11-.08c-.59-.06-1.25-.12-2-.17-4.54-.34-17.32-3.24-18.68-3.55a18,18,0,0,1-2.3.34c-.79.09-1.78.14-3,.17h0l-.34,0h-1.95l-.4,0h0c-1.84,0-4-.17-6.52-.45s-5.33-.74-8.5-1.39c-7.85-1.62-13.1-3.37-16.64-6.38h0c-3.57-3-5.39-7.23-6.35-13.72-1.67-11.68,5.33-17.23,6.86-18.31a42,42,0,0,1-.57-5.56,82.43,82.43,0,0,1,.68-12.33l-.14-.11s-10-8.25-15.33-18.45-14-26.76-14.23-27.36h0s-3.26-5.55-3.26-10.37v-9.16c-.06-.37-.2-2.41,2.92-2.41,2.77,0,9.07,6.38,11.45,8.79a6.54,6.54,0,0,0,.54.54c1.1,1.13,3.54,1.87,6.52,2.78,5.49,1.67,12.75,3.85,17.43,10.14a59.6,59.6,0,0,0,8.62-3.79c2.89-1.68,5.44-5.19,6.37-6.58l-2.43-.57-.09-.93a29.75,29.75,0,0,1,7.91-2.33,55.85,55.85,0,0,1,8.45-.51h0l.28,0c12.81.29,25.65,4.42,27.21,5a5.84,5.84,0,0,1,.77-.25h0l0,0,.19-.06.09,0h0l.28-.08.2-.06h0l.14-.06h0l.17-.05.23-.06.14,0h0l.26-.08h0l.45-.14h0l.45-.15h0l.48-.14h0l.43-.11h0l.11,0h.06l.48-.14h0l.48-.14h0l.17,0,.43-.11.14,0h0l.51-.14.08,0h0l.63-.14h0l.65-.17h.05l.66-.17h0l.68-.15h0l.14,0,.54-.15h0l.22,0h0l.54-.12h0l.14,0,.57-.14h0l.23,0h0l.54-.11h0l.2,0h0l.59-.14.17,0h0l.68-.11.11,0h0l.8-.14.82-.14.23,0h0l.56-.09h0l.26-.05.59-.09h0l.23,0h0l.6-.08h0l.28,0h0l.57-.09h0l.25,0h0l.34-.06h0l.31,0,.2,0h0l.4,0h0l.37-.05h.08l.88-.09a8,8,0,0,1,.88-.08h0l.14,0,.37,0h0l.37,0h.2l.31,0h0l.34,0H222l.54,0h0l.34,0h.28l.28,0h.91l.29,0h2.18l.45,0h.48l.37,0h.29l.28,0h0l.31,0h.34l.26,0h0l.25,0h0l.34,0h0l.26,0h.28l.31.06h0l.26,0h0l.25,0h0l.31,0h0a4.93,4.93,0,0,1,.54.09l.31,0h0l.29.06h0l.31,0v0l.22,0h0l.4.05v0l.4.06h0l.17,0h0l.31.06h0l.31.06h0l.2.05h0l.11,0h0a3.73,3.73,0,0,1,.48.12h0l.26,0h0l.08,0h0c.17,0,.31.09.48.11h0l.32.09v0l.22.06h0l.23,0h0l.31.12h0l.26.08h0l.22.06h0l.15.05h0l.17.06h0l.22.09h0l.23.08.08,0h0l.17.08h0l.26.12h0l.25.08.09,0h0l.14.09h0a1.49,1.49,0,0,1,.37.14,3.17,3.17,0,0,1,.37.17l-.12.93-2.43.57c.93,1.39,3.51,4.9,6.37,6.58a59.6,59.6,0,0,0,8.65,3.79c4.68-6.29,11.93-8.47,17.4-10.14,3-.91,5.42-1.65,6.55-2.78.29-.28.4-.4.54-.54,2.35-2.41,8.65-8.79,11.42-8.79,3.12,0,3,2,3,2.41v9.16c0,4.82-3.26,10.34-3.26,10.37h0c-.31.6-9,17.24-14.23,27.36s-15.31,18.42-15.33,18.45l-.17.11a78.55,78.55,0,0,1,.68,12.33,37,37,0,0,1-.57,5.56c1.56,1.08,8.56,6.63,6.86,18.31-.94,6.49-2.75,10.72-6.32,13.72h0c-3.54,3-8.79,4.76-16.61,6.38-14.54,3-22,1.56-23,1.33-1.33.31-14.17,3.21-18.71,3.55-.74,0-1.39.11-1.95.17l-1.11.05v.17H198l-.94-.05-.9.05h-.51Zm-1.05-1.1,1.19.11h.4v0l.48,0v0h.82v0l.48,0,1.56-.14c.54,0,1.19-.09,2-.15,4.73-.36,18.62-3.54,18.68-3.54h.22s7.26,1.84,22.68-1.3c7.65-1.59,12.79-3.29,16.19-6.15h0c3.37-2.87,5.07-6.89,6-13.13,1.81-12.44-6.66-17.49-6.69-17.52l-.46-.28.34-.43s.2-.25.52-5.55a79.19,79.19,0,0,0-.77-12.84l0-.26.17-.17.06-.14.4-.62.39.54c1.9-1.62,10.09-9,14.69-17.81,5.18-10,14.22-27.32,14.25-27.38v0s3.12-5.33,3.12-9.86v-9.19l0-.08s.26-1.31-2-1.31-8.41,6.18-10.71,8.48l-.57.57c-1.27,1.3-3.82,2.07-6.91,3-5.45,1.67-12.68,3.86-17.13,10.09l-.22.31-.37-.11a62.43,62.43,0,0,1-9.13-4c-3.88-2.21-7.11-7.46-7.11-7.49l-.4-.59.71-.14,1.64-.4h0l-.17-.09h0l-.08,0-.23-.09h0l-.22-.08-.15,0h0l-.14-.06h0l-.22-.08h0l-.23-.09-.31-.08h0l-.23-.06h0l-.23-.09h0l-.31-.08h0c-.14,0-.31-.09-.45-.11h0l-.09,0h0l-.22-.06h0l-.49-.11h0l-.11,0h0l-.17,0h0l-.31-.08h0l-.31-.06h0l-.17,0h0l-.4-.08h0l-.4-.06h0l-.25-.06h0l-.29,0h0l-.28,0h0l-.28,0a4.93,4.93,0,0,1-.54-.09h0l-.31,0h0l-.26,0h0l-.28,0h0l-.31-.06h-.26l-.25,0h0l-.34,0h0l-.26,0-.25,0h-.34l-.29,0h-.28l-.26,0h0l-.39,0h-.88l-.46,0h-1.7l-.31,0h-.56l-.32,0h-.56l-.31,0h0l-.54,0-.32,0h-.34l-.31,0-.2,0h-.34l-.36.06H220l-.86.08-.87.09h-.09l-.37.06h0l-.39,0h0l-.2,0-.31,0h0l-.32.06h0l-.25,0h0l-.6.08h0l-.25,0h0l-.6.09h0l-.22,0h0l-.6.09-.23.06v0l-.59.11h0l-.23,0-.79.14-.8.14h0l-.11,0-.65.11h0l-.17,0-.6.12h0l-.19,0h0l-.54.12h0l-.23.05h0l-.57.12-.14,0h0l-.54.11h0l-.2.06h0l-.56.11-.12,0h0l-.68.14v0l-.65.14h0l-.65.17h0l-.65.14h0l-.06,0-.54.14h0l-.11,0-.42.11-.17,0h0l-.49.14h0l-.49.15h0l-.12,0h0l-.39.12h0l-.51.14h0l-.46.14h0l-.45.11h0l-.26.09h0l-.14.05-.22.06-.17.06h0l-.15,0h0l-.19.05-.29.12h0l0,0-.23,0h0l-.9.31h-.32s-13.38-4.59-26.76-5h-.28a47.32,47.32,0,0,0-8.56.49A29.32,29.32,0,0,0,155,254.5l1.67.4.68.14-.37.59s-3.26,5.28-7.11,7.49a62.13,62.13,0,0,1-9.16,4l-.34.11-.23-.31c-4.48-6.23-11.68-8.42-17.12-10.09-3.12-.93-5.67-1.7-6.94-3l-.54-.57c-2.3-2.3-8.36-8.48-10.74-8.48-2.22,0-1.93,1.31-1.93,1.31v9.27c0,4.53,3.12,9.86,3.12,9.86v0c0,.06,9.1,17.41,14.25,27.38,4.6,8.85,12.82,16.19,14.69,17.81l.42-.54.37.62.09.14.17.17,0,.26a75.62,75.62,0,0,0-.77,12.84c.29,5.3.51,5.55.51,5.55l.31.43-.45.28s-8.47,5.08-6.69,17.52c.91,6.24,2.64,10.26,6,13.13h0c3.4,2.86,8.51,4.56,16.19,6.15q4.66.93,8.42,1.36c2.46.28,4.62.42,6.43.45h.4l.39,0h1.17l.34,0h.34c1.16,0,2.15-.08,2.92-.17a14.92,14.92,0,0,0,2.26-.34H174c.48.11,14,3.18,18.65,3.54l2,.15Zm43.77-117.78h0M197,373.19h0l0-.51.06-.49m.37,0a4.55,4.55,0,0,0,.48,0h0v1"/><path class="cls-6" d="M143.86,326.39a23,23,0,0,1,12.38,5.66,51.61,51.61,0,0,1,7.2,8.4c2,2.69,3.75,5.07,5.67,6.34l7.23,4.68-.37.88s-3.23-2.07-7.22-4.68c-2.07-1.36-3.86-3.79-5.9-6.54a50.64,50.64,0,0,0-7.09-8.25,22,22,0,0,0-12-5.5Z"/><path class="cls-7" d="M176.23,351.93s-5.67,1.21-7.6,4.5-1.3,5.79-.59,8.11,2,3,3,3.17,8.05.46,12.25-2,3-4.76,1.7-5.58-7.14-8.22-8.73-8.22Z"/><path class="cls-6" d="M250.3,327.38a22,22,0,0,0-12,5.5,49.68,49.68,0,0,0-7.09,8.25c-2,2.75-3.83,5.18-5.9,6.54-4,2.61-7.23,4.68-7.23,4.68l-.36-.88,7.2-4.68c1.95-1.27,3.71-3.65,5.69-6.34a51.12,51.12,0,0,1,7.2-8.4,23.08,23.08,0,0,1,12.39-5.66Z"/><path class="cls-7" d="M217.87,351.93s5.67,1.21,7.6,4.5,1.3,5.79.59,8.11-1.95,3-3,3.17-8,.46-12.24-2-3-4.76-1.7-5.58,7.14-8.22,8.73-8.22Z"/><path class="cls-6" d="M189.52,265.38s4.54,6.41,12.39.46l.43.85c-8.42,6.4-13.41-.63-13.41-.65Z"/><path class="cls-6" d="M156.16,265.27s-2.33,3.8,2.21,8.31a31.49,31.49,0,0,0,9.78,6.63l-.17.65a31.69,31.69,0,0,1-10-6.74c-4.93-4.94-2.32-9.25-2.32-9.27Z"/><path class="cls-6" d="M237.4,259.54s-1.36,5.87-11.23,11-12.3,4.34-12.3,4.34l.17-1s2.27.7,11.82-4.31,10.75-10.38,10.77-10.38Z"/><path class="cls-6" d="M232.78,265.72a9.76,9.76,0,0,1-3.15,9.33,35.42,35.42,0,0,1-10.09,6.38l-.2-.68a35.18,35.18,0,0,0,9.92-6.27,8.93,8.93,0,0,0,3-8.53Z"/><path class="cls-5" d="M163.64,215.49h.17a5.86,5.86,0,0,1,.74,0A22.89,22.89,0,0,1,186,232.79c.08.34.17.65.22,1a22.31,22.31,0,0,1,9.27-2A21.69,21.69,0,0,1,206,234.4a22.88,22.88,0,0,1,22.51-18.91,5.94,5.94,0,0,1,.74,0,22,22,0,0,1,5.84.94,29.29,29.29,0,0,0-2.92-7.37,20.54,20.54,0,0,1,2.43-1.79c1.62-1.05,8.9-7.51,7.23-13.69A125.52,125.52,0,0,0,237,180.2s-2.32,2.92-7,8.9a28.28,28.28,0,0,0-5.33,13.33s-3.17-2.1-7.06-4.48l-.08.17s-.82-1.05-9.55-3.29-19.31,1.5-19.31,1.5l-8.5,1.51c.11-.69-.31-1.56-.68-3-.77-2.92-5.81-7.68-7.8-10.6s-1.78-4.23-1.78-4.23-4,2.92-5,9.59c-.91,5.83,3.32,9.8,4.37,10.68a31.23,31.23,0,0,0,5,0,52.13,52.13,0,0,0-5.33,5.62,39.47,39.47,0,0,0-5.3,9.63Z"/><path class="cls-6" d="M162.45,206.2a37.9,37.9,0,0,0-9,11.22,23.87,23.87,0,0,1,4.28-1.61,22.66,22.66,0,0,1,6.09-.8h.77a23.41,23.41,0,0,1,21.91,17.66h0c0,.14.08.29.11.4a24.27,24.27,0,0,1,4-1.25,23.67,23.67,0,0,1,10.52.17,20.94,20.94,0,0,1,4.5,1.65A23.36,23.36,0,0,1,228.5,215h.76a24.18,24.18,0,0,1,3,.29c.71.11,1.42.28,2.1.45a30,30,0,0,0-2.64-6.43l-.2-.35.31-.28a21,21,0,0,1,2.5-1.81,21.45,21.45,0,0,0,5.95-6.81,8.59,8.59,0,0,0,1.05-6.32,111.29,111.29,0,0,0-4.54-12.81c-.9.6-3.2,2-7.76,4.76-6.15,3.66-11.06,12.62-11.06,12.64l-.37.66-.45-.57s-.74-.91-9.3-3.12-19,1.48-19,1.48l-.59.22-.09-.62s-.25-1.87-3.4-6.92c-2.81-4.59-13-8.3-14.74-8.9a14.8,14.8,0,0,0-4.68,9.07c-1,6.38,4.4,10.41,4.4,10.41l.88.65-1.05.25s-.74.06-7.12,5.25Zm-10.63,12.21a39.51,39.51,0,0,1,10-13,64.33,64.33,0,0,1,6.74-5c-1.47-1.33-5.07-5.25-4.22-10.86,1.08-6.86,5.25-9.89,5.27-9.89l.2-.14.26.08s12.27,4.08,15.53,9.38a31.33,31.33,0,0,1,3.4,6.75c2.24-.71,11.37-3.32,19.08-1.33,5.95,1.53,8.33,2.55,9.27,3.06,1.1-1.9,5.61-9.24,11.17-12.59,6.26-3.71,8.22-5,8.25-5l.48-.34.25.56a129.07,129.07,0,0,1,4.79,13.47,9.6,9.6,0,0,1-1.13,7.06,23,23,0,0,1-6.29,7.2,16.65,16.65,0,0,0-2.07,1.47,32,32,0,0,1,2.75,7.14l.22.86-.85-.26a18.4,18.4,0,0,0-2.8-.65,26,26,0,0,0-2.89-.29h-.74a22.35,22.35,0,0,0-22,18.49l-.11.68-.62-.34a19.86,19.86,0,0,0-4.85-1.87,22,22,0,0,0-5.39-.66,21.36,21.36,0,0,0-4.7.51,20.89,20.89,0,0,0-4.37,1.42l-.56.28-.12-.62c0-.14-.05-.31-.11-.51s-.09-.34-.11-.48h0a22.45,22.45,0,0,0-21-16.9h-.74a22.06,22.06,0,0,0-5.84.77,23.58,23.58,0,0,0-5.44,2.27Z"/><path class="cls-5" d="M171.69,184.23c-1.95-2.89-1.78-4.23-1.78-4.23s-4,2.92-5,9.59c-.91,5.83,3.32,9.8,4.37,10.68a25,25,0,0,0,8.56-.65c3.37-1.22,2.44-1.9,1.7-4.79s-5.81-7.68-7.8-10.6Z"/><path class="cls-4" d="M171.3,184.51a11.17,11.17,0,0,1-1.76-3.51,15.18,15.18,0,0,0-4.2,8.64A10,10,0,0,0,166,195a13,13,0,0,0,3.43,4.76,34,34,0,0,0,4.64,0,14.71,14.71,0,0,0,3.55-.62h0c2.38-.85,2.21-1.36,1.76-2.89a12.9,12.9,0,0,1-.37-1.31c-.46-1.75-2.72-4.36-4.77-6.74a44.26,44.26,0,0,1-2.94-3.69Zm-.88-4.42s-.17,1.11,1.7,3.85a43.28,43.28,0,0,0,2.89,3.6c2.13,2.47,4.42,5.16,5,7.18.11.42.23.85.34,1.22.68,2.21.91,2.94-2.35,4.13h0a15.06,15.06,0,0,1-3.83.68,30,30,0,0,1-4.93,0l-.31-.11a14.22,14.22,0,0,1-3.83-5.22,11.1,11.1,0,0,1-.71-5.92c1.08-6.86,5.25-9.89,5.27-9.89l1-.68Z"/><path class="cls-5" d="M230,189.1a28.28,28.28,0,0,0-5.33,13.33c3.09,1.67,7.49,6.66,7.49,6.66a20.54,20.54,0,0,1,2.43-1.79c1.62-1.05,8.9-7.51,7.23-13.69A125.52,125.52,0,0,0,237,180.2s-2.32,2.92-7,8.9Z"/><path class="cls-4" d="M230.4,189.42a27.88,27.88,0,0,0-5.22,12.72c2.64,1.56,6,5.11,7,6.24.4-.31,1.11-.85,2.13-1.5a21.45,21.45,0,0,0,5.95-6.81,8.59,8.59,0,0,0,1.05-6.32,114.86,114.86,0,0,0-4.45-12.58c-.91,1.16-3.06,3.85-6.49,8.25Zm-6.24,13a28.86,28.86,0,0,1,5.44-13.58c4.65-5.92,7-8.9,7.06-8.9l.51-.65.34.76a129.07,129.07,0,0,1,4.79,13.47,9.6,9.6,0,0,1-1.13,7.06,23,23,0,0,1-6.29,7.2,19.34,19.34,0,0,0-2.38,1.73l-.37.31-.34-.37s-4.34-4.9-7.37-6.55l-.29-.14Z"/><path class="cls-6" d="M154.15,259.54s1.36,5.87,11.22,11,12.3,4.34,12.3,4.34l-.17-1s-2.26.7-11.82-4.31-10.77-10.38-10.77-10.38Z"/><path class="cls-8" d="M163.81,261.25a22.88,22.88,0,1,0-22.87-22.88,22.91,22.91,0,0,0,22.87,22.88Z"/><path class="cls-6" d="M163.81,215a23.32,23.32,0,1,1-16.52,6.83A23.31,23.31,0,0,1,163.81,215Zm15.85,7.54a22.38,22.38,0,1,0,6.55,15.82,22.38,22.38,0,0,0-6.55-15.82Z"/><path class="cls-8" d="M228.5,261.25a22.88,22.88,0,1,0-22.88-22.88,22.91,22.91,0,0,0,22.88,22.88Z"/><path class="cls-6" d="M228.5,215A23.32,23.32,0,1,1,212,221.84,23.32,23.32,0,0,1,228.5,215Zm15.84,7.54a22.38,22.38,0,1,0,6.55,15.82,22.34,22.34,0,0,0-6.55-15.82Z"/><path class="cls-9" d="M195.5,260.11c10,0,18.2-6.35,18.2-14.14s-8.16-14.15-18.2-14.15-18.17,6.35-18.17,14.15,8.17,14.14,18.17,14.14Z"/><path class="cls-6" d="M195.5,231.31a21.58,21.58,0,0,1,13.19,4.25,12.61,12.61,0,0,1,0,20.81,22.53,22.53,0,0,1-26.34,0,12.55,12.55,0,0,1,0-20.81,21.44,21.44,0,0,1,13.15-4.25Zm12.56,5.05a21.44,21.44,0,0,0-25.11,0,11.57,11.57,0,0,0,0,19.22,21.49,21.49,0,0,0,25.11,0,11.57,11.57,0,0,0,0-19.22Z"/><path class="cls-10" d="M202.34,242.25c2.41-1.58,5-1.92,5.78-.76s-.6,3.43-3,5-5,1.89-5.75.73.57-3.4,3-5Z"/><path class="cls-10" d="M190.49,242.25c-2.44-1.58-5-1.92-5.79-.76s.6,3.43,3,5,5,1.89,5.78.73-.57-3.4-3-5Z"/><path class="cls-7" d="M278.87,252.26s-.2,11.11,7,18.28l2.64-5s3.17-5.45,3.17-10.12v-9.19s.37-1.87-2.44-1.87c-2.35,0-7.73,5.25-10.4,7.94Z"/><path class="cls-6" d="M253.61,267s-11.33,2.55-16.3,12.87l-.68-.31c5.14-10.66,16.79-13.27,16.81-13.3Z"/><path class="cls-6" d="M259.25,310.57s-6.09,4.93-15-1.42l.45-.59c8.39,6,14,1.44,14.06,1.41Z"/><path class="cls-6" d="M140.54,267s11.34,2.55,16.33,12.87l.68-.31c-5.16-10.66-16.81-13.27-16.84-13.3Z"/><path class="cls-6" d="M135.15,311.08s6.1,5,14.94-1.39l-.42-.62c-8.39,6-14,1.44-14.06,1.44Z"/><path class="cls-7" d="M115.23,252.26s.2,11.11-7.06,18.28c-1.56-3-2.61-5-2.61-5s-3.2-5.45-3.2-10.12v-9.19s-.37-1.87,2.44-1.87c2.35,0,7.73,5.25,10.43,7.94Z"/><path class="cls-7" d="M157.29,255.77a16.44,16.44,0,1,0-16.44-16.44,16.48,16.48,0,0,0,16.44,16.44Z"/><path class="cls-7" d="M234.93,255.77a16.44,16.44,0,1,0-16.47-16.44,16.47,16.47,0,0,0,16.47,16.44Z"/><path class="cls-6" d="M199.42,296.08h-8.85l-3.23,8.51-3.6,10.46-3.57-10.46-3.23-8.51h-8.85l11.77,28.41h7.79Zm23.21,2.81a15.87,15.87,0,0,0-10.57-3.37c-6,0-11.85,2.58-11.85,8.56,0,7,5.33,8.61,11.54,9.18,3.09.28,4.7,1.16,4.7,2.58,0,1.59-1.81,2.52-4.45,2.52a11.33,11.33,0,0,1-8.28-3.2l-4.39,5c3.91,4.13,7.54,5,12.64,5,6.35-.06,12.42-2.81,12.42-9.22s-5.87-8.78-11.48-9.38c-2.81-.28-4.71-.57-4.71-2.52,0-1.48,1.9-2.1,3.86-2.1a10.48,10.48,0,0,1,6.63,2Z"/><path class="cls-1" d="M56.83,45.81h72.71a11.31,11.31,0,0,1,11.28,11.26V67.53a11.31,11.31,0,0,1-11.28,11.28H56.83A11.31,11.31,0,0,1,45.58,67.53V57.07A11.3,11.3,0,0,1,56.83,45.81Z"/><path class="cls-11" d="M63.55,53.89H58.19v.2L64.57,64V70.7h4.76V64L76,54.12v-.23H70.67L67,59.67ZM90.82,66.7H82.06V64.15H90V60.3H82.06V57.89h8.42v-4H77.38V70.7H90.82Zm15.39,4h5.08l-7.52-16.81H99L91.44,70.7h5L97.6,68h7.51ZM103.49,64H99.18l2.19-5.35Zm24.69,6.47-4.36-5.67c2.83-1.25,3.54-3,3.54-5.08,0-3-2.21-5.78-6.52-5.78h-8.22V70.7h4.76V65.26h1.67L123,70.7h5.21Zm-7.34-12.73a1.9,1.9,0,0,1,1.84,2.1,1.74,1.74,0,0,1-1.78,1.92h-3.52v-4Z"/><rect class="cls-3" x="53.26" y="171.19" width="79.88" height="39.37"/><rect class="cls-12" x="53.26" y="161.44" width="79.88" height="9.75"/><rect class="cls-13" x="53.26" y="138.96" width="79.88" height="22.48"/><rect class="cls-14" x="53.26" y="102.96" width="79.88" height="36"/><rect class="cls-15" x="53.26" y="89.83" width="79.88" height="13.12"/><path class="cls-1" d="M274.34,45.81H347a11.32,11.32,0,0,1,11.29,11.26V67.53A11.32,11.32,0,0,1,347,78.81h-72.7a11.31,11.31,0,0,1-11.26-11.28V57.07a11.31,11.31,0,0,1,11.26-11.26Z"/><path class="cls-11" d="M281.05,53.89H275.7v.2L282.07,64V70.7h4.77V64l6.66-9.89v-.23h-5.33l-3.63,5.78ZM308.32,66.7h-8.76V64.15h7.94V60.3h-7.94V57.89H308v-4H294.89V70.7h13.43Zm15.39,4h5.08l-7.51-16.81h-4.79L309,70.7h5L315.1,68h7.51ZM321,64h-4.3l2.18-5.35Zm24.69,6.47-4.36-5.67c2.83-1.25,3.54-3,3.54-5.08,0-3-2.21-5.78-6.52-5.78h-8.19V70.7h4.73V65.26h1.68l3.91,5.44h5.21Zm-7.34-12.73a1.9,1.9,0,0,1,1.84,2.1,1.73,1.73,0,0,1-1.78,1.92h-3.52v-4Z"/><rect class="cls-15" x="270.76" y="193.5" width="79.88" height="17.06"/><rect class="cls-12" x="270.76" y="150.18" width="79.88" height="43.31"/><rect class="cls-14" x="270.76" y="126.77" width="79.88" height="23.41"/><rect class="cls-13" x="270.76" y="105.77" width="79.88" height="21"/><path class="cls-16" d="M214.61,162.94h0c.4,0,.71.23.71.48v4.88h4.62c.37,0,.68.2.68.45h0c0,.26-.31.48-.68.48h-4.62v4.88c0,.25-.31.45-.71.45h0c-.37,0-.68-.2-.68-.45v-4.88h-4.62c-.4,0-.71-.22-.71-.48h0c0-.25.31-.45.71-.45h4.62v-4.88c0-.25.31-.48.68-.48Z"/><path class="cls-16" d="M238.59,148.51h0c.28,0,.51.14.51.34v3.52h3.35c.28,0,.48.17.48.34h0c0,.2-.2.34-.48.34H239.1v3.54c0,.17-.23.34-.51.34h0c-.28,0-.51-.17-.51-.34v-3.54h-3.34c-.29,0-.51-.14-.51-.34h0c0-.17.22-.34.51-.34h3.34v-3.52c0-.2.23-.34.51-.34Z"/><path class="cls-16" d="M218.49,139.64h0c.46,0,.8.25.8.54v5.64h5.35c.43,0,.8.23.8.54h0c0,.28-.37.54-.8.54h-5.35v5.61c0,.31-.34.54-.8.54h0c-.42,0-.79-.23-.79-.54V146.9h-5.33c-.45,0-.79-.26-.79-.54h0c0-.31.34-.54.79-.54h5.33v-5.64c0-.29.37-.54.79-.54Z"/><path class="cls-16" d="M187.43,161h0c.25,0,.42.14.42.31v3.07h2.92c.26,0,.43.14.43.28h0c0,.17-.17.31-.43.31h-2.92V168c0,.17-.17.29-.42.29h0c-.23,0-.43-.12-.43-.29V165h-2.92c-.23,0-.42-.14-.42-.31h0c0-.14.19-.28.42-.28H187v-3.07c0-.17.2-.31.43-.31Z"/><path class="cls-16" d="M238.11,134.62h0c.28,0,.54.17.54.37v3.63h3.43c.28,0,.54.17.54.34h0c0,.2-.26.37-.54.37h-3.43V143c0,.19-.26.36-.54.36h0c-.28,0-.51-.17-.51-.36v-3.63h-3.46c-.28,0-.51-.17-.51-.37h0c0-.17.23-.34.51-.34h3.46V135c0-.2.23-.37.51-.37Z"/><path class="cls-16" d="M188.67,145.25h0c.17,0,.29.12.29.2v2h1.95c.14,0,.29.11.29.2h0c0,.11-.15.2-.29.2H189v2c0,.11-.12.2-.29.2h0c-.17,0-.28-.09-.28-.2v-2h-2c-.14,0-.28-.09-.28-.2h0c0-.09.14-.2.28-.2h2v-2a.26.26,0,0,1,.28-.2Z"/><path class="cls-16" d="M193.43,130.17h0c.29,0,.51.17.51.34v3.66h3.46c.29,0,.51.17.51.34h0c0,.2-.22.37-.51.37h-3.46v3.63c0,.19-.22.34-.51.34h0c-.28,0-.53-.15-.53-.34v-3.63h-3.46c-.29,0-.51-.17-.51-.37h0c0-.17.22-.34.51-.34h3.46v-3.66c0-.17.25-.34.53-.34Z"/><path class="cls-16" d="M173.79,150.44h0c.45,0,.82.2.82.42v4.2h5.33c.43,0,.8.2.8.42h0c0,.23-.37.4-.8.4h-5.33v4.23c0,.22-.37.39-.82.39h0c-.42,0-.79-.17-.79-.39v-4.23h-5.33c-.43,0-.8-.17-.8-.4h0c0-.22.37-.42.8-.42H173v-4.2c0-.22.37-.42.79-.42Z"/><path class="cls-1" d="M89.26,31.21h101a12,12,0,0,1,23.33,0h101s.06,0,.12,0,.05,0,.08,0h0a2.62,2.62,0,0,1,2.61,2.61v.23h0v8.42a4.44,4.44,0,0,1,2.32,3.85,4.93,4.93,0,0,1-9.83,0,4.44,4.44,0,0,1,2.32-3.85V36.85H213.62a12,12,0,0,1-23.33,0H91.78v5.62a4.39,4.39,0,0,1,2.33,3.85,4.94,4.94,0,0,1-9.84,0,4.45,4.45,0,0,1,2.33-3.85V35a3.17,3.17,0,0,1-.14-.93h0a2.82,2.82,0,0,1,1.44-2.47h0v0a2.75,2.75,0,0,1,1.27-.34h.06Z"/></svg>