<?xml version="1.0" encoding="utf-8"?>
<!-- Generator: Adobe Illustrator 16.0.0, SVG Export Plug-In . SVG Version: 6.00 Build 0)  -->
<!DOCTYPE svg PUBLIC "-//W3C//DTD SVG 1.1//EN" "http://www.w3.org/Graphics/SVG/1.1/DTD/svg11.dtd">
<svg version="1.1" id="Layer_1" xmlns="http://www.w3.org/2000/svg" xmlns:xlink="http://www.w3.org/1999/xlink" x="0px" y="0px"
	 width="500px" height="500px" viewBox="0 0 500 500" enable-background="new 0 0 500 500" xml:space="preserve">
<g>
	<path fill-rule="evenodd" clip-rule="evenodd" fill="#DEF4F7" d="M142.014,432.268c46.659,0,84.699-5.046,84.699-11.253
		c0-6.208-38.04-11.254-84.699-11.254c-46.658,0-84.699,5.046-84.699,11.254C57.315,427.222,95.356,432.268,142.014,432.268
		L142.014,432.268z"/>
</g>
<g>
	<path fill-rule="evenodd" clip-rule="evenodd" fill="#DDF5F7" d="M461.484,173.033c0,0-71.5-74.01-163.187-84.947
		c-91.686-10.937-70.672,37.006-113.559,67.304c-42.886,30.266-63.933,0.826-104.308,37.831s-48.386,87.555,29.439,138.802
		c77.857,51.248,173.455,46.289,188.427-4.196c14.975-50.517,57.192-26.928,105.993-38.689
		C453.06,277.342,501.001,204.157,461.484,173.033L461.484,173.033z"/>
	<path fill="#221F20" d="M79.16,375.164c-0.032,0.063-9.855,24.955-27.246,12.938c-7.217-4.959-9.188-13.098-8.075-20.441
		c0.413-2.829,1.272-5.532,2.447-7.916c1.177-2.385,2.702-4.418,4.419-5.883c2.83-2.415,6.199-3.304,9.538-1.589
		c4.005,2.066,6.199,5.469,7.121,9.156c0.604,2.321,0.7,4.769,0.413,7.09c-0.317,2.29-0.954,4.482-1.875,6.264
		c-1.176,2.384-2.83,4.101-4.578,4.546c-2.066,0.54-3.846-0.765-4.991-2.894c-0.667-1.177-1.112-2.64-1.304-4.133
		c-0.223-1.525-0.159-3.116,0.223-4.547c0.763-2.893,2.798-5.214,6.644-5.437l0.032,0.923c-3.338,0.158-5.15,2.225-5.818,4.737
		c-0.349,1.334-0.413,2.798-0.222,4.196s0.604,2.732,1.208,3.814c0.986,1.78,2.416,2.894,4.006,2.479
		c1.494-0.413,2.925-1.938,4.038-4.101c0.858-1.686,1.462-3.783,1.748-5.977c0.286-2.194,0.191-4.547-0.35-6.74
		c-0.89-3.466-2.957-6.645-6.708-8.552c-2.957-1.559-5.977-0.764-8.552,1.462c-1.621,1.367-3.052,3.307-4.197,5.596
		c-1.144,2.289-1.97,4.896-2.385,7.63c-1.049,7.026,0.828,14.846,7.694,19.584c16.5,11.38,25.91-12.464,25.942-12.525L79.16,375.164
		z"/>
	<path fill-rule="evenodd" clip-rule="evenodd" fill="#FFCDD2" d="M76.203,355.453c-0.159,0.954-1.176,8.711-0.858,14.401
		c0.349,6.104,0.699,6.518,0.699,6.518s-9.824,5.881-7.757,20.188c2.066,14.305,7.916,18.503,25.306,22.095
		c17.421,3.561,25.687,1.463,25.687,1.463s15.673,3.561,21.015,4.006c1.78,0.127,3.051,0.222,3.974,0.285v0.128
		c0,0,0.159,0,1.017-0.063c0.858,0.063,1.049,0.063,1.049,0.063l-0.032-0.128c0.922-0.063,2.194-0.158,3.974-0.285
		c5.341-0.445,21.014-4.006,21.014-4.006s8.266,2.098,25.688-1.463c17.39-3.592,23.24-7.79,25.306-22.095
		c2.067-14.307-7.757-20.188-7.757-20.188s0.35-0.413,0.699-6.518c0.35-6.104-0.858-14.496-0.858-14.496s5.34-8.203,5.34-24.606
		c0-16.406-18.597-33.445-18.597-33.445c-14.147-17.041-55.826-2.733-55.826-2.733s-15.292-5.247-30.488-5.597
		c-0.064,0.063-2.193,3.688-12.589,6.805c-19.774,5.944-30.583,38.848-21.873,61.77C79.064,356.884,77.666,356.184,76.203,355.453
		L76.203,355.453z"/>
	<path fill="#013A5B" d="M89.747,297.751c-0.063,0.063-18.407,16.882-18.407,33.001c0,16.214,5.214,24.225,5.246,24.256l0.095,0.192
		l-0.032,0.253c0,0-1.176,8.33-0.857,14.369c0.349,5.882,0.572,6.168,0.572,6.168l0.444,0.541l-0.572,0.35
		c-0.032,0-9.506,5.689-7.503,19.583c1.018,6.994,2.957,11.509,6.708,14.688c3.847,3.241,9.601,5.182,18.249,6.931
		c17.294,3.56,25.465,1.494,25.497,1.494h0.159c0.063,0,15.672,3.561,20.982,3.973c0.858,0.064,1.59,0.128,2.193,0.16
		c0.731,0.063,1.304,0.095,1.749,0.126l0.445,0.032v0.095l0.541-0.031h0.063l0.541,0.031v-0.095l0.444-0.032
		c0.445-0.031,1.017-0.063,1.749-0.126c0.604-0.032,1.335-0.096,2.194-0.16c5.31-0.412,20.918-3.973,20.982-3.973h0.159
		c0.032,0,8.202,2.065,25.497-1.494c8.647-1.749,14.401-3.689,18.248-6.931c3.783-3.18,5.691-7.694,6.708-14.688
		c2.003-13.894-7.471-19.583-7.502-19.583l-0.573-0.35l0.446-0.541c0,0,0.222-0.286,0.572-6.168
		c0.318-6.039-0.858-14.369-0.858-14.369l-0.032-0.253l0.095-0.192c0.032-0.031,5.246-8.042,5.246-24.256
		c0-16.119-18.344-32.938-18.407-33.001l-0.032-0.032c-13.956-16.816-55.253-2.638-55.381-2.605h-0.255
		c-0.126-0.032-41.423-14.211-55.38,2.605L89.747,297.751z M70.417,330.752c0-16.469,18.248-33.414,18.756-33.891
		c13.925-16.69,53.665-3.688,56.112-2.861c2.448-0.826,42.187-13.829,56.112,2.861c0.509,0.477,18.757,17.422,18.757,33.891
		c0,15.132-4.515,23.397-5.309,24.733c0.19,1.398,1.144,8.837,0.826,14.4c-0.191,3.657-0.445,5.405-0.604,6.2
		c1.716,1.176,9.569,7.407,7.662,20.568c-1.049,7.313-3.083,12.05-7.089,15.419c-3.974,3.339-9.823,5.31-18.598,7.12
		c-16.468,3.371-24.797,1.719-25.751,1.496c-1.208,0.286-15.832,3.561-20.982,3.974c-0.827,0.063-1.558,0.127-2.194,0.19
		c-0.508,0.032-0.953,0.063-1.335,0.096v0.158h-0.445c0,0-0.19,0-1.049-0.063c-0.858,0.063-1.017,0.063-1.017,0.063h-0.477v-0.158
		c-0.381-0.032-0.827-0.063-1.335-0.096c-0.636-0.063-1.367-0.127-2.194-0.19c-5.15-0.413-19.774-3.688-20.983-3.974
		c-0.953,0.223-9.283,1.875-25.75-1.496c-8.774-1.811-14.625-3.781-18.599-7.12c-4.006-3.369-6.04-8.105-7.089-15.419
		c-1.908-13.161,5.945-19.393,7.662-20.568c-0.159-0.795-0.414-2.543-0.604-6.2c-0.317-5.563,0.637-13.002,0.827-14.4
		C74.931,354.149,70.417,345.884,70.417,330.752L70.417,330.752z"/>
	<path fill-rule="evenodd" clip-rule="evenodd" fill="#013A5B" d="M111.046,348.682c0,0-6.421-0.508-9.219,2.447
		c-2.797,2.926-2.671,5.882-2.417,8.647c0.287,2.798,1.495,3.943,2.544,4.419c1.081,0.478,8.71,3.116,13.798,1.781
		c5.085-1.304,4.259-4.229,3.083-5.532C117.627,359.141,112.795,349.157,111.046,348.682L111.046,348.682z"/>
	<path fill="#013A5B" d="M101.827,364.737c-0.032-0.033-7.185-2.768-9.092-3.849c-0.636-0.349-1.939-0.444-3.529-0.571
		c-2.702-0.223-6.199-0.478-9.06-2.258l0.414-1.018c2.67,1.687,6.072,1.973,8.711,2.163c1.653,0.127,3.051,0.254,3.846,0.667
		c1.844,1.049,8.965,3.784,8.997,3.784L101.827,364.737z"/>
	<path fill="#013A5B" d="M110.729,349.03c-0.032,0-3.37-4.705-5.022-8.01c-0.764-1.527-0.604-2.447-0.414-3.593
		c0.255-1.4,0.573-3.148-1.239-7.377l0.827-0.508c1.939,4.547,1.589,6.549,1.304,8.106c-0.159,0.924-0.287,1.654,0.317,2.798
		c1.59,3.212,4.896,7.853,4.896,7.853L110.729,349.03z"/>
	<path fill="#013A5B" d="M85.614,372.557c0.031,0,7.216,0.478,13.893,6.359c3.337,2.924,5.849,6.357,8.106,9.409
		c2.226,3.021,4.196,5.69,6.358,7.122c4.514,2.924,8.075,5.245,8.107,5.245l-0.445,0.985c0,0-3.592-2.319-8.075-5.246
		c-2.353-1.525-4.356-4.26-6.645-7.343c-2.226-3.021-4.705-6.421-7.916-9.252c-6.485-5.69-13.416-6.168-13.416-6.168L85.614,372.557
		z"/>
	<path fill-rule="evenodd" clip-rule="evenodd" fill="#013A5B" d="M121.919,401.2c0,0-6.326,1.367-8.488,5.056
		c-2.163,3.656-1.462,6.453-0.667,9.093c0.795,2.605,2.162,3.369,3.306,3.56c1.145,0.158,9.061,0.51,13.734-2.226
		c4.705-2.733,3.37-5.339,1.939-6.263C130.312,409.498,123.7,401.2,121.919,401.2L121.919,401.2z"/>
	<path fill="#013A5B" d="M188.458,363.656c0.032,0,7.153-2.735,8.997-3.784c0.795-0.413,2.194-0.54,3.848-0.667
		c2.639-0.19,6.04-0.477,8.711-2.163l0.413,1.018c-2.861,1.78-6.357,2.035-9.06,2.258c-1.59,0.127-2.893,0.223-3.529,0.571
		c-1.907,1.081-9.061,3.815-9.092,3.849L188.458,363.656z"/>
	<path fill="#221F20" d="M179.176,348.3c0,0,3.306-4.641,4.896-7.853c0.604-1.144,0.477-1.874,0.318-2.798
		c-0.286-1.558-0.637-3.56,1.304-8.106l0.826,0.508c-1.78,4.229-1.494,5.977-1.24,7.377c0.19,1.146,0.35,2.065-0.414,3.593
		c-1.653,3.305-4.991,8.01-4.991,8.01L179.176,348.3z"/>
	<path fill="#013A5B" d="M204.99,373.669c0,0-6.93,0.478-13.416,6.168c-3.211,2.831-5.691,6.231-7.917,9.252
		c-2.29,3.083-4.292,5.817-6.612,7.343c-4.514,2.927-8.107,5.246-8.107,5.246l-0.444-0.985c0.032,0,3.592-2.321,8.106-5.245
		c2.162-1.432,4.133-4.102,6.358-7.122c2.258-3.052,4.769-6.485,8.107-9.409c6.676-5.882,13.861-6.359,13.893-6.359L204.99,373.669z
		"/>
	<path fill-rule="evenodd" clip-rule="evenodd" fill="#013A5B" d="M168.653,401.2c0,0,6.327,1.367,8.488,5.056
		c2.162,3.656,1.463,6.453,0.668,9.093c-0.795,2.605-2.162,3.369-3.307,3.56c-1.145,0.158-9.061,0.51-13.734-2.226
		c-4.705-2.733-3.338-5.339-1.939-6.263C160.26,409.498,166.873,401.2,168.653,401.2L168.653,401.2z"/>
	<path fill="#013A5B" d="M136.861,304.142c0,0,5.086,7.186,13.861,0.508l0.509,0.955c-9.474,7.185-15.038-0.7-15.069-0.732
		L136.861,304.142z"/>
	<path fill="#013A5B" d="M99.983,304.205c0,0-3.719,6.072,3.529,13.321c7.534,7.502,15.673,10.618,15.705,10.618l-0.286,1.08
		c0-0.031-8.33-3.211-15.992-10.841c-7.916-7.915-3.719-14.814-3.688-14.846L99.983,304.205z"/>
	<path fill="#013A5B" d="M95.978,305.318c-0.031,0.031-6.104,6.803,1.589,19.456l-0.731,0.668
		c-8.171-13.448-1.526-20.919-1.494-20.919L95.978,305.318z"/>
	<path fill="#013A5B" d="M190.558,297.593c0,0.031-1.559,6.581-12.59,12.366c-11,5.754-13.798,4.865-13.83,4.865l0.223-1.082
		c0,0,2.511,0.795,13.225-4.832c10.65-5.563,12.081-11.636,12.081-11.636L190.558,297.593z"/>
	<path fill="#013A5B" d="M185.248,304.523c0.032,0.031,2.193,7.757-4.769,14.307c-6.804,6.357-15.451,9.728-15.483,9.76
		l-0.286-1.081c0.032,0,8.552-3.339,15.197-9.57c6.454-6.071,4.482-13.034,4.482-13.066L185.248,304.523z"/>
	<path fill="#013A5B" d="M188.046,304.046c0.032,0.032,6.167,9.919-0.159,20.028l-0.731-0.666
		c5.881-9.443,0.159-18.662,0.159-18.694L188.046,304.046z"/>
	<path fill-rule="evenodd" clip-rule="evenodd" fill="#FFCDD2" d="M107.836,248.188h0.19c0.286,0,0.541,0,0.826,0.032
		c11.636,0.35,21.332,8.488,24.066,19.36c0.095,0.382,0.159,0.731,0.254,1.113c3.02-1.397,6.581-2.192,10.396-2.192
		c4.355,0,8.425,1.048,11.731,2.892c2.13-12.049,12.622-21.205,25.274-21.205c0.287,0,0.541,0,0.827,0.032
		c2.257,0.064,4.451,0.413,6.549,1.048c-1.272-4.927-3.274-8.265-3.274-8.265s0.954-0.858,2.734-2.002
		c1.781-1.177,9.982-8.425,8.107-15.356c-1.908-6.931-5.373-15.038-5.373-15.038s-2.639,3.244-7.884,9.982
		c-5.278,6.74-6.008,14.942-6.008,14.942s-3.529-2.352-7.884-5.022l-0.096,0.19c0,0-0.954-1.176-10.714-3.688
		c-9.792-2.512-21.682,1.685-21.682,1.685l-9.506,1.686c0.095-0.764-0.381-1.75-0.795-3.37c-0.827-3.275-6.518-8.615-8.711-11.89
		c-2.225-3.243-2.003-4.737-2.003-4.737s-4.514,3.273-5.69,10.745c-1.018,6.55,3.751,11,4.896,11.986
		c2.002,0.127,3.974,0.095,5.66-0.032c-1.495,1.335-3.529,3.37-5.945,6.294C111.332,240.337,109.298,244.564,107.836,248.188
		L107.836,248.188z"/>
	<path fill="#013A5B" d="M106.469,237.729c-5.245,4.292-8.647,9.92-10.11,12.622c1.526-0.731,3.148-1.367,4.8-1.812
		c2.193-0.604,4.483-0.923,6.868-0.923c0.063,0,0.19,0.032,0.413,0.032c0.159,0,0.286,0,0.413,0c5.913,0.19,11.318,2.32,15.61,5.786
		c4.355,3.497,7.566,8.393,8.998,14.021l0,0c0.031,0.158,0.063,0.317,0.095,0.444c1.398-0.571,2.925-1.049,4.482-1.397
		c1.78-0.383,3.625-0.574,5.532-0.574c2.193,0,4.292,0.256,6.295,0.764c1.78,0.444,3.497,1.05,5.023,1.845
		c1.208-5.882,4.419-11.064,8.838-14.784c4.578-3.815,10.427-6.136,16.849-6.136c0.064,0,0.191,0.032,0.414,0.032
		c0.158,0,0.286,0,0.413,0c1.177,0.031,2.29,0.159,3.402,0.317c0.795,0.127,1.59,0.319,2.353,0.509
		c-1.24-4.355-2.956-7.185-2.956-7.217l-0.254-0.382l0.349-0.317c0,0,0.986-0.858,2.798-2.035c1.113-0.698,4.674-3.75,6.708-7.629
		c1.176-2.226,1.812-4.706,1.176-7.121c-1.589-5.755-4.26-12.305-5.086-14.339c-1.049,0.667-3.592,2.289-8.711,5.342
		c-6.931,4.101-12.399,14.146-12.431,14.178l-0.381,0.731l-0.541-0.636c0,0-0.827-1.018-10.428-3.497
		c-9.601-2.479-21.3,1.654-21.332,1.654l-0.636,0.222l-0.096-0.669c0,0-0.318-2.097-3.814-7.755
		c-3.179-5.15-14.625-9.315-16.563-9.982c-0.891,0.762-4.261,3.91-5.214,10.173c-1.112,7.152,4.896,11.668,4.928,11.668l0.954,0.729
		l-1.177,0.256C114.448,231.849,113.622,231.943,106.469,237.729L106.469,237.729z M94.579,251.463
		c0-0.031,3.847-8.615,11.19-14.592c4.388-3.562,6.549-5.055,7.567-5.659c-1.622-1.494-5.691-5.913-4.706-12.176
		c1.176-7.694,5.881-11.096,5.881-11.096l0.254-0.158l0.254,0.095c0.063,0,13.766,4.577,17.454,10.522
		c2.575,4.165,3.497,6.518,3.815,7.566c2.479-0.795,12.716-3.719,21.396-1.494c6.676,1.717,9.346,2.862,10.396,3.434
		c1.239-2.13,6.294-10.396,12.525-14.115c6.994-4.165,9.22-5.659,9.22-5.659l0.572-0.382l0.254,0.637
		c0,0.031,3.498,8.106,5.373,15.102c0.763,2.732,0.032,5.499-1.24,7.915c-2.13,4.07-5.914,7.313-7.09,8.044
		c-1.112,0.73-1.906,1.335-2.32,1.684c0.604,1.051,2.098,4.007,3.115,8.012l0.255,0.954l-0.954-0.285
		c-1.05-0.318-2.098-0.573-3.179-0.732c-1.049-0.159-2.13-0.285-3.244-0.317l0,0c-0.126,0-0.254,0-0.38,0h-0.414
		c-6.135,0-11.763,2.194-16.118,5.851c-4.418,3.719-7.566,8.933-8.615,14.877l-0.127,0.763l-0.668-0.381
		c-1.653-0.89-3.497-1.621-5.467-2.098c-1.876-0.476-3.911-0.731-6.009-0.731c-1.844,0-3.624,0.19-5.277,0.54
		c-1.749,0.382-3.402,0.923-4.896,1.621l-0.636,0.317l-0.159-0.698c-0.032-0.159-0.063-0.349-0.095-0.572
		c-0.063-0.19-0.095-0.382-0.127-0.54h-0.032c-1.335-5.373-4.419-10.048-8.584-13.415c-4.133-3.307-9.283-5.342-14.942-5.533l0,0
		c-0.127,0-0.254,0-0.381,0h-0.413c-2.29,0-4.483,0.286-6.581,0.858c-2.162,0.573-4.196,1.463-6.072,2.544L94.579,251.463z"/>
	<path fill-rule="evenodd" clip-rule="evenodd" fill="#FFCDD2" d="M116.864,213.123c-2.225-3.243-2.003-4.737-2.003-4.737
		s-4.514,3.273-5.69,10.745c-1.018,6.55,3.751,11,4.896,11.986c3.942,0.254,7.757-0.063,9.633-0.732
		c3.784-1.367,2.734-2.129,1.875-5.372C124.749,221.737,119.058,216.397,116.864,213.123L116.864,213.123z"/>
	<path fill="#221F20" d="M116.388,213.44c-1.208-1.781-1.717-3.115-1.939-3.941c-1.303,1.239-3.878,4.322-4.705,9.696
		c-0.381,2.32,0.032,4.355,0.7,6.039c1.145,2.767,3.052,4.61,3.846,5.343c1.845,0.096,3.657,0.096,5.214-0.032
		c1.685-0.129,3.084-0.383,4.006-0.7l0,0c2.638-0.954,2.479-1.525,1.939-3.243c-0.127-0.413-0.254-0.89-0.414-1.462
		c-0.508-1.972-3.02-4.896-5.308-7.566C118.422,216.047,117.182,214.616,116.388,213.44L116.388,213.44z M115.402,208.481
		c0,0-0.16,1.239,1.907,4.323c0.763,1.144,1.971,2.544,3.243,4.037c2.384,2.768,4.992,5.786,5.563,8.044
		c0.127,0.477,0.286,0.953,0.414,1.366c0.763,2.48,1.018,3.307-2.638,4.643l0,0c-1.018,0.35-2.512,0.635-4.292,0.764
		c-1.685,0.126-3.624,0.158-5.563,0l-0.318-0.129c-0.763-0.635-3.021-2.702-4.292-5.849c-0.763-1.876-1.208-4.102-0.794-6.645
		c1.176-7.694,5.881-11.096,5.881-11.096l1.082-0.794L115.402,208.481z"/>
	<path fill-rule="evenodd" clip-rule="evenodd" fill="#FFCDD2" d="M182.26,218.59c-5.278,6.74-6.008,14.942-6.008,14.942
		c3.465,1.876,8.424,7.472,8.424,7.472s0.954-0.858,2.734-2.002c1.781-1.177,9.982-8.425,8.107-15.356
		c-1.908-6.931-5.373-15.038-5.373-15.038S187.505,211.852,182.26,218.59L182.26,218.59z"/>
	<path fill="#221F20" d="M182.705,218.94c-4.546,5.786-5.659,12.652-5.85,14.274c2.957,1.748,6.708,5.723,7.884,6.995
		c0.445-0.351,1.24-0.954,2.353-1.687c1.113-0.698,4.674-3.75,6.708-7.629c1.176-2.226,1.812-4.706,1.176-7.121
		c-1.526-5.532-4.07-11.827-4.991-14.084C188.968,210.992,186.552,214.012,182.705,218.94L182.705,218.94z M175.711,233.47
		c0-0.032,0.731-8.361,6.104-15.229c5.182-6.646,7.883-9.982,7.883-9.982l0.604-0.731l0.35,0.858c0,0.031,3.498,8.106,5.373,15.102
		c0.763,2.732,0.032,5.499-1.24,7.915c-2.13,4.07-5.914,7.313-7.09,8.044c-1.716,1.145-2.638,1.971-2.638,1.971l-0.445,0.349
		l-0.35-0.412c-0.032,0-4.896-5.5-8.266-7.344l-0.317-0.159L175.711,233.47z"/>
	<path fill="#221F20" d="M179.493,348.11c0,0,6.613-0.51,9.538,2.606c1.495,1.557,2.226,3.114,2.512,4.673
		c0.318,1.526,0.191,3.02,0.063,4.45c-0.128,1.526-0.541,2.576-1.081,3.371c-0.509,0.763-1.145,1.239-1.749,1.493
		c-0.699,0.318-4.101,1.525-7.757,2.002c-2.13,0.288-4.388,0.319-6.295-0.158c-1.971-0.508-3.116-1.271-3.719-2.13
		c-0.286-0.381-0.445-0.794-0.54-1.176c-0.096-0.413-0.096-0.826-0.032-1.209c0.159-0.794,0.541-1.525,1.018-2.001
		c0.381-0.446,1.271-2.004,2.321-3.849c1.939-3.401,4.355-7.692,5.627-8.042L179.493,348.11z M188.458,351.542
		c-2.543-2.638-8.297-2.353-8.87-2.319c-0.953,0.349-3.242,4.387-5.054,7.598c-1.081,1.908-2.002,3.528-2.479,4.037
		c-0.318,0.351-0.637,0.858-0.732,1.397c-0.032,0.225-0.032,0.446,0.032,0.701c0.032,0.223,0.159,0.477,0.318,0.731
		c0.508,0.667,1.494,1.303,3.243,1.747c1.812,0.479,3.942,0.414,5.977,0.16c3.624-0.478,6.899-1.621,7.566-1.938
		c0.477-0.191,0.954-0.573,1.368-1.177c0.413-0.605,0.763-1.495,0.858-2.767c0.159-1.335,0.255-2.702-0.032-4.068
		C190.398,354.308,189.763,352.942,188.458,351.542L188.458,351.542z"/>
	<path fill="#013A5B" d="M97.154,297.593c0,0.031,1.558,6.581,12.589,12.366c11,5.754,13.798,4.865,13.83,4.865l-0.222-1.082
		c0,0-2.513,0.795-13.226-4.832c-10.649-5.563-12.08-11.636-12.08-11.636L97.154,297.593z"/>
	<path fill-rule="evenodd" clip-rule="evenodd" fill="#FCFDFE" d="M108.027,299.501c14.115,0,25.656-11.509,25.656-25.657
		c0-14.114-11.541-25.655-25.656-25.655c-14.147,0-25.656,11.541-25.656,25.655C82.371,287.992,93.879,299.501,108.027,299.501
		L108.027,299.501z"/>
	<path fill="#013A5B" d="M108.027,247.616c7.248,0,13.797,2.957,18.534,7.693s7.694,11.287,7.694,18.534
		c0,7.248-2.957,13.799-7.694,18.536c-4.737,4.736-11.287,7.692-18.534,7.692c-7.249,0-13.798-2.956-18.534-7.692
		c-4.737-4.737-7.694-11.288-7.694-18.536c0-7.247,2.957-13.798,7.694-18.534C94.229,250.573,100.778,247.616,108.027,247.616
		L108.027,247.616z M125.767,256.105c-4.547-4.547-10.809-7.345-17.74-7.345c-6.931,0-13.193,2.798-17.74,7.345
		c-4.546,4.546-7.344,10.809-7.344,17.738c0,6.932,2.797,13.194,7.344,17.741c4.546,4.545,10.809,7.343,17.74,7.343
		c6.931,0,13.193-2.798,17.74-7.343c4.545-4.547,7.343-10.81,7.343-17.741C133.11,266.914,130.312,260.651,125.767,256.105
		L125.767,256.105z"/>
	<path fill-rule="evenodd" clip-rule="evenodd" fill="#013A5B" d="M108.853,248.221c11.636,0.35,21.332,8.488,24.066,19.36
		c-0.287,10.492-8.87,18.886-19.425,18.886c-10.714,0-19.424-8.681-19.424-19.395C94.07,257.948,100.365,250.287,108.853,248.221
		L108.853,248.221z"/>
	<path fill-rule="evenodd" clip-rule="evenodd" fill="#FCFDFE" d="M180.574,299.501c14.116,0,25.656-11.509,25.656-25.657
		c0-14.114-11.54-25.655-25.656-25.655c-14.147,0-25.656,11.541-25.656,25.655C154.918,287.992,166.427,299.501,180.574,299.501
		L180.574,299.501z"/>
	<path fill="#013A5B" d="M180.574,247.616c7.249,0,13.798,2.957,18.535,7.693s7.693,11.287,7.693,18.534
		c0,7.248-2.957,13.799-7.693,18.536c-4.737,4.736-11.286,7.692-18.535,7.692c-7.248,0-13.797-2.956-18.534-7.692
		c-4.737-4.737-7.693-11.288-7.693-18.536c0-7.247,2.956-13.798,7.693-18.534S173.326,247.616,180.574,247.616L180.574,247.616z
		 M198.314,256.105c-4.547-4.547-10.81-7.345-17.74-7.345c-6.93,0-13.193,2.798-17.74,7.345c-4.545,4.546-7.344,10.809-7.344,17.738
		c0,6.932,2.798,13.194,7.344,17.741c4.546,4.545,10.81,7.343,17.74,7.343c6.931,0,13.193-2.798,17.74-7.343
		c4.546-4.547,7.343-10.81,7.343-17.741C205.658,266.914,202.861,260.651,198.314,256.105L198.314,256.105z"/>
	<path fill-rule="evenodd" clip-rule="evenodd" fill="#013A5B" d="M181.401,248.221c11.636,0.35,21.332,8.488,24.066,19.36
		c-0.286,10.492-8.87,18.886-19.424,18.886c-10.714,0-19.425-8.681-19.425-19.395C166.618,257.948,172.913,250.287,181.401,248.221
		L181.401,248.221z"/>
	<path fill-rule="evenodd" clip-rule="evenodd" fill="#FE71F3" d="M143.569,298.229c11.223,0,20.378-7.121,20.378-15.865
		c0-8.741-9.156-15.861-20.378-15.861c-11.254,0-20.41,7.12-20.41,15.861C123.159,291.107,132.315,298.229,143.569,298.229
		L143.569,298.229z"/>
	<path fill="#013A5B" d="M143.569,265.928c5.754,0,10.968,1.813,14.752,4.77c3.846,2.988,6.199,7.089,6.199,11.666
		c0,4.579-2.353,8.681-6.199,11.668c-3.784,2.957-8.998,4.77-14.752,4.77s-11-1.813-14.783-4.77
		c-3.815-2.987-6.199-7.089-6.199-11.668c0-4.577,2.384-8.678,6.199-11.666C132.569,267.741,137.815,265.928,143.569,265.928
		L143.569,265.928z M157.653,271.587c-3.625-2.798-8.584-4.546-14.084-4.546c-5.5,0-10.491,1.748-14.083,4.546
		c-3.561,2.765-5.755,6.581-5.755,10.776c0,4.198,2.194,8.014,5.755,10.778c3.592,2.799,8.583,4.546,14.083,4.546
		c5.5,0,10.459-1.747,14.084-4.546c3.528-2.765,5.753-6.58,5.753-10.778C163.407,278.168,161.182,274.352,157.653,271.587
		L157.653,271.587z"/>
	<path fill-rule="evenodd" clip-rule="evenodd" fill="#221F20" d="M151.199,278.199c2.734-1.779,5.627-2.161,6.486-0.857
		c0.858,1.335-0.637,3.847-3.37,5.627c-2.734,1.779-5.627,2.13-6.485,0.826C146.971,282.492,148.497,279.979,151.199,278.199
		L151.199,278.199z"/>
	<path fill-rule="evenodd" clip-rule="evenodd" fill="#221F20" d="M137.942,278.199c-2.734-1.779-5.627-2.161-6.485-0.857
		c-0.859,1.335,0.636,3.847,3.37,5.627c2.734,1.779,5.627,2.13,6.485,0.826C142.17,282.492,140.645,279.979,137.942,278.199
		L137.942,278.199z"/>
	<rect x="261.675" y="74.893" fill-rule="evenodd" clip-rule="evenodd" fill="#FEFEFE" width="150.184" height="227.5"/>
	<rect x="269.114" y="82.173" fill-rule="evenodd" clip-rule="evenodd" fill="#F5FAFD" width="135.622" height="124.272"/>
	<path fill-rule="evenodd" clip-rule="evenodd" fill="#4A148C" d="M301.891,171.284c0-18.119,13.894-33.03,31.633-34.557v-7.313
		c-21.745,1.559-38.945,19.711-38.945,41.869c0,6.709,1.59,13.066,4.388,18.663l6.518-3.212
		C303.193,182.094,301.891,176.849,301.891,171.284L301.891,171.284z"/>
	<path fill-rule="evenodd" clip-rule="evenodd" fill="#E65000" d="M336.575,136.568c17.644,0,32.206,13.161,34.429,30.171
		l7.217-1.05c-2.733-20.538-20.346-36.401-41.646-36.401c-0.54,0-1.08,0.032-1.621,0.032v7.311
		C335.495,136.6,336.035,136.568,336.575,136.568L336.575,136.568z"/>
	<path fill-rule="evenodd" clip-rule="evenodd" fill="#00C8AE" d="M378.35,166.771l-7.218,0.954c0.097,1.177,0.159,2.353,0.159,3.56
		c0,1.336-0.063,2.607-0.19,3.88l7.218,0.795c0.189-1.527,0.253-3.084,0.253-4.675C378.571,169.76,378.508,168.265,378.35,166.771
		L378.35,166.771z"/>
	<path fill-rule="evenodd" clip-rule="evenodd" fill="#5D4038" d="M378.157,177.263l-7.216-1.018
		c-0.35,2.511-0.984,4.959-1.843,7.248l6.644,3.02C376.887,183.589,377.713,180.474,378.157,177.263L378.157,177.263z"/>
	<path fill-rule="evenodd" clip-rule="evenodd" fill="#1E97F7" d="M375.424,187.339l-6.643-3.02
		c-0.319,0.763-0.637,1.494-1.018,2.226l6.644,3.021C374.757,188.835,375.106,188.103,375.424,187.339L375.424,187.339z"/>
	<path fill="#221F20" d="M324.124,165.595l-2.671,3.497l0.097,1.366h2.543v1.019h1.335v-1.019h0.509v-1.303h-0.509v-3.561H324.124z
		 M322.917,169.155l1.176-1.558v1.558H322.917z M326.572,171.477h2.861v-1.241h-0.73v-4.736l-2.067,0.89v1.304l0.731-0.255v2.798
		h-0.795V171.477z M329.942,169.79c0,1.337,0.985,1.813,2.099,1.813c1.112,0,2.225-0.604,2.225-2.066v-2.002
		c0-1.464-1.144-2.035-2.225-2.035s-2.163,0.571-2.163,2.035c0,1.24,0.796,1.906,1.845,1.906c0.382,0,0.794-0.063,1.145-0.412v0.508
		c0,0.508-0.445,0.764-0.826,0.764s-0.731-0.159-0.731-0.51H329.942z M332.041,166.866c0.54,0,0.826,0.317,0.826,0.668
		c0,0.381-0.286,0.698-0.826,0.698c-0.444,0-0.764-0.254-0.764-0.698C331.277,167.089,331.628,166.866,332.041,166.866
		L332.041,166.866z M337.19,169.028c0.509,0,0.795,0.254,0.795,0.635c0,0.414-0.381,0.604-0.795,0.604
		c-0.444,0-0.794-0.224-0.794-0.604C336.396,169.25,336.715,169.028,337.19,169.028L337.19,169.028z M334.934,169.663
		c-0.032,1.431,0.986,1.939,2.257,1.939c1.272,0,2.29-0.509,2.257-1.939c0-0.349-0.126-0.952-0.634-1.304
		c0.317-0.254,0.508-0.667,0.508-1.112c0-1.177-1.019-1.78-2.194-1.78c-1.145,0-2.033,0.604-2.033,1.78
		c0,0.478,0.158,0.891,0.508,1.176C335.126,168.711,334.934,169.346,334.934,169.663L334.934,169.663z M337.159,167.947
		c-0.89,0-0.89-1.208,0-1.208C338.08,166.739,338.08,167.947,337.159,167.947L337.159,167.947z M340.751,171.539
		c0.954,0,0.954-1.525,0-1.525C339.798,170.014,339.83,171.539,340.751,171.539L340.751,171.539z M342.118,169.79
		c0,1.337,0.986,1.813,2.098,1.813c1.081,0,2.194-0.604,2.194-2.066v-2.002c0-1.464-1.113-2.035-2.194-2.035
		c-1.08,0-2.162,0.571-2.162,2.035c0,1.24,0.765,1.906,1.813,1.906c0.413,0,0.795-0.063,1.177-0.412v0.508
		c0,0.508-0.445,0.764-0.828,0.764c-0.412,0-0.729-0.159-0.761-0.51H342.118z M344.216,166.866c0.51,0,0.795,0.317,0.795,0.668
		c0,0.381-0.253,0.698-0.795,0.698c-0.476,0-0.761-0.254-0.761-0.698C343.455,167.089,343.804,166.866,344.216,166.866
		L344.216,166.866z M348.572,167.438c0.032-0.444,0.317-0.604,0.731-0.604c0.317,0,0.667,0.159,0.667,0.573
		c0,0.477-0.413,0.604-0.699,0.604c-1.017,0-2.161,0.349-2.161,2.098v1.368h4.195v-1.399h-2.829c0-0.7,0.444-0.763,0.795-0.763
		c1.209,0,2.066-0.477,2.066-1.94c0-1.271-0.922-1.875-2.034-1.875c-1.113,0-2.098,0.571-2.098,1.938H348.572z"/>
	<path fill-rule="evenodd" clip-rule="evenodd" fill="#4A148C" d="M270.926,217.604h26.323c1.78,0,3.243,1.463,3.243,3.244v2.446
		c0,1.781-1.463,3.211-3.243,3.211h-26.323c-1.78,0-3.242-1.43-3.242-3.211v-2.446C267.684,219.067,269.146,217.604,270.926,217.604
		L270.926,217.604z"/>
	<rect x="269.114" y="229.145" fill-rule="evenodd" clip-rule="evenodd" fill="#C49DF5" width="135.622" height="1.433"/>
	<rect x="269.114" y="229.145" fill-rule="evenodd" clip-rule="evenodd" fill="#4A148C" width="65.966" height="1.433"/>
	<path fill-rule="evenodd" clip-rule="evenodd" fill="#E65000" d="M270.926,239.668h26.323c1.78,0,3.243,1.462,3.243,3.243v2.447
		c0,1.782-1.463,3.212-3.243,3.212h-26.323c-1.78,0-3.242-1.43-3.242-3.212v-2.447C267.684,241.13,269.146,239.668,270.926,239.668
		L270.926,239.668z"/>
	<rect x="269.114" y="251.209" fill-rule="evenodd" clip-rule="evenodd" fill="#FADCCA" width="135.622" height="1.431"/>
	<rect x="269.114" y="251.209" fill-rule="evenodd" clip-rule="evenodd" fill="#E65000" width="65.966" height="1.431"/>
	<path fill-rule="evenodd" clip-rule="evenodd" fill="#00C8AE" d="M270.926,260.333h26.323c1.78,0,3.243,1.431,3.243,3.211v2.446
		c0,1.782-1.463,3.244-3.243,3.244h-26.323c-1.78,0-3.242-1.462-3.242-3.244v-2.446
		C267.684,261.764,269.146,260.333,270.926,260.333L270.926,260.333z"/>
	<rect x="269.114" y="271.873" fill-rule="evenodd" clip-rule="evenodd" fill="#CDFCF6" width="135.622" height="1.399"/>
	<rect x="269.114" y="271.873" fill-rule="evenodd" clip-rule="evenodd" fill="#00C8AE" width="65.966" height="1.399"/>
	<path fill-rule="evenodd" clip-rule="evenodd" fill="#5D4038" d="M270.926,280.966h26.323c1.78,0,3.243,1.463,3.243,3.243v2.416
		c0,1.78-1.463,3.242-3.243,3.242h-26.323c-1.78,0-3.242-1.462-3.242-3.242v-2.416C267.684,282.429,269.146,280.966,270.926,280.966
		L270.926,280.966z"/>
	<rect x="269.114" y="292.506" fill-rule="evenodd" clip-rule="evenodd" fill="#F0D8D1" width="135.622" height="1.399"/>
	<rect x="269.114" y="292.506" fill-rule="evenodd" clip-rule="evenodd" fill="#5D4038" width="65.966" height="1.399"/>
	<rect x="280.4" y="90.279" fill-rule="evenodd" clip-rule="evenodd" fill="#969696" width="45.111" height="3.243"/>
	<rect x="347.989" y="90.279" fill-rule="evenodd" clip-rule="evenodd" fill="#969696" width="45.144" height="3.243"/>
	<rect x="280.4" y="99.214" fill-rule="evenodd" clip-rule="evenodd" fill="#00C8AE" width="45.111" height="0.857"/>
	<rect x="336.353" y="79.598" fill-rule="evenodd" clip-rule="evenodd" fill="#FEFEFE" width="0.795" height="21.237"/>
	<path fill-rule="evenodd" clip-rule="evenodd" fill="#DEF4F7" d="M369.162,420.753c15.165,0,27.563-2.543,27.563-5.659
		c0-3.147-12.397-5.69-27.563-5.69s-27.531,2.543-27.531,5.69C341.631,418.21,353.997,420.753,369.162,420.753L369.162,420.753z"/>
	<path fill-rule="evenodd" clip-rule="evenodd" fill="#DEF4F7" d="M304.594,420.753c15.164,0,27.563-2.543,27.563-5.659
		c0-3.147-12.399-5.69-27.563-5.69c-15.165,0-27.532,2.543-27.532,5.69C277.062,418.21,289.429,420.753,304.594,420.753
		L304.594,420.753z"/>
	<path fill-rule="evenodd" clip-rule="evenodd" fill="#CCCACA" d="M289.143,385.146h31.251c1.271,0,2.353,1.081,2.353,2.385v4.101
		c0,1.303-1.081,2.352-2.353,2.352h-31.251c-1.304,0-2.354-1.049-2.354-2.352v-4.101
		C286.789,386.228,287.839,385.146,289.143,385.146L289.143,385.146z"/>
	<path fill-rule="evenodd" clip-rule="evenodd" fill="#A8A7A7" d="M290.286,416.842h28.962c2.004,0,3.624-1.621,3.624-3.625v-15.609
		c0-1.97-1.62-3.624-3.624-3.624h-28.962c-2.002,0-3.625,1.654-3.625,3.624v15.609C286.661,415.221,288.284,416.842,290.286,416.842
		L290.286,416.842z"/>
	<path fill-rule="evenodd" clip-rule="evenodd" fill="#04C4AC" d="M293.847,385.146c0,0-13.479-7.662-13.479-11.541
		c0-3.91,18.788,8.902,18.788,8.902s-11.413-13.925-10.586-20.442c0.826-6.549,14.464,13.193,14.592,15.165
		c0.158,1.939,1.749-21.586,6.104-19.902c4.324,1.654-0.571,20.283-0.571,20.283s5.468-20.855,14.911-15.959
		c9.473,4.863-8.617,18.758-8.617,18.758s14.625-7.917,12.4-2.512c-2.227,5.436-12.527,7.248-12.527,7.248H293.847z"/>
	<path fill-rule="evenodd" clip-rule="evenodd" fill="#CCCACA" d="M352.916,385.146h31.252c1.271,0,2.351,1.081,2.351,2.385v4.101
		c0,1.303-1.079,2.352-2.351,2.352h-31.252c-1.271,0-2.353-1.049-2.353-2.352v-4.101
		C350.563,386.228,351.646,385.146,352.916,385.146L352.916,385.146z"/>
	<path fill-rule="evenodd" clip-rule="evenodd" fill="#A8A7A7" d="M354.061,416.842h28.963c2.002,0,3.624-1.621,3.624-3.625v-15.609
		c0-1.97-1.622-3.624-3.624-3.624h-28.963c-2.003,0-3.624,1.654-3.624,3.624v15.609
		C350.437,415.221,352.058,416.842,354.061,416.842L354.061,416.842z"/>
	<path fill-rule="evenodd" clip-rule="evenodd" fill="#04C4AC" d="M372.245,378.47c0,0,0.604-4.674,5.912-5.245
		c5.278-0.573,7.536,3.782,7.536,3.782S383.468,382.348,372.245,378.47L372.245,378.47z"/>
	<path fill-rule="evenodd" clip-rule="evenodd" fill="#04C4AC" d="M372.149,375.259c0,0,1.018-4.608-3.719-6.993
		c-4.769-2.385-8.393,0.953-8.393,0.953S360.26,374.973,372.149,375.259L372.149,375.259z"/>
	<path fill-rule="evenodd" clip-rule="evenodd" fill="#04C4AC" d="M372.881,364.068c0,0,0.413-3.274,4.101-3.72
		c3.722-0.477,5.311,2.576,5.311,2.576S380.798,366.706,372.881,364.068L372.881,364.068z"/>
	<path fill-rule="evenodd" clip-rule="evenodd" fill="#04C4AC" d="M371.004,385.146c0.383-2.416,2.101-13.606,0.574-21.49
		c-1.781-9.157,0.222-15.96,0.222-15.991l1.431,0.413c-0.031,0-1.907,6.484-0.19,15.322c1.525,7.854-0.063,18.853-0.54,21.746
		H371.004z"/>
	<path fill-rule="evenodd" clip-rule="evenodd" fill="#04C4AC" d="M371.26,362.16c0,0,1.845-2.733-0.7-5.53
		c-2.51-2.735-5.722-1.495-5.722-1.495S363.535,358.982,371.26,362.16L371.26,362.16z"/>
	<path fill-rule="evenodd" clip-rule="evenodd" fill="#04C4AC" d="M371.896,350.144c0,0,0.412-3.305,4.133-3.721
		c3.719-0.444,5.276,2.607,5.276,2.607S379.812,352.815,371.896,350.144L371.896,350.144z"/>
	<path fill-rule="evenodd" clip-rule="evenodd" fill="#54B374" d="M364.774,381.395c0,0,0.381-2.83,3.562-3.18
		c3.211-0.349,4.577,2.29,4.577,2.29S371.578,383.748,364.774,381.395L364.774,381.395z"/>
	<path fill-rule="evenodd" clip-rule="evenodd" fill="#54B374" d="M364.71,379.424c0,0,0.637-2.765-2.257-4.229
		c-2.892-1.431-5.086,0.572-5.086,0.572S357.494,379.266,364.71,379.424L364.71,379.424z"/>
	<path fill-rule="evenodd" clip-rule="evenodd" fill="#54B374" d="M365.155,372.684c0,0,0.255-2.002,2.481-2.289
		c2.256-0.255,3.241,1.591,3.241,1.591S369.957,374.274,365.155,372.684L365.155,372.684z"/>
	<path fill-rule="evenodd" clip-rule="evenodd" fill="#54B374" d="M364.076,385.146c0.286-1.907,1.176-8.202,0.286-12.717
		c-1.051-5.563,0.126-9.697,0.126-9.697l0.858,0.224c0,0.031-1.112,3.942-0.095,9.283c0.857,4.546,0.063,10.81-0.287,12.907H364.076
		z"/>
	<path fill-rule="evenodd" clip-rule="evenodd" fill="#54B374" d="M364.171,371.508c0,0,1.112-1.653-0.414-3.338
		c-1.526-1.686-3.466-0.922-3.466-0.922S359.496,369.601,364.171,371.508L364.171,371.508z"/>
	<path fill-rule="evenodd" clip-rule="evenodd" fill="#54B374" d="M364.647,363.72c0,0,1.112-1.654-0.413-3.339
		c-1.527-1.686-3.465-0.891-3.465-0.891S359.975,361.811,364.647,363.72L364.647,363.72z"/>
	<path fill-rule="evenodd" clip-rule="evenodd" fill="#54B374" d="M364.552,364.228c0,0,0.255-2.004,2.511-2.258
		c2.258-0.254,3.212,1.591,3.212,1.591S369.353,365.849,364.552,364.228L364.552,364.228z"/>
	<path fill-rule="evenodd" clip-rule="evenodd" fill="#04C4AC" d="M372.913,349.381c0,0,2.065-2.574-0.222-5.531
		c-2.29-2.988-5.564-1.973-5.564-1.973S365.474,345.597,372.913,349.381L372.913,349.381z"/>
	<path fill-rule="evenodd" clip-rule="evenodd" fill="#2E5D61" d="M58.495,288.277L58.495,288.277c0.318,0,0.605,0.286,0.605,0.604
		v6.358h4.068c0.351,0,0.637,0.286,0.637,0.604l0,0c0,0.349-0.286,0.635-0.637,0.635H59.1v6.327c0,0.351-0.287,0.604-0.605,0.604
		l0,0c-0.349,0-0.635-0.253-0.635-0.604v-6.327h-4.069c-0.35,0-0.604-0.286-0.604-0.635l0,0c0-0.318,0.254-0.604,0.604-0.604h4.069
		v-6.358C57.86,288.563,58.146,288.277,58.495,288.277L58.495,288.277z"/>
	<path fill-rule="evenodd" clip-rule="evenodd" fill="#2E5D61" d="M73.724,274.225L73.724,274.225c0.255,0,0.445,0.193,0.445,0.447
		v4.578h2.956c0.255,0,0.446,0.222,0.446,0.444l0,0c0,0.254-0.191,0.444-0.446,0.444h-2.956v4.609c0,0.255-0.19,0.446-0.445,0.446
		l0,0c-0.223,0-0.445-0.191-0.445-0.446v-4.609h-2.957c-0.254,0-0.444-0.19-0.444-0.444l0,0c0-0.223,0.19-0.444,0.444-0.444h2.957
		v-4.578C73.278,274.418,73.501,274.225,73.724,274.225L73.724,274.225z"/>
	<path fill-rule="evenodd" clip-rule="evenodd" fill="#2E5D61" d="M55.984,262.654L55.984,262.654c0.381,0,0.699,0.318,0.699,0.73
		v7.313h4.705c0.382,0,0.7,0.318,0.7,0.699l0,0c0,0.413-0.318,0.731-0.7,0.731h-4.705v7.313c0,0.381-0.318,0.698-0.699,0.698l0,0
		c-0.413,0-0.731-0.317-0.731-0.698v-7.313h-4.706c-0.381,0-0.699-0.318-0.699-0.731l0,0c0-0.381,0.318-0.699,0.699-0.699h4.706
		v-7.313C55.253,262.973,55.571,262.654,55.984,262.654L55.984,262.654z"/>
	<path fill-rule="evenodd" clip-rule="evenodd" fill="#2E5D61" d="M48.1,281.855L48.1,281.855c0.223,0,0.382,0.191,0.382,0.381
		v4.008h2.574c0.223,0,0.382,0.159,0.382,0.381l0,0c0,0.223-0.159,0.381-0.382,0.381h-2.574v4.007c0,0.19-0.159,0.381-0.382,0.381
		l0,0c-0.223,0-0.381-0.19-0.381-0.381v-4.007h-2.575c-0.223,0-0.382-0.158-0.382-0.381l0,0c0-0.222,0.16-0.381,0.382-0.381h2.575
		v-4.008C47.718,282.047,47.877,281.855,48.1,281.855L48.1,281.855z"/>
	<path fill-rule="evenodd" clip-rule="evenodd" fill="#2E5D61" d="M73.31,256.137L73.31,256.137c0.255,0,0.477,0.19,0.477,0.445
		v4.736h3.052c0.254,0,0.445,0.223,0.445,0.477l0,0c0,0.254-0.191,0.445-0.445,0.445h-3.052v4.737c0,0.254-0.222,0.478-0.477,0.478
		l0,0c-0.254,0-0.445-0.224-0.445-0.478v-4.737h-3.052c-0.255,0-0.477-0.191-0.477-0.445l0,0c0-0.254,0.222-0.477,0.477-0.477h3.052
		v-4.736C72.865,256.327,73.056,256.137,73.31,256.137L73.31,256.137z"/>
	<path fill-rule="evenodd" clip-rule="evenodd" fill="#2E5D61" d="M43.204,269.456L43.204,269.456c0.127,0,0.254,0.127,0.254,0.256
		v2.67h1.717c0.127,0,0.254,0.128,0.254,0.254l0,0c0,0.159-0.127,0.255-0.254,0.255h-1.717v2.67c0,0.16-0.126,0.255-0.254,0.255l0,0
		c-0.159,0-0.255-0.095-0.255-0.255v-2.67h-1.717c-0.159,0-0.254-0.096-0.254-0.255l0,0c0-0.126,0.096-0.254,0.254-0.254h1.717
		v-2.67C42.949,269.583,43.045,269.456,43.204,269.456L43.204,269.456z"/>
	<path fill-rule="evenodd" clip-rule="evenodd" fill="#2E5D61" d="M47.4,249.811L47.4,249.811c0.254,0,0.445,0.189,0.445,0.445
		v4.769h3.052c0.254,0,0.477,0.189,0.477,0.445l0,0c0,0.254-0.222,0.444-0.477,0.444h-3.052v4.769c0,0.223-0.191,0.444-0.445,0.444
		l0,0c-0.254,0-0.477-0.222-0.477-0.444v-4.769h-3.052c-0.254,0-0.445-0.19-0.445-0.444l0,0c0-0.256,0.19-0.445,0.445-0.445h3.052
		v-4.769C46.923,250,47.146,249.811,47.4,249.811L47.4,249.811z"/>
	<path fill-rule="evenodd" clip-rule="evenodd" fill="#2E5D61" d="M30.042,276.229L30.042,276.229c0.381,0,0.699,0.223,0.699,0.541
		v5.5h4.737c0.381,0,0.7,0.223,0.7,0.51l0,0c0,0.285-0.318,0.539-0.7,0.539h-4.737v5.5c0,0.285-0.318,0.508-0.699,0.508l0,0
		c-0.382,0-0.7-0.223-0.7-0.508v-5.5h-4.737c-0.38,0-0.699-0.254-0.699-0.539l0,0c0-0.287,0.318-0.51,0.699-0.51h4.737v-5.5
		C29.342,276.451,29.661,276.229,30.042,276.229L30.042,276.229z"/>
	<path fill-rule="evenodd" clip-rule="evenodd" fill="#FB768F" d="M246.129,138.857c-40.121,16.055-59.577,61.611-43.523,101.701
		c2.003,4.991,4.451,9.664,7.313,13.989l8.297,18.406l18.026,12.08l12.812,0.16c17.325,6.136,36.878,6.263,55.285-1.112
		c40.09-16.088,59.577-61.612,43.491-101.734C331.743,142.259,286.217,122.771,246.129,138.857L246.129,138.857z M250.675,150.207
		c-33.858,13.544-50.262,51.979-36.719,85.806c13.575,33.857,51.979,50.263,85.836,36.719
		c33.826-13.574,50.264-51.979,36.688-85.837C322.937,153.068,284.502,136.631,250.675,150.207L250.675,150.207z"/>
	<path opacity="0.5" fill-rule="evenodd" clip-rule="evenodd" fill="#8AD5EA" d="M250.675,150.207
		c-33.858,13.544-50.262,51.979-36.719,85.806c13.575,33.857,51.979,50.263,85.836,36.719
		c33.826-13.574,50.264-51.979,36.688-85.837C322.937,153.068,284.502,136.631,250.675,150.207L250.675,150.207z"/>
	<path opacity="0.5" fill-rule="evenodd" clip-rule="evenodd" fill="#6FB5C9" d="M299.792,272.731
		c-33.857,13.544-72.261-2.861-85.836-36.719c-13.543-33.827,2.861-72.262,36.719-85.806c33.827-13.576,72.262,2.861,85.806,36.688
		C350.056,220.752,333.618,259.157,299.792,272.731L299.792,272.731z M330.98,189.119c-12.336-30.806-47.306-45.747-78.112-33.412
		c-30.774,12.335-45.748,47.307-33.381,78.11c12.334,30.775,47.306,45.749,78.08,33.382
		C328.374,254.865,343.314,219.894,330.98,189.119L330.98,189.119z"/>
	<path opacity="0.5" fill-rule="evenodd" clip-rule="evenodd" fill="#D1EDF7" d="M242.219,167.788
		c-13.639,5.468-20.347,20.728-15.006,34.049c5.341,13.352,20.729,19.742,34.365,14.273c13.609-5.468,20.347-20.695,14.976-34.048
		C271.213,168.711,255.825,162.319,242.219,167.788L242.219,167.788z"/>
	<path opacity="0.5" fill-rule="evenodd" clip-rule="evenodd" fill="#D1EDF7" d="M236.814,221.77
		c-4.069,1.622-5.977,6.391-4.26,10.65c1.716,4.261,6.389,6.359,10.427,4.737c4.069-1.621,5.977-6.39,4.26-10.651
		C245.557,222.278,240.883,220.148,236.814,221.77L236.814,221.77z"/>
	<path fill-rule="evenodd" clip-rule="evenodd" fill="#5E5A6B" d="M160.228,345.089l23.558,17.391l-2.417,2.797
		c-1.557,1.781-6.199,0.637-10.3-2.544l-8.17-6.356c-4.101-3.212-6.167-7.25-4.609-9.061L160.228,345.089z"/>
	<path fill-rule="evenodd" clip-rule="evenodd" fill="#5E5A6B" d="M237.323,291.33l3.561-4.927l-23.78-17.233l-3.624,4.643
		L237.323,291.33z M158.829,344.199c7.917,7.788,16.595,14.146,26.005,19.17l46.225-63.487l-24.034-17.74L158.829,344.199
		L158.829,344.199z"/>
	<path fill-rule="evenodd" clip-rule="evenodd" fill="#373245" d="M175.997,358.123c2.861,1.877,5.818,3.624,8.838,5.246
		l46.225-63.487l-5.881-4.355L175.997,358.123z"/>
	<polygon fill-rule="evenodd" clip-rule="evenodd" fill="#38CC6A" points="233.698,288.691 216.658,276.165 209.695,284.113 
		226.926,296.829 	"/>
	<path fill-rule="evenodd" clip-rule="evenodd" fill="#8A859C" d="M206.135,287.96c0,0-16.818,22.636-17.517,23.621
		c-0.7,0.985,0.19,2.733,3.497,0.222c3.337-2.543,17.135-21.904,17.898-23.239C210.776,287.261,208.424,285.321,206.135,287.96
		L206.135,287.96z"/>
	<path fill-rule="evenodd" clip-rule="evenodd" fill="#8A859C" d="M184.708,315.396c-9.665,13.002-0.921,8.997,3.911,0.604
		C189.349,314.696,186.997,312.758,184.708,315.396L184.708,315.396z"/>
	<polygon fill-rule="evenodd" clip-rule="evenodd" fill="#179C44" points="226.926,296.829 214.051,287.324 221.904,291.711 
		227.403,285.353 219.487,278.232 233.698,288.691 	"/>
	<path fill-rule="evenodd" clip-rule="evenodd" fill="#373245" d="M164.838,349.699c5.881,5.055,12.144,9.378,18.757,13.002
		l-2.226,2.575c-1.557,1.781-6.199,0.637-10.3-2.544l-4.101-3.178l4.737-2.925C171.705,356.63,166.364,352.052,164.838,349.699
		L164.838,349.699z"/>
	<polygon fill-rule="evenodd" clip-rule="evenodd" fill="#373245" points="226.577,282.874 228.993,277.786 240.883,286.403 
		237.323,291.33 233.698,288.691 221.84,279.948 221.776,279.694 	"/>
	<path fill-rule="evenodd" clip-rule="evenodd" fill="#013A5B" d="M179.525,348.682c0,0,6.422-0.508,9.22,2.447
		c2.798,2.926,2.67,5.882,2.416,8.647c-0.287,2.798-1.495,3.943-2.543,4.419c-1.082,0.478-8.711,3.116-13.798,1.781
		c-5.086-1.304-4.26-4.229-3.083-5.532C172.944,359.141,177.777,349.157,179.525,348.682L179.525,348.682z"/>
</g>
</svg>
