<svg xmlns="http://www.w3.org/2000/svg" xmlns:xlink="http://www.w3.org/1999/xlink" width="350.833" height="351.902" viewBox="0 0 350.833 351.902"><defs><filter id="a" x="1.826" y="6.846" width="345.784" height="345.056" filterUnits="userSpaceOnUse"><feOffset dy="3" input="SourceAlpha"/><feGaussianBlur stdDeviation="6" result="b"/><feFlood flood-color="#8d8d8d" flood-opacity="0.388"/><feComposite operator="in" in2="b"/><feComposite in="SourceGraphic"/></filter><filter id="c" x="28.941" y="88.657" width="104.813" height="111.426" filterUnits="userSpaceOnUse"><feOffset dy="3" input="SourceAlpha"/><feGaussianBlur stdDeviation="6" result="d"/><feFlood flood-color="#8d8d8d" flood-opacity="0.388"/><feComposite operator="in" in2="d"/><feComposite in="SourceGraphic"/></filter><filter id="e" x="150.335" y="70.704" width="197.412" height="195.85" filterUnits="userSpaceOnUse"><feOffset dy="3" input="SourceAlpha"/><feGaussianBlur stdDeviation="6" result="f"/><feFlood flood-color="#8d8d8d" flood-opacity="0.102"/><feComposite operator="in" in2="f"/><feComposite in="SourceGraphic"/></filter><filter id="g" x="67.75" y="7.003" width="192.159" height="192.159" filterUnits="userSpaceOnUse"><feOffset dy="3" input="SourceAlpha"/><feGaussianBlur stdDeviation="6" result="h"/><feFlood flood-color="#8d8d8d" flood-opacity="0.102"/><feComposite operator="in" in2="h"/><feComposite in="SourceGraphic"/></filter></defs><ellipse cx="175.416" cy="175.255" rx="175.416" ry="175.255" fill="#fff"/><g transform="translate(23.575 24.322)"><g transform="translate(86.03 117.933)"><g transform="translate(0 19.889)"><path d="M5.525-2.75,10.2-7.2c2.425-2.275,2.9-3.825,2.9-5.525,0-3.1-2.45-5.025-6.25-5.025A8.082,8.082,0,0,0,.2-14.85L2.475-13.1a4.939,4.939,0,0,1,4.1-1.825c2.15,0,3.25.925,3.25,2.525,0,.975-.3,2-2,3.625l-6.95,6.6V0h12.9V-2.75Zm17.35,3C27.05.25,30.2-3,30.2-8.75s-3.15-9-7.325-9c-4.15,0-7.3,3.25-7.3,9S18.725.25,22.875.25Zm0-2.825c-2.375,0-4.025-1.95-4.025-6.175s1.65-6.175,4.025-6.175c2.4,0,4.05,1.95,4.05,6.175S25.275-2.575,22.875-2.575ZM43.75-9.2a3.993,3.993,0,0,0,2.225-3.675c0-3-2.65-4.875-6.55-4.875-3.875,0-6.5,1.875-6.5,4.875A3.992,3.992,0,0,0,35.1-9.2a4.391,4.391,0,0,0-2.8,4.175C32.3-1.775,35.075.25,39.425.25S46.6-1.775,46.6-5.025A4.4,4.4,0,0,0,43.75-9.2Zm-4.325-6c2,0,3.35.9,3.35,2.475,0,1.5-1.275,2.45-3.35,2.45-2.05,0-3.3-.95-3.3-2.45C36.125-14.3,37.425-15.2,39.425-15.2Zm0,12.9c-2.4,0-3.85-1.05-3.85-2.825,0-1.725,1.45-2.8,3.85-2.8s3.9,1.075,3.9,2.8C43.325-3.35,41.825-2.3,39.425-2.3ZM64.3-6.725H61.2V-10.25H58.15v3.525H52.425L60.55-17.5H57.075L48.45-6.225v2.25h9.6V0H61.2V-3.975h3.1Zm3.825,6.9A2.033,2.033,0,0,0,70.175-1.9a2,2,0,0,0-2.05-2.075A2,2,0,0,0,66.075-1.9,2.033,2.033,0,0,0,68.125.175Zm11.85-10.45,4.25-5.05V-17.5H72.3v2.725h7.95L76.275-10.05v2.225h1.6c2.65,0,3.8,1.025,3.8,2.6,0,1.625-1.375,2.65-3.7,2.65A8.16,8.16,0,0,1,72.85-4.3l-1.4,2.525A10.994,10.994,0,0,0,78.025.25c4.7,0,6.925-2.55,6.925-5.5C84.95-7.875,83.275-9.85,79.975-10.275Zm22.7,3.55h-3.1V-10.25h-3.05v3.525H90.8L98.925-17.5H95.45L86.825-6.225v2.25h9.6V0h3.15V-3.975h3.1Zm12.1,4.225,7.35-8.875V-13.35H110.95v2.5h7.175L110.8-1.975V0h11.525V-2.5Zm16.55-8.4-1.275-1.775-1.475,1.125v-7H125.45v9.375L122.7-7.1,124-5.35l1.45-1.1V0h3.125V-8.825Z" transform="translate(0 22)" fill="#003b5b"/></g><path d="M15.06-10.5,11.985-1.425,8.9-10.5H7.86L4.725-1.47,1.7-10.5H.555L4.1,0H5.25L8.34-8.955,11.415,0h1.17l3.54-10.5Zm8.73,2.61L20.82-1.185,17.85-7.89H16.74L20.265-.015,19.92.75c-.45.99-.93,1.32-1.635,1.32a1.97,1.97,0,0,1-1.44-.6l-.5.8a2.7,2.7,0,0,0,1.92.72c1.125,0,1.965-.495,2.625-2.04L24.84-7.89Zm8.76-3.24v4.74a3.446,3.446,0,0,0-3-1.56,3.817,3.817,0,0,0-3.93,4.005A3.829,3.829,0,0,0,29.55.075,3.418,3.418,0,0,0,32.595-1.56V0h1.02V-11.13ZM29.64-.87A2.889,2.889,0,0,1,26.7-3.945,2.889,2.889,0,0,1,29.64-7.02a2.886,2.886,0,0,1,2.925,3.075A2.886,2.886,0,0,1,29.64-.87Zm10-7.08a5.01,5.01,0,0,0-3.21,1.065l.48.8a4.019,4.019,0,0,1,2.625-.93c1.47,0,2.235.735,2.235,2.085v.48H39.27c-2.265,0-3.045,1.02-3.045,2.235,0,1.365,1.1,2.3,2.88,2.3A2.962,2.962,0,0,0,41.82-1.23V0h1.02V-4.89C42.84-6.93,41.685-7.95,39.645-7.95ZM39.27-.765c-1.26,0-1.995-.57-1.995-1.485,0-.81.495-1.41,2.025-1.41h2.475v1.29A2.524,2.524,0,0,1,39.27-.765Zm10.545-.48a1.762,1.762,0,0,1-1.17.405A1.264,1.264,0,0,1,47.28-2.28V-6.99h2.4v-.9h-2.4V-9.615H46.215V-7.89H44.8v.9h1.41v4.77a2.09,2.09,0,0,0,2.31,2.3A2.536,2.536,0,0,0,50.19-.48ZM58.53,0h1.305l-3.69-4.665L59.52-7.89H58.2L53.49-3.585V-11.13H52.425V0H53.49V-2.25l1.86-1.71Zm5.13-9.105h1.05l2.43-1.86H65.715Zm.99,9.18a3.881,3.881,0,0,0,4.005-4.02A3.869,3.869,0,0,0,64.65-7.95a3.881,3.881,0,0,0-4.02,4.005A3.893,3.893,0,0,0,64.65.075Zm0-.945a2.889,2.889,0,0,1-2.94-3.075A2.889,2.889,0,0,1,64.65-7.02a2.877,2.877,0,0,1,2.925,3.075A2.877,2.877,0,0,1,64.65-.87ZM81.51-7.89,79-1.185,76.485-7.89H75.57L73.035-1.185,70.56-7.89H69.54L72.51,0h1.005L76-6.465,78.495,0H79.5l2.985-7.89Zm3.1,1.575a.82.82,0,0,0,.81-.825.807.807,0,0,0-.81-.81.794.794,0,0,0-.795.81A.807.807,0,0,0,84.615-6.315Zm0,6.39a.82.82,0,0,0,.81-.825.807.807,0,0,0-.81-.81.794.794,0,0,0-.795.81A.807.807,0,0,0,84.615.075Zm15.825-3.8h-2.1V-6.15H97.29v2.43H92.73L98.1-10.5H96.9L91.335-3.54v.78H97.26V0h1.08V-2.76h2.1ZM105.915.09c2.43,0,4.2-2,4.2-5.34s-1.77-5.34-4.2-5.34S101.73-8.6,101.73-5.25,103.485.09,105.915.09Zm0-.99c-1.83,0-3.09-1.545-3.09-4.35s1.26-4.35,3.09-4.35S109-8.055,109-5.25,107.745-.9,105.915-.9Z" transform="translate(8.701 13)" fill="#003b5b"/></g><g transform="translate(0.114 14.961) rotate(-3)"><g transform="matrix(1, 0.05, -0.05, 1, -21.6, -40.47)" filter="url(#a)"><path d="M107.2,206.908A103.734,103.734,0,1,0,0,68.617" transform="translate(31.64 190.95) rotate(-52)" fill="none" stroke="#c9dae2" stroke-linecap="square" stroke-miterlimit="10" stroke-width="15" opacity="0.55"/></g><g transform="matrix(1, 0.05, -0.05, 1, -21.6, -40.47)" filter="url(#c)"><path d="M52.8,0A103.5,103.5,0,0,0,0,14.424" transform="translate(59.17 155.79) rotate(-52)" fill="none" stroke="#ffcdd2" stroke-linecap="square" stroke-miterlimit="10" stroke-width="15"/></g></g><g transform="translate(151.962 75.146) rotate(-3)"><g transform="matrix(1, 0.05, -0.05, 1, -170.09, -108.52)" filter="url(#e)"><path d="M0,103.321A103.762,103.762,0,0,0,94.257,0" transform="translate(179.26 170.51) rotate(-52)" fill="none" stroke="#11e7ae" stroke-linecap="square" stroke-miterlimit="10" stroke-width="15"/></g></g><g transform="translate(63.986 11.771) rotate(-3)"><g transform="matrix(1, 0.05, -0.05, 1, -85.55, -40.63)" filter="url(#g)"><path d="M103.751,103.751A103.751,103.751,0,0,0,0,0" transform="translate(91.66 114.29) rotate(-52)" fill="none" stroke="#ffb13c" stroke-miterlimit="10" stroke-width="15"/></g></g></g><g transform="translate(276.063 272.094)"><g transform="translate(23.477 4.753)"><path d="M1225.716,314.582c-.035.067-.068.135-.1.2C1225.649,314.717,1225.682,314.649,1225.716,314.582Z" transform="translate(-1225.346 -311.379)" fill="#29ffc6"/><path d="M1225.6,314.825c-.027.072-.052.142-.073.211C1225.545,314.967,1225.569,314.9,1225.6,314.825Z" transform="translate(-1225.395 -311.244)" fill="#29ffc6"/><path d="M1225.511,315.069c-.018.072-.035.145-.047.218C1225.476,315.214,1225.493,315.141,1225.511,315.069Z" transform="translate(-1225.426 -311.109)" fill="#29ffc6"/><path d="M1225.872,314.337c-.042.065-.082.129-.119.194C1225.791,314.466,1225.828,314.4,1225.872,314.337Z" transform="translate(-1225.279 -311.516)" fill="#29ffc6"/><path d="M1226.137,314.009c.048-.054.094-.109.145-.163C1226.231,313.9,1226.185,313.955,1226.137,314.009Z" transform="translate(-1225.083 -311.788)" fill="#29ffc6"/><path d="M1225.474,316.738c.1-.09.2-.179.312-.269,2.479-2.028,7.37-3.946,10.065-3.946a2.393,2.393,0,0,1,.984.148c.094.375-.113,1.675-1.266,3.815a19.621,19.621,0,0,1-3.254,3.607,4.806,4.806,0,0,1-2.932,1.293,3.932,3.932,0,0,1-2.941-1.75,4.093,4.093,0,0,1-1-2.607A2.433,2.433,0,0,1,1225.474,316.738Z" transform="translate(-1225.439 -312.523)" fill="#29ffc6"/><path d="M1232.209,315.247q.254-.357.5-.723Q1232.462,314.89,1232.209,315.247Z" transform="translate(-1221.988 -311.412)" fill="#29ffc6"/><path d="M1232.655,314.7c.211-.327.415-.658.608-.991C1233.07,314.047,1232.866,314.377,1232.655,314.7Z" transform="translate(-1221.76 -311.862)" fill="#29ffc6"/><path d="M1226.532,313.6c-.047.045-.089.089-.135.132C1226.443,313.689,1226.485,313.645,1226.532,313.6Z" transform="translate(-1224.949 -311.925)" fill="#29ffc6"/><path d="M1226.059,314.092c-.048.061-.091.121-.134.18C1225.969,314.213,1226.011,314.153,1226.059,314.092Z" transform="translate(-1225.191 -311.652)" fill="#29ffc6"/></g><g transform="translate(0.488 23.004)"><path d="M1213.8,327.318c3.794-2.863,8.974-3.576,13.664-2.722a15.988,15.988,0,0,1,3.955,1.218,1.253,1.253,0,0,0,1.226,0,15.159,15.159,0,0,1,3.954-1.218c7.337-1.336,15.88,1.151,18.427,9.72.607,2.042,2.455,8.258-2.832,15.672a36.061,36.061,0,0,0-3.8,7.749,28.448,28.448,0,0,1-3.879,7.61c-.492.3-1.137,2.976-10.237,1.383a1.5,1.5,0,0,0-.507,0l-.01,0c-11.051,1.933-13.393-3.99-16.1-10.85a36.074,36.074,0,0,0-3.8-7.749c-5.287-7.415-3.439-13.63-2.832-15.672" transform="translate(-1210.211 -324.257)" fill="#ffcc80"/></g><path d="M1259.356,339.167c.661,2.286,2.668,9.242-3.045,17.492a34.453,34.453,0,0,0-3.454,7.3c-2.372,6.176-4.82,12.557-13.69,12.557a23.638,23.638,0,0,1-3.958-.366l-.143-.025-.145.025a23.564,23.564,0,0,1-3.958.366c-8.869,0-11.32-6.382-13.688-12.553a34.4,34.4,0,0,0-3.456-7.3c-5.714-8.251-3.706-15.207-3.047-17.492a15.323,15.323,0,0,1,7.758-9.628,19.429,19.429,0,0,1,12.464-1.56,18.709,18.709,0,0,1,2.026.5l1.4.428-.288-1.475a20.112,20.112,0,0,0-8.737-13.129.592.592,0,0,1-.257-.373.6.6,0,0,1,.074-.449.57.57,0,0,1,.8-.19,20.787,20.787,0,0,1,4.31,3.7l.9,1.017.553-1.252a8.034,8.034,0,0,1,2.346-2.891c2.814-2.3,8.216-4.4,11.333-4.4a3.112,3.112,0,0,1,2.591.933c1.119,1.45-.05,4.28-1.226,6.4a24.426,24.426,0,0,1-5.307,6.635c-1.83,1.5-3.637,2.055-5.4,1.59l-1.431-.378.362,1.478c.153.619.275,1.23.365,1.818l.163,1.053.982-.336a18.925,18.925,0,0,1,2.586-.681,19.427,19.427,0,0,1,12.464,1.56A15.315,15.315,0,0,1,1259.356,339.167Zm-22.046-15.179a5.618,5.618,0,0,0,3.478-1.488,23.2,23.2,0,0,0,4.834-5.963c1.258-2.177,1.895-4.111,1.667-5.044l-.1-.409-.371-.184a3.085,3.085,0,0,0-1.365-.236c-2.9,0-7.962,1.974-10.612,4.142a5.451,5.451,0,0,0-2.35,3.887,4.959,4.959,0,0,0,1.193,3.2A4.659,4.659,0,0,0,1237.31,323.988Zm2.034,5.169a15.157,15.157,0,0,0-4.072,1.294.352.352,0,0,1-.415,0,15.855,15.855,0,0,0-4.072-1.294c-7.512-1.409-16.271,1.246-18.9,10.351-.621,2.148-2.506,8.682,2.879,16.456h0a35.861,35.861,0,0,1,3.59,7.556c2.652,6.912,5.16,13.445,16.537,11.421l.079-.012a.6.6,0,0,1,.2,0,22.305,22.305,0,0,0,3.963.387c8.122,0,10.33-5.75,12.65-11.794a35.808,35.808,0,0,1,3.589-7.556c5.385-7.774,3.5-14.308,2.877-16.456C1255.615,330.4,1246.859,327.747,1239.344,329.157Z" transform="translate(-1209.888 -309.467)" fill="#003b5b"/></g><g transform="translate(268.416 24.201)"><path d="M113.683,192.915c-.858,7.86,2.4,12.774,7.52,14.122l.1.025c3.189-1.926,5.947-5.8,7.579-11.791.269-.988.5-2,.686-3.019C125.18,191.095,120.073,192.794,113.683,192.915Z" transform="translate(-98.111 -178.534)" fill="#0cebeb" fill-rule="evenodd"/><path d="M349.235,206.088a16.363,16.363,0,0,0-5.6-.295c-3.257.279-6.9,1.02-11.115,1,2.623,8.1,7.455,11.836,12.421,11.733C348.076,216.261,349.842,212.028,349.235,206.088Z" transform="translate(-285.8 -190.396)" fill="#0cebeb" fill-rule="evenodd"/><path d="M38.258,104.2a.643.643,0,0,0-.477-.6h0L19.062,98.663h0a.644.644,0,0,0-.708.283,40.637,40.637,0,0,0-4.575,10.5c-1.614,5.927-1.357,10.981.742,14.617a10.185,10.185,0,0,0,5.075,4.421l.651.26-5.63,20.684L6.3,147.233a.64.64,0,1,0-.327,1.237l17.839,4.705.059.014a.64.64,0,0,0,.283-1.248l-8.3-2.19,5.631-20.683.685.1a10.454,10.454,0,0,0,1.43.1c5.982,0,10.949-5.128,13.288-13.717A40.373,40.373,0,0,0,38.258,104.2Zm-2.222,9.457c-.125.552-.25,1.059-.384,1.55h0c-2.177,8-6.683,12.774-12.053,12.774a9.437,9.437,0,0,1-2.4-.318,8.923,8.923,0,0,1-5.568-4.247c-1.43-2.476-1.918-5.668-1.449-9.487l.1-.811.806.131a32.524,32.524,0,0,0,5.279.419,60.328,60.328,0,0,0,7.626-.6,31.137,31.137,0,0,1,7.374-.362l.86.108Zm.419-2.1-.771-.1a31.158,31.158,0,0,0-7.838.337,59.441,59.441,0,0,1-7.474.59A31.638,31.638,0,0,1,15.338,112l-.831-.133.189-.82c.1-.449.208-.864.318-1.268a39.367,39.367,0,0,1,3.878-9.238l.3-.519,3.8,1-.453.871c-.343.661-.7,1.409-1.064,2.224a.641.641,0,0,0,.324.846.633.633,0,0,0,.259.055.642.642,0,0,0,.586-.379c.464-1.042.929-1.99,1.344-2.74l.3-.536,12.71,3.352,0,.609a39.624,39.624,0,0,1-.419,5.471Z" transform="translate(-5.5 -98.642)" fill="#003b5b"/><path d="M308.814,148.173a.636.636,0,0,0,.066-.485h0a.641.641,0,0,0-.782-.455l-8.313,2.192-5.631-20.685.651-.26a10.18,10.18,0,0,0,5.075-4.421c2.1-3.636,2.356-8.691.742-14.618a40.627,40.627,0,0,0-4.575-10.5.644.644,0,0,0-.708-.283L276.62,103.6a.642.642,0,0,0-.477.6,40.723,40.723,0,0,0,1.093,10.251l.006.029a.627.627,0,0,0,.015.065l.012.043c.088.36.168.673.245.955,2.338,8.589,7.305,13.717,13.287,13.718a10.451,10.451,0,0,0,1.431-.1l.685-.1,5.63,20.683-8.3,2.19a.64.64,0,0,0,.283,1.248l.059-.014,17.838-4.7A.635.635,0,0,0,308.814,148.173Zm-30.526-34.86a39.206,39.206,0,0,1-.873-7.99l0-.609,17.8-4.693.3.519a39.387,39.387,0,0,1,3.878,9.238c.246.905.451,1.806.608,2.677l.185,1.024-1.036-.1a18.24,18.24,0,0,0-2.543-.06l-.706.028-.1-.7c-.125-.849-.313-1.83-.559-2.916a.64.64,0,0,0-1.248.283c.219.963.392,1.849.513,2.634l.125.807-.812.093c-.65.075-1.31.159-1.948.24a57.532,57.532,0,0,1-7.465.607,31.011,31.011,0,0,1-5.479-.472l-.519-.093Zm12.515,14.67h0a9.8,9.8,0,0,1-7-3.152,20.873,20.873,0,0,1-4.709-8.439l-.371-1.182,1.227.168a32.343,32.343,0,0,0,4.437.3,58.44,58.44,0,0,0,7.634-.621,27.931,27.931,0,0,1,7.671-.323l.627.1.035.634a14.136,14.136,0,0,1-1.586,7.953,8.926,8.926,0,0,1-5.568,4.247A9.442,9.442,0,0,1,290.8,127.983Z" transform="translate(-237.471 -98.641)" fill="#003b5b"/></g><g transform="translate(35.458 250.094)"><g transform="translate(8.901 0.661)"><path d="M165.895,24.27a7.635,7.635,0,0,1,5.715-3.746L171.073,10h-5.178Z" transform="translate(-165.895 -10)" fill="#20e3b2" fill-rule="evenodd"/><path d="M312.033,10,311.5,20.524a7.638,7.638,0,0,1,5.716,3.746V10Z" transform="translate(-287.45 -10)" fill="#20e3b2" fill-rule="evenodd"/><path d="M258.555,73.5c-2.851-.3-6.11.973-9.165,3.746-.432-.392-.869-.752-1.308-1.084l4.506,17.681h7.452l4.23-16.6A7.634,7.634,0,0,0,258.555,73.5Z" transform="translate(-234.509 -62.979)" fill="#a7ffeb" fill-rule="evenodd"/><path d="M212.809,196.9h-21.3v5.326h21.3Z" transform="translate(-187.278 -166.035)" fill="#20e3b2" fill-rule="evenodd"/><path d="M213.456,229.152h-6.016c-10.741,14.182-12.47,30.289-12.47,45.061h33.2c0-14.773-1.729-30.879-12.47-45.061Z" transform="translate(-190.167 -192.959)" fill="#a7ffeb" fill-rule="evenodd"/></g><path d="M112.826,88.906h46.242a.828.828,0,0,0,.829-.826c0-.02,0-.04,0-.06v-.045c-.008-14.071-1.476-30.422-12.308-45.011l-.163-.219V37.8l.026-.1,4.172-16.369c0-.018.007-.037.012-.055s0-.018.006-.029l.007-.047c0-.013,0-.024,0-.035s0-.032,0-.045,0-.024,0-.035V6.826A.827.827,0,0,0,150.827,6H145.65a.825.825,0,0,0-.825.783l-.493,9.672-.729.052a13.293,13.293,0,0,0-7.144,3.071l-.512.405-.512-.405a13.293,13.293,0,0,0-7.144-3.071l-.728-.052-.493-9.672A.826.826,0,0,0,126.244,6h-5.178a.827.827,0,0,0-.826.826l0,14.332c0,.015,0,.026,0,.037l.007.044c0,.011.005.027.009.045l.008.035,4.2,16.479v4.947l-.163.219C113.462,57.571,112,73.968,112,88.08A.827.827,0,0,0,112.826,88.906ZM146.269,7.486h3.568V18.431l-1.274-.823a8,8,0,0,0-2.124-.969l-.629-.182Zm-24.543,0h3.568l.458,8.971-.629.182a8,8,0,0,0-2.123.969l-1.274.823Zm.062,13.583.241-.317a6.635,6.635,0,0,1,5.42-2.786c2.475,0,5.237,1.27,7.777,3.575a.822.822,0,0,0,1.109,0c2.542-2.306,5.3-3.576,7.778-3.576a6.637,6.637,0,0,1,5.42,2.786l.241.317L145.791,36.7H125.773Zm23.818,17.284v3.675h-19.65V38.353Zm-32.113,47.9a96.759,96.759,0,0,1,2.2-21.009,57.15,57.15,0,0,1,9.6-21.231l.247-.337h4.269l-.414,1.114A57.62,57.62,0,0,0,127.45,51.4a.826.826,0,1,0,1.609.376,48.364,48.364,0,0,1,2.361-7.6l.216-.5h8.292l.216.5a48.356,48.356,0,0,1,2.361,7.6.826.826,0,1,0,1.608-.377,57.679,57.679,0,0,0-1.945-6.609l-.414-1.114h4.268l.247.337a57.144,57.144,0,0,1,9.6,21.231,96.758,96.758,0,0,1,2.2,21.009l.007.833H113.486Z" transform="translate(-112 -6)" fill="#003b5b"/><path d="M298.366,299.749a1.652,1.652,0,0,0-1.379,1.885l.01.064a1.651,1.651,0,1,0,3.263-.51l-.009-.061A1.65,1.65,0,0,0,298.366,299.749Z" transform="translate(-266.42 -251.219)"/><path d="M196.883,299.75A1.649,1.649,0,0,0,195,301.129l-.01.061a1.652,1.652,0,1,0,3.264.51l.01-.064A1.651,1.651,0,0,0,196.883,299.75Z" transform="translate(-181.266 -251.22)"/></g></svg>