<svg xmlns="http://www.w3.org/2000/svg" width="350.58" height="350.46" viewBox="0 0 350.58 350.46"><g transform="translate(0.289)"><ellipse cx="113.416" cy="120.916" rx="113.416" ry="120.916" transform="translate(35.856)" fill="#ffcdd2"/><g transform="translate(127.323 24.413)"><path d="M1080.078,455.661" transform="translate(-937.031 -180.089)" fill="#00c8af"/><path d="M1081.03,239.03v.255a28.878,28.878,0,0,1,24.748,23.436V439.762a28.853,28.853,0,0,0,24.748,28.544v.329H1025.01a36.1,36.1,0,0,1-36.1-36.1V239.03Z" transform="translate(-941.259 -190.136)" fill="#a7ffeb"/><path d="M1129.922,459.739a28.873,28.873,0,0,1-28.872-28.873H1158.8A28.873,28.873,0,0,1,1129.922,459.739Z" transform="translate(-936.059 -181.239)" fill="#00c8af"/><path d="M1053.5,267.879v.024s-87.091-12.927-87.091-28.873H1081.9A28.859,28.859,0,0,1,1053.5,267.879Z" transform="translate(-942.303 -194.832)" fill="#0cebeb"/><path d="M943.371,259.273a28.881,28.881,0,0,1,27.084-20.219v-.024h115.962c-15.946,0-23.885,10.3-34.561,28.873H948.2Z" transform="translate(-943.371 -194.832)" fill="#00c8af"/><g transform="translate(0.009 48.894)"><path d="M1156.017,430.866" transform="translate(-933.519 -230.134)" fill="none" stroke="#003b5b" stroke-miterlimit="10" stroke-width="0.92"/><path d="M1100.832,431.286a28.872,28.872,0,1,0,57.744,0V422.35l-11.71,19.109-11.246-19.384-11.707,19.11L1112.667,421.8l-10.551,17.221" transform="translate(-936.078 -230.554)" fill="none" stroke="#003b5b" stroke-miterlimit="10" stroke-width="0.92"/><path d="M943.38,258.385a28.882,28.882,0,0,1,26.792-19.331v-.024H990.8l92.118.255a28.878,28.878,0,0,1,24.748,23.436V439.762a28.853,28.853,0,0,0,24.748,28.544v.329H1026.893a36.1,36.1,0,0,1-36.1-36.1V267.9" transform="translate(-943.38 -239.03)" fill="none" stroke="#003b5b" stroke-miterlimit="10" stroke-width="0.92"/></g><path d="M943.508,258l9.852,19.654,11.718-19.109,11.249,19.384,11.714-19.109L999.289,278.2,1011,259.092l11.245,19.385,11.707-19.11,11.246,19.384,11.71-19.109,5.531-7.922s4.067-5.17,7.669-7.694c3.191-2.236,6.305-4.77,12.8-4.753" transform="translate(-943.364 -194.768)" fill="none" stroke="#003b5b" stroke-miterlimit="10" stroke-width="0.92"/><path d="M1080.078,197.756" transform="translate(-937.031 -197.756)" fill="#00c8af"/><ellipse cx="43.803" cy="43.803" rx="43.803" ry="43.803" transform="translate(62.621 99.551)" fill="#f9f9f9"/><ellipse cx="41.283" cy="41.283" rx="41.283" ry="41.283" transform="translate(62.521 98.859)" fill="#fff" stroke="#003b5b" stroke-miterlimit="10" stroke-width="0.7"/><line x1="80.668" transform="translate(62.379 209.759)" fill="none" stroke="#003b5b" stroke-miterlimit="10" stroke-width="0.92"/><line x1="80.668" transform="translate(62.379 220.537)" fill="none" stroke="#003b5b" stroke-miterlimit="10" stroke-width="0.92"/><line x1="80.668" transform="translate(62.379 232.282)" fill="none" stroke="#003b5b" stroke-miterlimit="10" stroke-width="0.92"/><g transform="translate(79.812 122.505)"><path d="M1023.059,320.661a18.061,18.061,0,0,1,2.937-2,27.745,27.745,0,0,1,6.587-2.521l.044-.025.079-.006a38.989,38.989,0,0,1,9.391-1.121c1.052,0,2.093.04,3.115.116l.139-.048-.138.048,1.188.141c-.018-.015-.03-.034-.049-.047l.015.008c.724.074,1.435.176,2.139.288l.143.018.1.024a34.134,34.134,0,0,1,4.709,1.125l.115.027.055.027a26.117,26.117,0,0,1,4.567,1.945,19.314,19.314,0,0,1,1.871,1.178l.012.006.021.018a15.731,15.731,0,0,1,1.247.985l-.153-.005,1.3,1.166,0-.014v.016a7.47,7.47,0,0,1,2.014,4.883l-.05,4.944a4.967,4.967,0,0,1-.772,2.5c-2.241,1.324-3.682.912-5.5.392a8.63,8.63,0,0,0-5.576-.193,8.016,8.016,0,0,0-4.486,3.186c-1.129,1.367-2.022,2.448-4.561,2.566-2.537-.118-3.431-1.2-4.56-2.566a8.015,8.015,0,0,0-4.485-3.185,8.63,8.63,0,0,0-5.576.193c-1.824.521-3.282.934-5.532-.4a4.916,4.916,0,0,1-2.293-4.617v-4.284A7.433,7.433,0,0,1,1023.059,320.661Z" transform="translate(-1019.577 -311.95)" fill="#ff73f2"/><path d="M1034.222,324.933c0-1.175,3.485-2.953,8.739-2.953s8.739,1.778,8.739,2.953c0,.321-.318.814-1.142,1.319a21.82,21.82,0,0,0-15.2,0C1034.539,325.747,1034.222,325.254,1034.222,324.933Z" transform="translate(-1018.97 -311.626)" fill="#ffcc80"/><path d="M1043.556,344.728a33.889,33.889,0,0,1-16.1-3.673c-3.265-1.806-5.353-4.043-6.055-6.433a4.664,4.664,0,0,0,.836.664c3.1,1.857,5.329,1.219,7.3.655a6.524,6.524,0,0,1,4.3-.21c.031.01.064.02.1.028a5.934,5.934,0,0,1,3.36,2.461,7.544,7.544,0,0,0,6.211,3.365h.093a7.549,7.549,0,0,0,6.213-3.366,5.928,5.928,0,0,1,3.359-2.461q.049-.013.1-.028a6.518,6.518,0,0,1,4.3.21c1.971.563,4.2,1.2,7.3-.655a4.249,4.249,0,0,0,.754-.59,8.694,8.694,0,0,1-2.265,3.614C1059.449,342.269,1051.86,344.728,1043.556,344.728Z" transform="translate(-1019.564 -311.04)" fill="#ffcc80"/><path d="M1050.332,316.89l3.094,1.823a.473.473,0,0,1-.241.881h0a.469.469,0,0,1-.239-.066h0l-3.1-1.822a.474.474,0,0,1,.481-.816Z" transform="translate(-1018.256 -311.865)" fill="#003b5b"/><path d="M1040.818,332.834a.473.473,0,0,1-.053-.873.471.471,0,0,1,.362-.022h0l3.394,1.173a.472.472,0,0,1,.293.6.478.478,0,0,1-.6.294Z" transform="translate(-1018.679 -311.165)" fill="#003b5b"/><path d="M1045.243,315.915a.473.473,0,0,1-.29.6l-3.389,1.189a.48.48,0,0,1-.6-.291.464.464,0,0,1,.02-.362.472.472,0,0,1,.269-.241l3.39-1.189a.482.482,0,0,1,.157-.027.488.488,0,0,1,.205.047A.467.467,0,0,1,1045.243,315.915Z" transform="translate(-1018.658 -311.922)" fill="#003b5b"/><path d="M1052.985,330.059a.475.475,0,0,1-.29.6l-3.39,1.189a.487.487,0,0,1-.6-.291.474.474,0,0,1,.291-.6l3.39-1.189a.446.446,0,0,1,.156-.026A.474.474,0,0,1,1052.985,330.059Z" transform="translate(-1018.3 -311.266)" fill="#003b5b"/><path d="M1025.637,326.229l3.46.964a.473.473,0,0,1,.329.583.481.481,0,0,1-.583.329l-3.46-.963a.474.474,0,0,1,.254-.912Z" transform="translate(-1019.396 -311.43)" fill="#003b5b"/><path d="M1056.668,326.456a.468.468,0,0,1,.276-.234.491.491,0,0,1,.144-.023.468.468,0,0,1,.217.053l3.191,1.648a.474.474,0,0,1,.2.637.48.48,0,0,1-.638.2l-3.192-1.648A.472.472,0,0,1,1056.668,326.456Z" transform="translate(-1017.931 -311.43)" fill="#003b5b"/><path d="M1055.861,321.859a.47.47,0,0,1-.126-.34.486.486,0,0,1,.493-.454l3.588.138a.474.474,0,0,1,.454.491.471.471,0,0,1-.472.455l-3.609-.138A.471.471,0,0,1,1055.861,321.859Z" transform="translate(-1017.972 -311.669)" fill="#003b5b"/><path d="M1030.217,321.69l-3.609.8a.473.473,0,0,1-.1-.935l3.5-.787a.506.506,0,0,1,.1-.012.474.474,0,0,1,.1.936Z" transform="translate(-1019.345 -311.683)" fill="#003b5b"/><path d="M1035.753,331.257l-3.59.127h0a.475.475,0,0,1-.49-.456.474.474,0,0,1,.455-.49h0l3.59-.127h.019a.465.465,0,0,1,.318.127.472.472,0,0,1-.3.82Z" transform="translate(-1019.088 -311.24)" fill="#003b5b"/><path d="M1032.89,317a.451.451,0,0,1,.127.018l3.458.968a.473.473,0,1,1-.256.911l-3.458-.968a.473.473,0,0,1,.129-.929Z" transform="translate(-1019.054 -311.857)" fill="#003b5b"/><path d="M1026.778,315.954a38.662,38.662,0,0,1,33.719,0c4.6,2.544,7.132,5.958,7.132,9.614l-.084,8.289a9.284,9.284,0,0,1-2.981,6.6c-4.2,4.247-12.216,6.885-20.927,6.885a35.475,35.475,0,0,1-16.859-3.87c-4.6-2.545-7.132-5.958-7.132-9.614v-8.3C1019.646,321.913,1022.178,318.5,1026.778,315.954Zm-5.9,19.889c.755,2.57,2.952,4.923,6.355,6.806a34.523,34.523,0,0,0,16.4,3.751c8.466,0,16.227-2.531,20.254-6.6a9.325,9.325,0,0,0,2.42-3.879l.8-2.714-1.872,2.122a3.587,3.587,0,0,1-.609.469c-2.86,1.714-4.864,1.142-6.8.588a7.1,7.1,0,0,0-4.678-.2,6.556,6.556,0,0,0-3.737,2.684c-1.219,1.475-2.48,3-5.755,3.138-3.314-.137-4.575-1.663-5.794-3.137a6.515,6.515,0,0,0-3.695-2.671,7.133,7.133,0,0,0-4.721.189c-1.938.554-3.942,1.126-6.8-.591a3.941,3.941,0,0,1-.7-.557l-1.8-1.908Zm-.288-5.949a5.762,5.762,0,0,0,2.53,5.077c2.537,1.508,4.172,1.041,6.064.5a8,8,0,0,1,5.2-.2,7.433,7.433,0,0,1,4.2,2.99c1.181,1.429,2.2,2.662,5.016,2.793,2.875-.131,3.895-1.364,5.075-2.792a7.394,7.394,0,0,1,4.154-2.978,8.057,8.057,0,0,1,5.248.186c1.895.542,3.529,1.009,6.011-.462a5.5,5.5,0,0,0,2.532-4.441l.052-5c0-3.3-2.361-6.418-6.644-8.787a37.719,37.719,0,0,0-32.8,0c-4.285,2.37-6.645,5.49-6.645,8.785Z" transform="translate(-1019.646 -312.085)" fill="#003b5b"/><path d="M1035.892,321.7a21.441,21.441,0,0,1,14.277,0c2.048.843,3.176,2.017,3.176,3.3s-1.128,2.46-3.176,3.3a21.458,21.458,0,0,1-14.277,0c-2.049-.844-3.176-2.017-3.176-3.3S1033.844,322.542,1035.892,321.7Zm2.864,6.475a21.437,21.437,0,0,0,4.274.409h.008a21.4,21.4,0,0,0,4.266-.409l3.009-.617-3.01-.613a22.794,22.794,0,0,0-8.547,0l-3.01.613Zm-3.652-1.316.279.172.3-.131a21.2,21.2,0,0,1,14.693,0l.3.131.279-.171c.93-.57,1.442-1.228,1.442-1.854,0-1.908-4.377-3.581-9.367-3.581s-9.367,1.673-9.367,3.581C1033.664,325.627,1034.175,326.287,1035.1,326.857Z" transform="translate(-1019.04 -311.696)" fill="#003b5b"/></g></g><g transform="translate(0 145.956)"><path d="M890.294,455.661" transform="translate(-830.688 -253.807)" fill="#00c8af"/><path d="M836.15,239.03v.191a21.6,21.6,0,0,0-18.511,17.529V389.174a21.582,21.582,0,0,1-18.511,21.35v.246h78.924a27,27,0,0,0,27-27V239.03Z" transform="translate(-774.094 -206.726)" fill="#a7ffeb"/><path d="M932.861,452.462a21.6,21.6,0,0,0,21.6-21.6H911.265A21.6,21.6,0,0,0,932.861,452.462Z" transform="translate(-911.265 -248.418)" fill="#00c8af"/><path d="M797.866,260.608v.018s65.142-9.669,65.142-21.6H776.624A21.586,21.586,0,0,0,797.866,260.608Z" transform="translate(-714.436 -206.726)" fill="#0cebeb"/><path d="M860.583,254.171a21.6,21.6,0,0,0-20.258-15.124v-.018H753.587c11.928,0,17.865,7.7,25.852,21.6H856.97Z" transform="translate(-693.981 -206.726)" fill="#00c8af"/><g transform="translate(0.171 32.304)"><path d="M966.233,430.866" transform="translate(-966.233 -280.722)" fill="none" stroke="#003b5b" stroke-miterlimit="10" stroke-width="0.92"/><path d="M954.239,428.9a21.6,21.6,0,1,1-43.192,0v-6.684l8.759,14.293,8.413-14.5,8.757,14.294,8.411-14.5,7.892,12.881" transform="translate(-911.047 -278.752)" fill="none" stroke="#003b5b" stroke-miterlimit="10" stroke-width="0.92"/><path d="M894.985,253.507a21.605,21.605,0,0,0-20.041-14.459v-.018H859.518l-68.9.191a21.6,21.6,0,0,0-18.511,17.529V389.174a21.582,21.582,0,0,1-18.511,21.35v.246h78.924a27,27,0,0,0,27-27V260.626" transform="translate(-728.56 -239.03)" fill="none" stroke="#003b5b" stroke-miterlimit="10" stroke-width="0.92"/></g><path d="M857.991,253.279l-7.369,14.7-8.764-14.293-8.415,14.5-8.761-14.293-8.414,14.5L807.512,254.1,799.1,268.6,790.344,254.3l-8.413,14.5-8.759-14.293-4.137-5.926a34.943,34.943,0,0,0-5.735-5.755c-2.388-1.673-4.716-3.568-9.576-3.555" transform="translate(-691.496 -206.779)" fill="none" stroke="#003b5b" stroke-miterlimit="10" stroke-width="0.92"/><path d="M890.294,197.756" transform="translate(-830.688 -197.756)" fill="#00c8af"/><ellipse cx="32.764" cy="32.764" rx="32.764" ry="32.764" transform="translate(54.036 71.082)" fill="#f9f9f9"/><ellipse cx="30.879" cy="30.879" rx="30.879" ry="30.879" transform="translate(58.081 71.791)" fill="#fff" stroke="#003b5b" stroke-miterlimit="10" stroke-width="0.7"/><line x2="60.339" transform="translate(59.606 153.681)" fill="none" stroke="#003b5b" stroke-miterlimit="10" stroke-width="0.92"/><line x2="60.339" transform="translate(59.606 161.578)" fill="none" stroke="#003b5b" stroke-miterlimit="10" stroke-width="0.92"/><line x2="60.339" transform="translate(59.606 169.474)" fill="none" stroke="#003b5b" stroke-miterlimit="10" stroke-width="0.92"/><g transform="translate(75.999 85.516)"><g transform="translate(2.948 16.552)"><path d="M855.7,328.186a9.325,9.325,0,0,1-7.095,2.96c-3.515,0-7.189-3.267-7-2.96H838.69l3.207,15.652h14.611l3.231-15.652Zm-2.676,12.421a8.2,8.2,0,0,1-8.837,0,3.938,3.938,0,0,1,0-6.829,8.2,8.2,0,0,1,8.837,0,3.939,3.939,0,0,1,0,6.829Z" transform="translate(-838.69 -328.166)" fill="#29ffc6"/></g><g transform="translate(5.016 2.455)"><path d="M860.327,322.01h.511a.86.86,0,0,1,.906.773,1.478,1.478,0,0,0,.628,1.417v-9.862h-2.046Z" transform="translate(-860.327 -311.064)" fill="#ffcc80"/><path d="M849.229,310.155h-1.842V325.3a5.783,5.783,0,0,0,1.842-.739" transform="translate(-837.055 -310.155)" fill="#ffcc80"/><path d="M845.12,314.6h-2.046v9.658a3.781,3.781,0,0,0,.571-1.417.8.8,0,0,1,.838-.773h.637" transform="translate(-829.571 -311.121)" fill="#ffcc80"/><path d="M853.923,316.525H851.57v-1.537h0v11.643c.307.03.8.045,1.176.045s.972-.016,1.176-.045V316.525Z" transform="translate(-845.023 -311.205)" fill="#ffcc80"/><path d="M857.929,312.247h-2.046v12.768c.819.3,1.535.556,2.046.739V312.247" transform="translate(-852.405 -310.61)" fill="#ffcc80"/></g><path d="M837.944,318.582v4.359h2.476a5.352,5.352,0,0,0-.747-3.452A2.434,2.434,0,0,0,837.944,318.582Z" transform="translate(-815.861 -309.531)" fill="#29ffc6"/><path d="M861.2,316.282a3.6,3.6,0,0,0-2.661-1.357l-.369-.031V310.77a.367.367,0,0,0-.366-.366h-3.016v-3.02a.367.367,0,0,0-.366-.366h-3.383a.367.367,0,0,0-.366.366v4.736h-2.65v-3.207a.366.366,0,0,0-.366-.366h-3.382a.367.367,0,0,0-.366.366v1.276h-3.016a.367.367,0,0,0-.366.366v4.34l-.369.031a3.6,3.6,0,0,0-2.661,1.357c-1.435,1.844-.92,4.852-.9,4.979l3.855,18.935a.368.368,0,0,0,.359.293h17.071a.368.368,0,0,0,.359-.293l3.857-18.945C862.123,321.134,862.637,318.126,861.2,316.282Zm-6.413-5.146h2.65v9.694h-.952a.367.367,0,0,0-.366.366,2.72,2.72,0,0,1-.608,1.657l-.724.953Zm-3.382-3.386h2.65v16.365l-.207.116a8.523,8.523,0,0,1-1.936.776l-.508.138Zm-3.383,5.1h2.65v12.412l-.363.035c-.321.032-.644.048-.961.048s-.642-.016-.962-.048l-.364-.035Zm-3.382-3.574h2.65v15.866l-.508-.138a8.522,8.522,0,0,1-1.936-.776l-.207-.116Zm-3.383,1.643h2.65v12.885l-.724-.953a2.722,2.722,0,0,1-.608-1.656.367.367,0,0,0-.365-.366h-.952Zm-4.017,9.534a5.891,5.891,0,0,1,.832-3.723,2.85,2.85,0,0,1,2-1.063l.45-.053v5.215h-3.26Zm20.343,19.3H841.113l-3.705-18.194h4.443l.072.313c.54,2.357,3.8,4.2,7.427,4.2s6.886-1.847,7.426-4.2l.071-.313h4.444Zm3.866-19.3-.026.375h-3.255v-5.215l.45.053a2.852,2.852,0,0,1,2,1.059A5.747,5.747,0,0,1,861.453,320.456Z" transform="translate(-836.491 -307.018)" fill="#003b5b"/><path d="M855.444,335.42a7.8,7.8,0,0,0-8.375,0,3.54,3.54,0,0,0,0,6.169,7.8,7.8,0,0,0,8.375,0,3.539,3.539,0,0,0,0-6.169Zm-4.186,6.657c-2.851,0-5.26-1.636-5.26-3.572s2.409-3.572,5.26-3.572,5.258,1.636,5.258,3.572S854.107,342.077,851.257,342.077Z" transform="translate(-838.399 -312.926)" fill="#003b5b"/><path d="M842.93,326.117h0Z" transform="translate(-822.253 -311.169)" fill="#ce593f"/><g transform="translate(2.4 9.051)"><path d="M865.926,320.115c-1.33.308-1.194,2.306-1.286,2.818h1.286v-4.351" transform="translate(-864.64 -318.582)" fill="#29ffc6"/></g><g transform="translate(9.614 22.458)"><path d="M850.756,335.712c-2.274,0-4.039,1.585-4.039,3.121s1.765,3.117,4.039,3.121,4.06-1.579,4.06-3.121S853.04,335.709,850.756,335.712Z" transform="translate(-846.717 -335.712)" fill="#ffcdd2"/></g></g></g></g></svg>