<svg xmlns="http://www.w3.org/2000/svg" xmlns:xlink="http://www.w3.org/1999/xlink" width="237.221" height="51.903" viewBox="0 0 237.221 51.903">
  <defs>
    <clipPath id="clip-path">
      <path id="Path_761" data-name="Path 761" d="M9.534,8.076l-5.99,6L1.463,16.155a1.592,1.592,0,0,0,0,2.354l8.071,8.08s8.992,8.875,15.061,14.95c4.29,4.294,2.145,7.173,1.589,7.809h0L42.659,33.03a6.367,6.367,0,0,0,0-8.938L19.257.68a1.588,1.588,0,0,0-2.335,0Z" transform="translate(-0.943 -0.168)" fill="none"/>
    </clipPath>
  </defs>
  <g id="Group_669" data-name="Group 669" transform="translate(-49 -49)">
    <g id="nacoposzlo_logo" transform="translate(49 49)">
      <g id="Warstwa_1" data-name="Warstwa 1">
        <path id="Path_720" data-name="Path 720" d="M53.275,18.715v9.7h-3.94V19.287c0-2.99-1.478-4.437-3.988-4.437-2.812,0-4.687,1.7-4.687,5.074v8.493H36.72V11.605h3.749v2.163a7.288,7.288,0,0,1,5.783-2.354C50.288,11.414,53.275,13.7,53.275,18.715Z" transform="translate(21.606 6.738)" fill="#003b5b"/>
        <path id="Path_721" data-name="Path 721" d="M64.792,18.584v9.861H61.074V26.409A5.923,5.923,0,0,1,55.8,28.667c-3.845,0-6.26-2.1-6.26-5.042s1.875-5.01,6.975-5.01h4.353v-.239c0-2.306-1.4-3.658-4.194-3.658a8.24,8.24,0,0,0-5.1,1.59l-1.589-2.863A11.748,11.748,0,0,1,57.1,11.363C62,11.442,64.792,13.733,64.792,18.584ZM60.868,23.2V21.24H56.8c-2.669,0-3.4,1-3.4,2.227S54.592,25.8,56.578,25.8a4.289,4.289,0,0,0,4.29-2.608Z" transform="translate(29.154 6.71)" fill="#003b5b"/>
        <path id="Path_722" data-name="Path 722" d="M61.6,20.012a8.139,8.139,0,0,1,8.579-8.4,7.2,7.2,0,0,1,6.355,3.276L74.947,16.02a5.622,5.622,0,0,0-4.766-2.465,6.088,6.088,0,0,0-6.355,6.457,6.073,6.073,0,0,0,6.355,6.537,5.575,5.575,0,0,0,4.766-2.418l1.668,1.129a7.274,7.274,0,0,1-6.434,3.2A8.17,8.17,0,0,1,61.6,20.012Z" transform="translate(36.253 6.856)" fill="#003b5b"/>
        <path id="Path_723" data-name="Path 723" d="M72.57,20.02a8.42,8.42,0,1,1,8.42,8.43,8.425,8.425,0,0,1-8.42-8.43Zm14.569,0a6.149,6.149,0,1,0-6.149,6.155,6.152,6.152,0,0,0,6.149-6.155Z" transform="translate(42.713 6.849)" fill="#003b5b"/>
        <path id="Path_724" data-name="Path 724" d="M103.542,20.017a8.187,8.187,0,0,1-8.532,8.62,6.892,6.892,0,0,1-5.37-2.258v8.239H85.7V11.6h3.749V13.8a6.908,6.908,0,0,1,5.561-2.386,8.187,8.187,0,0,1,8.532,8.6Zm-3.988,0a4.989,4.989,0,1,0-4.989,4.994A4.991,4.991,0,0,0,99.554,20.017Z" transform="translate(50.444 6.74)" fill="#003b5b"/>
        <path id="Path_725" data-name="Path 725" d="M98.42,20.01a8.96,8.96,0,0,1,17.905,0,8.96,8.96,0,0,1-17.905,0Zm13.933,0A4.989,4.989,0,1,0,107.365,25,4.991,4.991,0,0,0,112.353,20.01Z" transform="translate(57.933 6.747)" fill="#003b5b"/>
        <path id="Path_726" data-name="Path 726" d="M110.86,26.773l1.589-2.99a11.112,11.112,0,0,0,5.847,1.59c2.494,0,3.527-.684,3.527-1.861,0-3.181-10.39-.191-10.39-6.887,0-3.181,2.876-5.264,7.4-5.264a13.46,13.46,0,0,1,6.355,1.447L123.6,15.8a9.239,9.239,0,0,0-4.766-1.256c-2.4,0-3.527.779-3.527,1.893,0,3.4,10.39.366,10.39,6.95,0,3.181-2.907,5.2-7.626,5.2a13.223,13.223,0,0,1-7.213-1.813Z" transform="translate(65.257 6.712)" fill="#003b5b"/>
        <path id="Path_727" data-name="Path 727" d="M135.9,25.186v3.181H121.39V25.854l9.231-11.133h-9.04V11.54h14.076v2.481l-9.262,11.133Z" transform="translate(71.456 6.819)" fill="#003b5b"/>
        <path id="Path_728" data-name="Path 728" d="M138.206,19.657V30.79h-3.94V22.663l-1.827,1.4-1.589-2.211,3.416-2.64V7.41h3.94V16.3l1.843-1.416,1.589,2.243Z" transform="translate(77.026 4.381)" fill="#003b5b"/>
        <path id="Path_729" data-name="Path 729" d="M138.05,20.01a8.96,8.96,0,0,1,17.905,0,8.96,8.96,0,0,1-17.905,0Zm13.933,0a4.989,4.989,0,1,0-9.962,0,4.989,4.989,0,1,0,9.962,0Z" transform="translate(81.265 6.747)" fill="#003b5b"/>
        <g id="Group_570" data-name="Group 570" transform="translate(1.485 0.273)" clip-path="url(#clip-path)">
          <path id="Path_730" data-name="Path 730" d="M16.9,38.111,35.727,19.28V38.111Z" transform="translate(8.452 11.117)" fill="#0cebeb"/>
          <path id="Path_731" data-name="Path 731" d="M16.58,38.306,35.915,18.95v.525L17.088,38.306Z" transform="translate(8.264 10.922)" fill="#0cebeb"/>
          <path id="Path_732" data-name="Path 732" d="M16.25,38.5,36.109,18.62v.525L16.774,38.5Z" transform="translate(8.07 10.727)" fill="#0cebea"/>
          <path id="Path_733" data-name="Path 733" d="M15.92,38.69,36.3,18.3v.509L16.444,38.69Z" transform="translate(7.875 10.538)" fill="#0debe9"/>
          <path id="Path_734" data-name="Path 734" d="M15.6,38.885,36.492,17.97v.525L16.108,38.885Z" transform="translate(7.687 10.344)" fill="#0debe8"/>
          <path id="Path_735" data-name="Path 735" d="M15.27,39.08,36.686,17.64v.525L15.794,39.08Z" transform="translate(7.493 10.149)" fill="#0deae7"/>
          <path id="Path_736" data-name="Path 736" d="M14.94,39.269,36.881,17.32v.509L15.464,39.269Z" transform="translate(7.298 9.96)" fill="#0eeae6"/>
          <path id="Path_737" data-name="Path 737" d="M14.62,39.463,37.069,16.99v.525L15.128,39.463Z" transform="translate(7.11 9.765)" fill="#0eeae5"/>
          <path id="Path_738" data-name="Path 738" d="M14.29,39.658l22.973-23v.525L14.814,39.658Z" transform="translate(6.916 9.57)" fill="#0feae4"/>
          <path id="Path_739" data-name="Path 739" d="M14.115,39.847l-.1-.1,23.4-23.412v.509l-22.973,23Z" transform="translate(6.757 9.381)" fill="#0feae3"/>
          <path id="Path_740" data-name="Path 740" d="M14.114,39.947l-.254-.254L37.517,16.01v.525Z" transform="translate(6.663 9.186)" fill="#0feae2"/>
          <path id="Path_741" data-name="Path 741" d="M13.96,39.887l-.27-.27L37.617,15.68V16.2Z" transform="translate(6.563 8.991)" fill="#10eae1"/>
          <path id="Path_742" data-name="Path 742" d="M13.784,39.812l-.254-.254L37.711,15.35v.525Z" transform="translate(6.468 8.797)" fill="#10e9e0"/>
          <path id="Path_743" data-name="Path 743" d="M13.624,39.746l-.254-.254L37.805,15.03v.509Z" transform="translate(6.374 8.608)" fill="#10e9df"/>
          <path id="Path_744" data-name="Path 744" d="M13.47,39.686l-.27-.27L37.905,14.7v.525Z" transform="translate(6.274 8.413)" fill="#11e9de"/>
          <path id="Path_745" data-name="Path 745" d="M13.294,39.611l-.254-.254L38,14.37v.525Z" transform="translate(6.18 8.218)" fill="#11e9dd"/>
          <path id="Path_746" data-name="Path 746" d="M13.134,39.545l-.254-.254L38.094,14.05v.509Z" transform="translate(6.086 8.029)" fill="#11e9dc"/>
          <path id="Path_747" data-name="Path 747" d="M12.98,39.421l-.27-.27L38.019,13.83l.175.175v.175Z" transform="translate(5.986 7.899)" fill="#12e9db"/>
          <path id="Path_767" data-name="Path 767" d="M0,0,35.8-.019V.346L0,.366Z" transform="translate(18.432 46.794) rotate(-45)" fill="#12e9da"/>
          <path id="Path_768" data-name="Path 768" d="M0,0,35.8-.019V.346L0,.366Z" transform="translate(18.183 46.539) rotate(-45)" fill="#12e8d9"/>
          <path id="Path_769" data-name="Path 769" d="M0,0,35.8-.019V.346L0,.366Z" transform="translate(17.924 46.28) rotate(-45)" fill="#13e8d8"/>
          <path id="Path_770" data-name="Path 770" d="M0,0,35.8-.019V.346L0,.366Z" transform="translate(17.648 46.014) rotate(-45)" fill="#13e8d7"/>
          <path id="Path_771" data-name="Path 771" d="M0,0,35.8-.019V.346L0,.366Z" transform="translate(17.4 45.76) rotate(-45)" fill="#14e8d6"/>
          <path id="Path_772" data-name="Path 772" d="M0,0,35.8-.019V.346L0,.366Z" transform="translate(17.141 45.501) rotate(-45)" fill="#14e8d5"/>
          <path id="Path_773" data-name="Path 773" d="M0,0,35.8-.019V.346L0,.366Z" transform="translate(16.881 45.235) rotate(-45)" fill="#14e8d4"/>
          <path id="Path_774" data-name="Path 774" d="M0,0,35.8-.019V.346L0,.366Z" transform="translate(16.633 44.98) rotate(-45)" fill="#15e8d3"/>
          <path id="Path_775" data-name="Path 775" d="M0,0,35.8-.019V.346L0,.366Z" transform="translate(16.357 44.721) rotate(-45)" fill="#15e7d2"/>
          <path id="Path_776" data-name="Path 776" d="M0,0,35.8-.019V.346L0,.366Z" transform="translate(16.098 44.456) rotate(-45)" fill="#15e7d1"/>
          <path id="Path_777" data-name="Path 777" d="M0,0,35.8-.019V.346L0,.366Z" transform="translate(15.85 44.185) rotate(-45)" fill="#16e7d0"/>
          <path id="Path_778" data-name="Path 778" d="M0,0,35.8-.019V.346L0,.366Z" transform="translate(15.579 43.931) rotate(-45)" fill="#16e7ce"/>
          <path id="Path_779" data-name="Path 779" d="M0,0,35.8-.019V.346L0,.366Z" transform="translate(15.315 43.676) rotate(-45)" fill="#16e7cd"/>
          <path id="Path_780" data-name="Path 780" d="M0,0,35.8-.019V.346L0,.366Z" transform="translate(15.066 43.406) rotate(-45)" fill="#17e7cc"/>
          <path id="Path_781" data-name="Path 781" d="M0,0,35.8-.019V.346L0,.366Z" transform="translate(14.796 43.151) rotate(-45)" fill="#17e7cb"/>
          <path id="Path_782" data-name="Path 782" d="M0,0,35.8-.019V.346L0,.366Z" transform="translate(14.547 42.897) rotate(-45)" fill="#17e6ca"/>
          <path id="Path_783" data-name="Path 783" d="M0,0,35.8-.019V.346L0,.366Z" transform="translate(14.283 42.627) rotate(-45)" fill="#18e6c9"/>
          <path id="Path_784" data-name="Path 784" d="M0,0,35.8-.019V.346L0,.366Z" transform="translate(14.012 42.372) rotate(-45)" fill="#18e6c8"/>
          <path id="Path_785" data-name="Path 785" d="M0,0,35.8-.019V.346L0,.366Z" transform="translate(13.764 42.118) rotate(-45)" fill="#19e6c7"/>
          <path id="Path_786" data-name="Path 786" d="M0,0,35.8-.019V.346L0,.366Z" transform="translate(13.516 41.847) rotate(-45)" fill="#19e6c6"/>
          <path id="Path_787" data-name="Path 787" d="M0,0,35.8-.019V.346L0,.366Z" transform="translate(13.245 41.593) rotate(-45)" fill="#19e6c5"/>
          <path id="Path_788" data-name="Path 788" d="M0,0,35.8-.019V.346L0,.366Z" transform="translate(12.981 41.338) rotate(-45)" fill="#1ae6c4"/>
          <path id="Path_789" data-name="Path 789" d="M0,0,35.8-.019V.346L0,.366Z" transform="translate(12.721 41.079) rotate(-45)" fill="#1ae5c3"/>
          <path id="Path_790" data-name="Path 790" d="M0,0,35.8-.019V.346L0,.366Z" transform="translate(12.462 40.813) rotate(-45)" fill="#1ae5c2"/>
          <path id="Path_791" data-name="Path 791" d="M0,0,35.8-.019V.346L0,.366Z" transform="translate(12.214 40.559) rotate(-45)" fill="#1be5c1"/>
          <path id="Path_792" data-name="Path 792" d="M0,0,35.8-.019V.346L0,.366Z" transform="translate(11.938 40.3) rotate(-45)" fill="#1be5c0"/>
          <path id="Path_793" data-name="Path 793" d="M0,0,35.8-.019V.346L0,.366Z" transform="translate(11.679 40.034) rotate(-45)" fill="#1be5bf"/>
          <path id="Path_794" data-name="Path 794" d="M0,0,35.8-.019V.346L0,.366Z" transform="translate(11.43 39.78) rotate(-45)" fill="#1ce5be"/>
          <path id="Path_795" data-name="Path 795" d="M0,0,35.8-.019V.346L0,.366Z" transform="translate(11.171 39.52) rotate(-45)" fill="#1ce5bd"/>
          <path id="Path_796" data-name="Path 796" d="M0,0,35.8-.019V.346L0,.366Z" transform="translate(10.895 39.255) rotate(-45)" fill="#1ce4bc"/>
          <path id="Path_797" data-name="Path 797" d="M0,0,35.8-.019V.346L0,.366Z" transform="translate(10.647 39) rotate(-45)" fill="#1de4bb"/>
          <path id="Path_798" data-name="Path 798" d="M0,0,35.8-.019V.346L0,.366Z" transform="translate(10.388 38.741) rotate(-45)" fill="#1de4ba"/>
          <path id="Path_799" data-name="Path 799" d="M0,0,35.8-.019V.346L0,.366Z" transform="translate(10.128 38.475) rotate(-45)" fill="#1ee4b9"/>
          <path id="Path_800" data-name="Path 800" d="M0,0,35.8-.019V.346L0,.366Z" transform="translate(9.88 38.221) rotate(-45)" fill="#1ee4b8"/>
          <path id="Path_801" data-name="Path 801" d="M0,0,35.8-.019V.346L0,.366Z" transform="translate(9.604 37.962) rotate(-45)" fill="#1ee4b7"/>
          <path id="Path_802" data-name="Path 802" d="M0,0,35.8-.019V.346L0,.366Z" transform="translate(9.345 37.696) rotate(-45)" fill="#1fe4b6"/>
          <path id="Path_803" data-name="Path 803" d="M0,0,35.8-.019V.346L0,.366Z" transform="translate(9.097 37.426) rotate(-45)" fill="#1fe3b5"/>
          <path id="Path_804" data-name="Path 804" d="M0,0,35.8-.019V.346L0,.366Z" transform="translate(8.826 37.171) rotate(-45)" fill="#1fe3b4"/>
          <path id="Path_805" data-name="Path 805" d="M0,0,35.8-.019V.346L0,.366Z" transform="translate(8.562 36.917) rotate(-45)" fill="#20e3b3"/>
          <path id="Path_806" data-name="Path 806" d="M0,0,35.8-.019V.346L0,.366Z" transform="translate(8.313 36.646) rotate(-45)" fill="#20e3b2"/>
          <path id="Path_807" data-name="Path 807" d="M0,0,35.8-.019V.7L0,.715Z" transform="translate(7.798 36.152) rotate(-45)" fill="#20e3b2"/>
          <path id="Path_808" data-name="Path 808" d="M0,0,35.8-.019V.7L0,.715Z" transform="translate(7.286 35.643) rotate(-45)" fill="#20e4b3"/>
          <path id="Path_809" data-name="Path 809" d="M0,0,35.8-.019V.7L0,.715Z" transform="translate(6.8 35.123) rotate(-45)" fill="#21e5b3"/>
          <path id="Path_810" data-name="Path 810" d="M0,0,35.8-.019V.7L0,.715Z" transform="translate(6.288 34.614) rotate(-45)" fill="#21e6b4"/>
          <path id="Path_811" data-name="Path 811" d="M0,0,35.8-.019V.7L0,.715Z" transform="translate(5.776 34.105) rotate(-45)" fill="#21e7b5"/>
          <path id="Path_812" data-name="Path 812" d="M0,0,35.8-.019V.7L0,.715Z" transform="translate(5.263 33.596) rotate(-45)" fill="#22e8b6"/>
          <path id="Path_813" data-name="Path 813" d="M0,0,35.8-.019V.7L0,.715Z" transform="translate(4.767 33.103) rotate(-45)" fill="#22e9b6"/>
          <path id="Path_814" data-name="Path 814" d="M0,0,35.8-.019V.7L0,.715Z" transform="translate(4.254 32.594) rotate(-45)" fill="#22eab7"/>
          <path id="Path_815" data-name="Path 815" d="M0,0,35.8-.019V.7L0,.715Z" transform="translate(3.742 32.085) rotate(-45)" fill="#23ebb8"/>
          <path id="Path_816" data-name="Path 816" d="M0,0,35.8-.019V.7L0,.715Z" transform="translate(3.229 31.576) rotate(-45)" fill="#23ecb9"/>
          <path id="Path_817" data-name="Path 817" d="M0,0,35.8-.019V.7L0,.715Z" transform="translate(2.733 31.067) rotate(-45)" fill="#23edb9"/>
          <path id="Path_818" data-name="Path 818" d="M0,0,35.8-.019V.7L0,.715Z" transform="translate(2.22 30.558) rotate(-45)" fill="#24eeba"/>
          <path id="Path_819" data-name="Path 819" d="M0,0,35.8-.019V.7L0,.715Z" transform="translate(1.708 30.049) rotate(-45)" fill="#24efbb"/>
          <path id="Path_820" data-name="Path 820" d="M0,0,35.8-.019V.7L0,.715Z" transform="translate(1.195 29.54) rotate(-45)" fill="#24f0bc"/>
          <path id="Path_821" data-name="Path 821" d="M0,0,35.8-.019V.7L0,.715Z" transform="translate(0.699 29.031) rotate(-45)" fill="#25f2bc"/>
          <path id="Path_822" data-name="Path 822" d="M0,0,35.8-.019V.7L0,.715Z" transform="translate(0.186 28.523) rotate(-45)" fill="#25f3bd"/>
          <path id="Path_748" data-name="Path 748" d="M1.178,27.7.86,27.377V27L25.962,1.85l.508.509Z" transform="translate(-0.991 0.825)" fill="#25f4be"/>
          <path id="Path_749" data-name="Path 749" d="M.86,26.166,25.47,1.53l.493.509L.86,27.184Z" transform="translate(-0.991 0.636)" fill="#26f5bf"/>
          <path id="Path_750" data-name="Path 750" d="M.86,25.332,24.961,1.22l.508.493L.86,26.35Z" transform="translate(-0.991 0.453)" fill="#26f6bf"/>
          <path id="Path_751" data-name="Path 751" d="M.86,24.5,24.453.9l.508.509L.86,25.521Z" transform="translate(-0.991 0.264)" fill="#26f7c0"/>
          <path id="Path_752" data-name="Path 752" d="M.86,23.674,23.945.58l.508.509L.86,24.692Z" transform="translate(-0.991 0.075)" fill="#27f8c1"/>
          <path id="Path_753" data-name="Path 753" d="M.86,22.845,23.436.26l.508.509L.86,23.863Z" transform="translate(-0.991 -0.114)" fill="#27f9c2"/>
          <path id="Path_754" data-name="Path 754" d="M.86,21.933,22.69.08h.461l.286.286L.86,22.951Z" transform="translate(-0.991 -0.22)" fill="#27fac2"/>
          <path id="Path_755" data-name="Path 755" d="M.86,20.931,21.673.08H22.69L.86,21.933Z" transform="translate(-0.991 -0.22)" fill="#28fbc3"/>
          <path id="Path_756" data-name="Path 756" d="M.86,19.913,20.656.08h1.017L.86,20.931Z" transform="translate(-0.991 -0.22)" fill="#28fcc4"/>
          <path id="Path_757" data-name="Path 757" d="M.86,18.9,19.639.08h1.017L.86,19.913Z" transform="translate(-0.991 -0.22)" fill="#28fdc5"/>
          <path id="Path_758" data-name="Path 758" d="M.86,17.877,18.622.08h1.017L.86,18.9Z" transform="translate(-0.991 -0.22)" fill="#29fec5"/>
          <path id="Path_759" data-name="Path 759" d="M.86,16.86,17.606.08h1.017L.86,17.877Z" transform="translate(-0.991 -0.22)" fill="#29ffc6"/>
          <path id="Path_760" data-name="Path 760" d="M17.606.08.86,16.86V.08Z" transform="translate(-0.991 -0.22)" fill="#29ffc6"/>
        </g>
        <path id="Path_762" data-name="Path 762" d="M26.4,49.943l-.413-.414.127-.27c2.034-2.72.238-5.519-1.589-7.4-6.006-6-14.966-14.871-15.061-14.95l-8.119-8.08a1.974,1.974,0,0,1,0-2.8L16.8.559a2,2,0,0,1,2.78,0L42.971,23.97a6.606,6.606,0,0,1,0,9.384ZM18.2.606a1.366,1.366,0,0,0-.953.4L1.791,16.479a1.353,1.353,0,0,0,0,1.909l8.071,8.08c.1.08,9.056,8.954,15.061,14.966C27.179,43.692,28.1,45.967,27.449,48L42.542,32.909a6.033,6.033,0,0,0,0-8.493L19.14,1A1.35,1.35,0,0,0,18.2.606Z" transform="translate(0.437 0.003)" fill="#0b1533"/>
        <path id="Path_763" data-name="Path 763" d="M6.619,14.67.772,20.539a1.958,1.958,0,0,0,0,2.767l18.08,18.1a5.166,5.166,0,1,0,7.308-7.3Z" transform="translate(0.104 8.668)" fill="#0cebeb"/>
        <path id="Path_764" data-name="Path 764" d="M22.619,43.388h0a5.478,5.478,0,0,1-3.877-1.59L.662,23.682a2.26,2.26,0,0,1,0-3.181L6.732,14.41,26.5,34.036a5.488,5.488,0,0,1-3.877,9.352ZM6.732,15.348,1.107,20.915a1.69,1.69,0,0,0,0,2.386l18.08,18.036a4.763,4.763,0,0,0,6.863,0,4.855,4.855,0,0,0,0-6.855Z" transform="translate(-0.008 8.514)" fill="#0b1533"/>
        <g id="Group_571" data-name="Group 571" transform="translate(9.218 7.846)" opacity="0.23">
          <path id="Path_765" data-name="Path 765" d="M18.822,5.248a2.921,2.921,0,0,1-4.115,0c-.1-.111-.191-.207-.27-.318l-4,4.056L5.985,13.423,5.81,13.6l.318.27a2.9,2.9,0,0,1,0,4.119l-.207.191L12.133,24.4s6.609,6.537,12.233,12.151c3.988,3.976,2.4,6.171,2.1,6.664h0L38.57,31.093c1.827-1.829,1.462-5.153-.826-7.443L19.108,5.041Z" transform="translate(-5.81 -4.93)" fill="#003b5b"/>
        </g>
        <g id="Group_572" data-name="Group 572" transform="translate(5.516 25.453)" opacity="0.23">
          <path id="Path_766" data-name="Path 766" d="M24.054,33.336,6.546,16,3.671,18.8l-.191.191a1.684,1.684,0,0,1,.318.27,2.881,2.881,0,0,1,0,4.1,1.176,1.176,0,0,1-.207.191L9.8,29.774S16.4,36.279,22,41.893a5.051,5.051,0,0,0,2.05-1.256,5.157,5.157,0,0,0,0-7.3Z" transform="translate(-3.48 -16)" fill="#003b5b"/>
        </g>
      </g>
    </g>
  </g>
</svg>
