<svg id="Layer_1" data-name="Layer 1" xmlns="http://www.w3.org/2000/svg" viewBox="0 0 400 400"><defs><style>.cls-1{fill:#ddf5f7;}.cls-1,.cls-10,.cls-11,.cls-12,.cls-13,.cls-14,.cls-15,.cls-16,.cls-17,.cls-18,.cls-19,.cls-2,.cls-20,.cls-21,.cls-22,.cls-23,.cls-3,.cls-5,.cls-7,.cls-8,.cls-9{fill-rule:evenodd;}.cls-2{fill:#def8ff;}.cls-3{fill:#ffc235;}.cls-10,.cls-4{fill:#221f20;}.cls-5{fill:#ffcdd2;}.cls-6,.cls-8{fill:#013a5b;}.cls-7{fill:#fcfdfe;}.cls-9{fill:#fe71f3;}.cls-11{fill:#2e5d61;}.cls-12{fill:#5cc5f2;}.cls-13{fill:#135c70;}.cls-14{fill:#c0effc;}.cls-15{fill:#073e4d;}.cls-16{fill:#2ab24b;}.cls-17{fill:#292b2d;}.cls-18{fill:#f6fbfb;}.cls-19{fill:#def4f7;}.cls-20{fill:#cccaca;}.cls-21{fill:#a8a7a7;}.cls-22{fill:#04c4ac;}.cls-23{fill:#54b374;}</style></defs><path class="cls-1" d="M63.34,164.26C32.39,223,104.72,229.67,97.4,256.62s-18.81,55.59,32.74,58.74,150.66,4.47,189.24-61.89-66.37-48.4-68.17-84.3c-5.42-108.53-157-63.55-187.87-4.91Z"/><path class="cls-2" d="M159.06,358.85c53.45,0,97.07-4.82,97.07-10.75s-43.62-10.78-97.07-10.78S62,342.17,62,348.1s43.59,10.75,97.08,10.75Z"/><path class="cls-3" d="M152.14,74.57H348.22A2.42,2.42,0,0,1,350.63,77v36.3a2.42,2.42,0,0,1-2.41,2.44H152.14a2.42,2.42,0,0,1-2.4-2.44V77a2.42,2.42,0,0,1,2.4-2.41Z"/><path class="cls-4" d="M88.62,302.89c0,.06-10.5,26.6-29,13.79-7.7-5.29-9.8-14-8.61-21.79a28,28,0,0,1,2.61-8.44,19.64,19.64,0,0,1,4.71-6.27c3-2.58,6.61-3.53,10.17-1.7a14.61,14.61,0,0,1,7.59,9.76,20.43,20.43,0,0,1,.44,7.53,21.17,21.17,0,0,1-2,6.71c-1.25,2.54-3,4.34-4.88,4.85-2.2.57-4.1-.85-5.32-3.09a12.12,12.12,0,0,1-1.39-4.44,12,12,0,0,1,.24-4.81,7.27,7.27,0,0,1,7.08-5.8l0,.95a6.41,6.41,0,0,0-6.2,5.09,11.77,11.77,0,0,0-.24,4.47,11.94,11.94,0,0,0,1.29,4.07c1.05,1.9,2.58,3.08,4.27,2.64s3.12-2.07,4.31-4.37a20.37,20.37,0,0,0,1.86-6.37,19.82,19.82,0,0,0-.37-7.19A13.84,13.84,0,0,0,68,279.33c-3.16-1.63-6.38-.78-9.12,1.59a18.79,18.79,0,0,0-4.48,6A27.49,27.49,0,0,0,51.88,295c-1.12,7.49.88,15.83,8.21,20.88C77.68,328,87.71,302.62,87.74,302.51Z"/><path class="cls-5" d="M85.47,281.87a91.68,91.68,0,0,0-.91,15.36c.37,6.5.74,6.94.74,6.94S74.83,310.45,77,325.7s8.44,19.72,27,23.55,27.39,1.56,27.39,1.56,16.71,3.8,22.4,4.27l4.24.31v.13l1.08-.06c.92.06,1.12.06,1.12.06l0-.13,4.23-.31c5.7-.47,22.41-4.27,22.41-4.27s8.81,2.24,27.38-1.56,24.78-8.3,27-23.55S233,304.17,233,304.17s.37-.44.74-6.94a96,96,0,0,0-.91-15.46s5.69-8.75,5.69-26.23-19.83-35.66-19.83-35.66c-15.08-18.17-59.52-2.92-59.52-2.92s-16.3-5.59-32.5-6c-.07.07-2.34,3.93-13.42,7.25-21.08,6.34-32.61,41.42-23.32,65.86-1.36-.71-2.85-1.46-4.41-2.24Z"/><path class="cls-6" d="M99.91,220.35c-.07,0-19.62,18-19.62,35.19s5.55,25.82,5.59,25.86l.1.2,0,.24A98.65,98.65,0,0,0,85,297.19c.37,6.27.61,6.58.61,6.58l.48.57-.61.38s-10.14,6.06-8,20.88c1.08,7.45,3.15,12.26,7.15,15.65s10.23,5.5,19.45,7.39c18.44,3.8,27.15,1.6,27.19,1.6h.17c.06,0,16.71,3.79,22.37,4.23.91.07,1.69.14,2.33.17.79.07,1.39.11,1.87.14l.47,0v.07l.58,0h.07l.57,0v-.07l.48,0c.47,0,1.08-.07,1.86-.14s1.43-.1,2.34-.17c5.66-.44,22.3-4.23,22.37-4.23H187s8.75,2.2,27.18-1.6c9.22-1.89,15.36-3.93,19.46-7.39s6.07-8.2,7.15-15.65c2.14-14.82-8-20.88-8-20.88l-.61-.38.48-.57s.23-.31.61-6.58a100,100,0,0,0-.92-15.35l0-.24.1-.2s5.59-8.58,5.59-25.86-19.56-35.15-19.62-35.19l0-.06c-14.88-17.9-58.91-2.78-59-2.75H159c-.14,0-44.17-15.15-59.05,2.75ZM79.3,255.54c0-17.6,19.46-35.63,20-36.13,14.85-17.8,57.21-3.94,59.82-3.06,2.61-.88,45-14.74,59.83,3.06.54.5,20,18.53,20,36.13,0,16.13-4.82,24.94-5.67,26.37a94.59,94.59,0,0,1,.89,15.35,50.21,50.21,0,0,1-.65,6.61c1.83,1.25,10.2,7.9,8.17,21.93-1.12,7.79-3.29,12.84-7.56,16.44s-10.47,5.66-19.83,7.59c-17.55,3.59-26.44,1.8-27.45,1.59-1.29.27-16.88,3.8-22.37,4.24-.88.07-1.66.14-2.34.17a11.21,11.21,0,0,1-1.42.1v.17h-.48l-1.12,0-1.08,0h-.51v-.17a11.08,11.08,0,0,1-1.42-.1c-.68,0-1.46-.1-2.34-.17-5.49-.44-21.08-4-22.37-4.24-1,.21-9.9,2-27.46-1.59-9.35-1.93-15.59-4-19.82-7.59s-6.44-8.65-7.56-16.44c-2-14,6.34-20.68,8.17-21.93a48.36,48.36,0,0,1-.65-6.61A94.92,94.92,0,0,1,85,281.91c-.84-1.43-5.66-10.24-5.66-26.37Z"/><path class="cls-6" d="M112.79,291.77s-7.66-2.95-9.69-4.1a11.52,11.52,0,0,0-3.77-.61c-2.88-.24-6.61-.51-9.66-2.41l.45-1.08c2.84,1.79,6.47,2.06,9.28,2.3a11.78,11.78,0,0,1,4.1.71c2,1.12,9.56,4,9.6,4Z"/><path class="cls-6" d="M205.15,290.62s7.63-2.92,9.59-4a11.85,11.85,0,0,1,4.11-.71c2.81-.24,6.44-.51,9.28-2.3l.44,1.08c-3,1.9-6.78,2.17-9.66,2.41a11.5,11.5,0,0,0-3.76.61c-2,1.15-9.66,4.06-9.69,4.1Z"/><path class="cls-6" d="M150.14,227.13s5.43,7.7,14.78.58l.54,1c-10.1,7.66-16-.78-16.06-.78Z"/><path class="cls-6" d="M110.82,227.2s-4,6.51,3.77,14.24a53.22,53.22,0,0,0,16.74,11.32l-.31,1.15a55.78,55.78,0,0,1-17-11.56c-8.44-8.44-4-15.79-3.93-15.83Z"/><path class="cls-6" d="M106.55,228.42s-6.5,7.25,1.7,20.74l-.78.72c-8.71-14.34-1.63-22.31-1.59-22.31Z"/><path class="cls-6" d="M207.39,220.18s-1.66,7-13.42,13.19-14.71,5.18-14.75,5.18l.24-1.18s2.68.88,14.1-5.12,12.88-12.41,12.88-12.41Z"/><path class="cls-6" d="M201.73,227.57s2.34,8.24-5.08,15.26a59.53,59.53,0,0,1-16.51,10.4l-.31-1.15a56.81,56.81,0,0,0,16.2-10.2c6.88-6.48,4.78-13.93,4.78-13.93Z"/><path class="cls-6" d="M204.71,227.06s6.58,10.58-.17,21.36l-.78-.71c6.27-10.07.17-19.9.17-19.93Z"/><path class="cls-5" d="M119.2,167.51h1.08a27.4,27.4,0,0,1,25.66,20.68c.1.37.17.78.27,1.18A26.49,26.49,0,0,1,157.29,187a26.06,26.06,0,0,1,12.51,3.09,27.38,27.38,0,0,1,26.95-22.58h.88a28.46,28.46,0,0,1,7,1.15,36.23,36.23,0,0,0-3.49-8.84,27.29,27.29,0,0,1,2.91-2.1c1.9-1.26,10.65-9,8.65-16.37a148.19,148.19,0,0,0-5.73-16s-2.82,3.46-8.41,10.65a33.68,33.68,0,0,0-6.4,15.93s-3.77-2.51-8.41-5.36l-.1.17s-1-1.22-11.42-3.9-23.12,1.8-23.12,1.8L139,146.4c.1-.82-.41-1.87-.85-3.6-.88-3.49-7-9.18-9.29-12.67s-2.13-5-2.13-5-4.81,3.49-6.07,11.45c-1.09,7,4,11.73,5.22,12.78a44.58,44.58,0,0,0,6,0,62,62,0,0,0-6.34,6.71,45.87,45.87,0,0,0-6.33,11.52Z"/><path class="cls-6" d="M117.74,156.36A46.67,46.67,0,0,0,107,169.82a28.13,28.13,0,0,1,12.44-2.92,2.44,2.44,0,0,1,.44,0h.44a28,28,0,0,1,16.64,6.13,28.26,28.26,0,0,1,9.6,15v0c0,.17.06.34.1.48a24.88,24.88,0,0,1,4.78-1.5,28.42,28.42,0,0,1,5.89-.6,27.37,27.37,0,0,1,6.72.81,23.35,23.35,0,0,1,5.35,2,28,28,0,0,1,27.39-22.3,2.5,2.5,0,0,1,.44,0h.44a25.1,25.1,0,0,1,3.62.33,20.73,20.73,0,0,1,2.51.55,36.06,36.06,0,0,0-3.15-7.7l-.27-.4.37-.34a27.84,27.84,0,0,1,3-2.17,25.57,25.57,0,0,0,7.15-8.14,10.54,10.54,0,0,0,1.25-7.59,148.76,148.76,0,0,0-5.42-15.29c-1.12.72-3.83,2.41-9.29,5.67C190,136.26,184.17,147,184.14,147l-.41.78-.57-.68s-.89-1.09-11.12-3.73-22.71,1.76-22.75,1.76l-.67.24-.11-.71s-.33-2.24-4.06-8.27c-3.39-5.49-15.59-9.93-17.66-10.65-1,.78-4.54,4.17-5.56,10.85C120,144.23,126.45,149,126.48,149l1,.78-1.25.27s-.89.1-8.51,6.27ZM105.06,171A47.35,47.35,0,0,1,117,155.45a81.25,81.25,0,0,1,8.07-6c-1.73-1.59-6.07-6.3-5-13,1.26-8.2,6.27-11.83,6.27-11.83l.28-.17.27.1c.06,0,14.67,4.88,18.6,11.22a36.93,36.93,0,0,1,4.07,8.07c2.64-.85,13.56-4,22.81-1.59,7.12,1.83,10,3.05,11.09,3.66,1.32-2.27,6.71-11.09,13.35-15,7.46-4.44,9.83-6,9.83-6l.61-.41.27.68a142.33,142.33,0,0,1,5.73,16.1,11.57,11.57,0,0,1-1.32,8.44,26.5,26.5,0,0,1-7.56,8.57,25.68,25.68,0,0,0-2.48,1.8,35.1,35.1,0,0,1,3.33,8.54l.27,1-1-.31a23.43,23.43,0,0,0-3.39-.78,24.29,24.29,0,0,0-3.46-.34h-.84a26.77,26.77,0,0,0-26.37,22.1l-.14.82-.71-.41a23.29,23.29,0,0,0-5.83-2.24,26.06,26.06,0,0,0-6.41-.78,26.76,26.76,0,0,0-5.62.58,24.05,24.05,0,0,0-5.22,1.73l-.68.3-.17-.71c0-.2-.07-.37-.1-.61a5.36,5.36,0,0,1-.14-.58h0a26.72,26.72,0,0,0-25.08-20.2h-.85a26.54,26.54,0,0,0-13.49,3.63Z"/><path class="cls-5" d="M128.82,130.13c-2.37-3.49-2.13-5-2.13-5s-4.81,3.49-6.07,11.45c-1.09,7,4,11.73,5.22,12.78,4.2.27,8.27-.1,10.27-.81,4-1.46,2.91-2.24,2-5.7s-7-9.18-9.29-12.67Z"/><path class="cls-4" d="M128.31,130.47a14.18,14.18,0,0,1-2.06-4.21,17.9,17.9,0,0,0-5,10.34A11.85,11.85,0,0,0,122,143a16.27,16.27,0,0,0,4.1,5.69,41,41,0,0,0,5.56,0,18.51,18.51,0,0,0,4.27-.74h0c2.81-1,2.64-1.63,2.06-3.5-.13-.44-.27-.91-.44-1.52-.54-2.1-3.22-5.22-5.66-8.07-1.39-1.62-2.71-3.15-3.56-4.4Zm-1-5.29s-.17,1.32,2,4.61c.81,1.18,2.1,2.71,3.45,4.3,2.55,2.95,5.33,6.17,5.93,8.54.14.55.31,1.05.45,1.5.81,2.64,1.08,3.52-2.82,4.94h0a18.64,18.64,0,0,1-4.57.82,45.08,45.08,0,0,1-5.93,0l-.34-.14a16.52,16.52,0,0,1-4.58-6.27,12.83,12.83,0,0,1-.85-7c1.26-8.2,6.27-11.83,6.27-11.83l1.16-.85Z"/><path class="cls-5" d="M198.54,136a33.68,33.68,0,0,0-6.4,15.93c3.69,2,9,7.93,9,7.93a27.29,27.29,0,0,1,2.91-2.1c1.9-1.26,10.65-9,8.65-16.37a148.19,148.19,0,0,0-5.73-16s-2.82,3.46-8.41,10.65Z"/><path class="cls-4" d="M199,136.33a32.55,32.55,0,0,0-6.24,15.22c3.15,1.86,7.15,6.1,8.41,7.45.47-.37,1.32-1,2.51-1.79a25.57,25.57,0,0,0,7.15-8.14,10.54,10.54,0,0,0,1.25-7.59,147.83,147.83,0,0,0-5.32-15c-1.09,1.35-3.66,4.61-7.76,9.86Zm-7.46,15.49a34.11,34.11,0,0,1,6.51-16.24c5.52-7.08,8.4-10.64,8.4-10.64l.65-.78.37.92a142.33,142.33,0,0,1,5.73,16.1,11.57,11.57,0,0,1-1.32,8.44,26.5,26.5,0,0,1-7.56,8.57,27.08,27.08,0,0,0-2.81,2.1l-.48.38-.37-.44s-5.22-5.87-8.81-7.83l-.34-.17Z"/><path class="cls-4" d="M195.59,274s7-.54,10.17,2.75a9.62,9.62,0,0,1,2.68,5,16.14,16.14,0,0,1,.07,4.75,7.48,7.48,0,0,1-1.15,3.59,4.27,4.27,0,0,1-1.87,1.59,36.05,36.05,0,0,1-8.27,2.14,18.33,18.33,0,0,1-6.71-.17,6.85,6.85,0,0,1-4-2.27,3.56,3.56,0,0,1-.57-1.25,3.73,3.73,0,0,1,0-1.33,4.42,4.42,0,0,1,1.09-2.13,37.66,37.66,0,0,0,2.47-4.07c2.07-3.63,4.65-8.2,6-8.57Zm9.56,3.66c-2.71-2.81-8.84-2.51-9.45-2.47-1,.37-3.46,4.68-5.39,8.1a35.16,35.16,0,0,1-2.65,4.3,3.28,3.28,0,0,0-.78,1.49,1.93,1.93,0,0,0,0,.75,2.09,2.09,0,0,0,.34.78,6,6,0,0,0,3.45,1.86,17.2,17.2,0,0,0,6.38.17,34.18,34.18,0,0,0,8.06-2.06,3.32,3.32,0,0,0,1.46-1.26,6,6,0,0,0,.92-2.95,13.68,13.68,0,0,0,0-4.33,8.68,8.68,0,0,0-2.34-4.38Z"/><path class="cls-6" d="M107.81,220.18s1.66,7,13.42,13.19,14.71,5.18,14.74,5.18l-.23-1.18s-2.68.88-14.1-5.12-12.88-12.41-12.88-12.41Z"/><path class="cls-7" d="M119.4,222.22a27.36,27.36,0,1,0-27.35-27.36,27.43,27.43,0,0,0,27.35,27.36Z"/><path class="cls-6" d="M119.4,166.9a28,28,0,1,1-19.76,8.2,27.86,27.86,0,0,1,19.76-8.2Zm18.91,9a26.76,26.76,0,1,0,7.83,18.91A26.6,26.6,0,0,0,138.31,176Z"/><path class="cls-8" d="M120.28,167.51a27.4,27.4,0,0,1,25.66,20.68,20.71,20.71,0,1,1-25.66-20.68Z"/><path class="cls-7" d="M196.75,222.22a27.36,27.36,0,1,0-27.36-27.36,27.44,27.44,0,0,0,27.36,27.36Z"/><path class="cls-6" d="M196.75,166.9A28,28,0,1,1,177,175.1a27.88,27.88,0,0,1,19.76-8.2Zm18.91,9a26.76,26.76,0,1,0,7.83,18.91A26.64,26.64,0,0,0,215.66,176Z"/><path class="cls-8" d="M197.63,167.51a27.41,27.41,0,0,1,25.66,20.68,20.71,20.71,0,1,1-25.66-20.68Z"/><path class="cls-9" d="M157.29,220.86c12,0,21.73-7.59,21.73-16.91S169.26,187,157.29,187s-21.76,7.63-21.76,16.95,9.76,16.91,21.76,16.91Z"/><path class="cls-6" d="M157.29,186.43A25.61,25.61,0,0,1,173,191.51c4.1,3.15,6.61,7.56,6.61,12.44s-2.51,9.25-6.61,12.44a26.94,26.94,0,0,1-31.49,0c-4.06-3.19-6.61-7.6-6.61-12.44s2.55-9.29,6.61-12.44a25.74,25.74,0,0,1,15.76-5.08Zm15,6a25.67,25.67,0,0,0-30,0c-3.8,2.95-6.14,7-6.14,11.49s2.34,8.54,6.14,11.49a25.67,25.67,0,0,0,30,0c3.76-2.95,6.13-7,6.13-11.49s-2.37-8.54-6.13-11.49Z"/><path class="cls-10" d="M165.43,199.51c2.91-1.9,6-2.31,6.91-.92s-.68,4.07-3.59,6-6,2.3-6.91.91.71-4.06,3.59-6Z"/><path class="cls-10" d="M151.29,199.51c-2.91-1.9-6-2.31-6.91-.92s.68,4.07,3.59,6,6,2.3,6.92.91-.71-4.06-3.6-6Z"/><path class="cls-11" d="M66.59,210.25h0a.68.68,0,0,1,.65.65v6.77h4.34a.67.67,0,0,1,.67.65h0a.65.65,0,0,1-.67.64H67.24v6.78a.65.65,0,0,1-.65.65h0a.66.66,0,0,1-.68-.65V219H61.58a.62.62,0,0,1-.65-.64h0a.65.65,0,0,1,.65-.65h4.33V210.9a.68.68,0,0,1,.68-.65Z"/><path class="cls-11" d="M82.83,195.27h0a.45.45,0,0,1,.47.44v4.92h3.15a.47.47,0,0,1,.48.47h0a.47.47,0,0,1-.48.48H83.3v4.91a.46.46,0,0,1-.47.47h0a.48.48,0,0,1-.48-.47v-4.91H79.2a.47.47,0,0,1-.47-.48h0a.46.46,0,0,1,.47-.47h3.15v-4.92a.48.48,0,0,1,.48-.44Z"/><path class="cls-11" d="M63.92,182.93h0a.75.75,0,0,1,.74.75v7.83h5a.75.75,0,0,1,.74.75h0a.75.75,0,0,1-.74.74h-5v7.83a.75.75,0,0,1-.74.75h0a.76.76,0,0,1-.78-.75V193h-5a.75.75,0,0,1-.75-.74h0a.76.76,0,0,1,.75-.75h5v-7.83a.76.76,0,0,1,.78-.75Z"/><path class="cls-11" d="M55.51,203.41h0a.38.38,0,0,1,.4.4v4.27h2.75a.39.39,0,0,1,.41.41h0a.42.42,0,0,1-.41.41H55.91v4.27a.4.4,0,0,1-.4.4h0a.41.41,0,0,1-.41-.4V208.9H52.36a.42.42,0,0,1-.41-.41h0a.39.39,0,0,1,.41-.41H55.1v-4.27a.39.39,0,0,1,.41-.4Z"/><path class="cls-11" d="M82.39,176h0a.49.49,0,0,1,.51.47v5h3.25a.49.49,0,0,1,.47.51h0a.46.46,0,0,1-.47.47H82.9v5a.53.53,0,0,1-.51.51h0a.5.5,0,0,1-.48-.51v-5H78.66a.49.49,0,0,1-.51-.47h0a.53.53,0,0,1,.51-.51h3.25v-5a.47.47,0,0,1,.48-.47Z"/><path class="cls-11" d="M50.29,190.19h0a.28.28,0,0,1,.27.27v2.85h1.83a.28.28,0,0,1,.27.27h0a.26.26,0,0,1-.27.27H50.56v2.85a.29.29,0,0,1-.27.27h0a.27.27,0,0,1-.27-.27v-2.85H48.19a.25.25,0,0,1-.27-.27h0a.26.26,0,0,1,.27-.27H50v-2.85a.26.26,0,0,1,.27-.27Z"/><path class="cls-11" d="M54.76,169.24h0a.47.47,0,0,1,.48.47v5.06h3.25a.52.52,0,0,1,.51.5h0a.5.5,0,0,1-.51.48H55.24v5.05a.5.5,0,0,1-.48.51h0a.53.53,0,0,1-.51-.51v-5.05H51a.47.47,0,0,1-.47-.48h0a.48.48,0,0,1,.47-.5h3.25v-5.06a.49.49,0,0,1,.51-.47Z"/><path class="cls-11" d="M36.26,197.41h0c.4,0,.74.23.74.54v5.86h5a.69.69,0,0,1,.75.58h0a.69.69,0,0,1-.75.57H37v5.87c0,.3-.34.54-.74.54h0c-.41,0-.75-.24-.75-.54V205h-5a.68.68,0,0,1-.74-.57h0a.68.68,0,0,1,.74-.58h5V198c0-.31.34-.54.75-.54Z"/><path class="cls-12" d="M119.5,265.16h80.13a4.73,4.73,0,0,1,1.22.17c-1.73,3-6.41,11.19-6.51,12.91-.07,1.33,5.52.14,9.63-1.05v34.95c-2.38,3.29-6,8.13-7.73,10.17-2.82,3.25-12.91,7.69-15.7,12.67-1,1.73,1.39,4.21,4.92,6.71H133.23c3.52-2.5,5.93-5,5-6.71-2.82-5-12.88-9.42-15.7-12.67-1.69-1.93-4.94-6.37-7.32-9.59V277.57c4.17,1.08,9.49,2.17,9,.57-.65-2.2-5.53-10.13-6.89-12.37a4.58,4.58,0,0,1,2.24-.61Z"/><path class="cls-13" d="M159.56,281.4a12.18,12.18,0,0,1,5.8,22.88v17.25a3.92,3.92,0,0,1-3.9,3.93h-3.79a3.92,3.92,0,0,1-3.9-3.93V304.28a12.18,12.18,0,0,1,5.79-22.88Z"/><path class="cls-14" d="M133.57,249.13a26,26,0,1,1,52,0v14.74c0,.44,0,.85,0,1.29h8.67V248.35a34.66,34.66,0,0,0-69.31,0v16.81h8.71c0-.44,0-.85,0-1.29Z"/><path class="cls-8" d="M122.62,274.65s-6.85-.54-9.83,2.61-2.85,6.27-2.58,9.22,1.6,4.17,2.72,4.71,9.28,3.29,14.71,1.9,4.54-4.51,3.28-5.9-6.44-12-8.3-12.54Z"/><path class="cls-8" d="M134.21,330.65s-6.74,1.45-9.05,5.35-1.56,6.92-.71,9.73,2.3,3.59,3.52,3.8,9.67.54,14.65-2.38,3.59-5.69,2.06-6.68-8.57-9.86-10.47-9.82Z"/><path class="cls-8" d="M184,330.65s6.74,1.45,9.05,5.35,1.56,6.92.71,9.73-2.31,3.59-3.53,3.8-9.66.54-14.64-2.38-3.56-5.69-2.07-6.68,8.58-9.86,10.48-9.82Z"/><path class="cls-8" d="M195.63,274.65s6.84-.54,9.83,2.61,2.84,6.27,2.57,9.22-1.59,4.17-2.71,4.71-9.29,3.29-14.71,1.9-4.54-4.51-3.29-5.9,6.44-12,8.31-12.54Z"/><path class="cls-4" d="M195.26,274.25a79.23,79.23,0,0,0,5.21-8.38,4,4,0,0,0,.34-3c-.3-1.66-.67-3.8,1.39-8.64l.88.54c-1.89,4.47-1.59,6.37-1.32,7.86a5.25,5.25,0,0,1-.44,3.83A83.5,83.5,0,0,1,196,275Z"/><path class="cls-6" d="M122.28,275a76.56,76.56,0,0,1-5.35-8.55,5.26,5.26,0,0,1-.45-3.83c.28-1.49.61-3.39-1.32-7.86l.88-.54c2.07,4.84,1.7,7,1.39,8.64a4,4,0,0,0,.34,3,80.41,80.41,0,0,0,5.22,8.38Z"/><path class="cls-6" d="M95.5,300.07a27.53,27.53,0,0,1,14.82,6.82,60.85,60.85,0,0,1,8.64,10c2.37,3.22,4.47,6.07,6.78,7.59,4.81,3.12,8.61,5.59,8.64,5.59l-.47,1s-3.83-2.47-8.61-5.59c-2.51-1.63-4.65-4.54-7.09-7.83a58.54,58.54,0,0,0-8.44-9.86,26.61,26.61,0,0,0-14.3-6.58Z"/><path class="cls-6" d="M222.78,301.29a26.65,26.65,0,0,0-14.31,6.58,59.48,59.48,0,0,0-8.44,9.86c-2.44,3.29-4.57,6.2-7.05,7.83l-8.64,5.59-.47-1s3.83-2.47,8.64-5.59c2.3-1.52,4.41-4.37,6.78-7.59a60.38,60.38,0,0,1,8.64-10,27.55,27.55,0,0,1,14.81-6.82Z"/><path class="cls-15" d="M158.24,304.72A12.16,12.16,0,0,1,163,281.91a11.48,11.48,0,0,0-3.43-.51,12.18,12.18,0,0,0-5.79,22.88v17.25a3.92,3.92,0,0,0,3.9,3.93h2.67a4,4,0,0,1-2.1-3.49Z"/><path class="cls-15" d="M170.51,99.22A4.48,4.48,0,1,0,166,94.74a4.47,4.47,0,0,0,4.51,4.48Z"/><path class="cls-15" d="M190.92,99.22a4.48,4.48,0,1,0-4.51-4.48,4.47,4.47,0,0,0,4.51,4.48Z"/><path class="cls-15" d="M211.32,99.22a4.48,4.48,0,1,0-4.51-4.48,4.49,4.49,0,0,0,4.51,4.48Z"/><path class="cls-15" d="M231.73,99.22a4.48,4.48,0,1,0-4.51-4.48,4.49,4.49,0,0,0,4.51,4.48Z"/><path class="cls-15" d="M252.1,99.22a4.48,4.48,0,1,0-4.48-4.48,4.5,4.5,0,0,0,4.48,4.48Z"/><path class="cls-15" d="M272.5,99.22A4.48,4.48,0,1,0,268,94.74a4.5,4.5,0,0,0,4.47,4.48Z"/><path class="cls-15" d="M292.9,99.22a4.48,4.48,0,1,0-4.47-4.48,4.5,4.5,0,0,0,4.47,4.48Z"/><path class="cls-15" d="M313.31,99.22a4.48,4.48,0,1,0-4.48-4.48,4.5,4.5,0,0,0,4.48,4.48Z"/><path class="cls-16" d="M344.25,93.22a26,26,0,1,0-26-26,26.09,26.09,0,0,0,26,26Z"/><path class="cls-17" d="M344.25,89.08a21.9,21.9,0,1,0-21.89-21.89,21.93,21.93,0,0,0,21.89,21.89Z"/><path class="cls-18" d="M348.15,65.12l-3.79,4.13L340.93,73l-.47-.64-1.15-1.69-2.92-4c-1.05-1.42-2.95-2-4.17-1.08a3.19,3.19,0,0,0-.47,4.2l2.51,3.39,1.15,1.7,2.68,3.86a3,3,0,0,0,4.13,1.08,2.83,2.83,0,0,0,.65-.57l2.23-2.51,3.83-4.17,3.77-4.17,5.69-6.24a2.78,2.78,0,0,0-.17-3.93,2.82,2.82,0,0,0-3.93.17Z"/><path class="cls-19" d="M268.71,352.1c16.16,0,29.38-2.71,29.38-6S284.87,340,268.71,340s-29.36,2.71-29.36,6.07,13.19,6,29.36,6Z"/><path class="cls-20" d="M251.38,314.14H284.7a2.52,2.52,0,0,1,2.51,2.51v4.4a2.52,2.52,0,0,1-2.51,2.51H251.38a2.52,2.52,0,0,1-2.5-2.51v-4.4a2.52,2.52,0,0,1,2.5-2.51Z"/><path class="cls-21" d="M252.61,347.93h30.87a3.86,3.86,0,0,0,3.87-3.86V327.43a3.89,3.89,0,0,0-3.87-3.87H252.61a3.89,3.89,0,0,0-3.87,3.87v16.64a3.86,3.86,0,0,0,3.87,3.86Z"/><path class="cls-22" d="M272,307a6.79,6.79,0,0,1,6.3-5.59,8.11,8.11,0,0,1,8,4S284,311.16,272,307Z"/><path class="cls-22" d="M271.89,303.56a6.86,6.86,0,0,0-4-7.42,8.16,8.16,0,0,0-8.95,1s.23,6.17,12.91,6.44Z"/><path class="cls-22" d="M272.67,291.67a4.81,4.81,0,0,1,4.37-4,5.61,5.61,0,0,1,5.66,2.75s-1.59,4-10,1.22Z"/><path class="cls-22" d="M270.67,314.14c.41-2.58,2.24-14.51.61-22.91a39.47,39.47,0,0,1,.24-17.05l1.52.4a37.36,37.36,0,0,0-.2,16.34c1.63,8.37-.07,20.13-.58,23.22Z"/><path class="cls-22" d="M270.94,289.63a4.8,4.8,0,0,0-.74-5.89,5.68,5.68,0,0,0-6.1-1.6s-1.39,4.11,6.84,7.49Z"/><path class="cls-22" d="M271.62,276.82a4.78,4.78,0,0,1,4.41-4,5.59,5.59,0,0,1,5.62,2.77s-1.59,4-10,1.19Z"/><path class="cls-23" d="M264,310.14a4.08,4.08,0,0,1,3.79-3.39,4.94,4.94,0,0,1,4.88,2.44s-1.42,3.46-8.67.95Z"/><path class="cls-23" d="M264,308a4.14,4.14,0,0,0-2.41-4.51,5,5,0,0,0-5.42.61s.13,3.73,7.83,3.9Z"/><path class="cls-23" d="M264.43,300.85a3,3,0,0,1,2.65-2.44,3.54,3.54,0,0,1,3.46,1.7s-1,2.4-6.11.74Z"/><path class="cls-23" d="M263.28,314.14c.31-2,1.26-8.78.31-13.56a24.67,24.67,0,0,1,.13-10.34l.92.24a23.56,23.56,0,0,0-.1,9.9c.91,4.84.06,11.52-.31,13.76Z"/><path class="cls-23" d="M263.38,299.6a2.9,2.9,0,0,0-.44-3.56,3.42,3.42,0,0,0-3.69-1s-.85,2.47,4.13,4.54Z"/><path class="cls-23" d="M263.89,291.29a2.89,2.89,0,0,0-.44-3.55,3.44,3.44,0,0,0-3.69-1s-.88,2.48,4.13,4.54Z"/><path class="cls-23" d="M263.79,291.84a2.91,2.91,0,0,1,2.68-2.41,3.45,3.45,0,0,1,3.42,1.69s-1,2.45-6.1.72Z"/><path class="cls-22" d="M272.7,276a4.8,4.8,0,0,0-.23-5.93,5.62,5.62,0,0,0-5.93-2.07s-1.77,3.93,6.16,8Z"/></svg>