<svg xmlns="http://www.w3.org/2000/svg" width="131.762" height="157.1" viewBox="0 0 131.762 157.1"><g transform="translate(0.359 0.495)"><path d="M647.256,463.171c-1.676-4.345,14.94-17.555,17.146-17.686s-5,14.81-5,14.81l-6.979,9.626Z" transform="translate(-552.522 -444.061)" fill="#fff" stroke="#003b5b" stroke-miterlimit="10" stroke-width="0.7"/><path d="M633.1,459.712c-2.776-12.133-22.318-6.881-24.062-5.527s12.409,10.676,12.409,10.676l1.257,3.888Z" transform="matrix(0.799, 0.602, -0.602, 0.799, -162.877, -727.335)" fill="#fff" stroke="#003b5b" stroke-miterlimit="10" stroke-width="0.7"/><path d="M610.152,548.136c-12.864-14.786-13.088-58.282,19.288-69.664" transform="translate(-585.456 -414.1)" fill="#fff" stroke="#003b5b" stroke-miterlimit="10" stroke-width="0.7"/><path d="M654.291,453.445c-13.777-.343-40.644,6.533-43.056,36.1-1.02,12.492,3.127,20.905,8.775,26.437,7.72,7.561,18.248,9.738,22.226,9.585" transform="translate(-579.428 -438.156)" fill="#fff" stroke="#003b5b" stroke-miterlimit="10" stroke-width="0.7"/><path d="M609.856,590.172a124.514,124.514,0,0,1-2.151-17.826s-3.826-18.512,1.076-36.65c4.441-16.424,12.885-23.377,12.885-23.377C614.392,483.441,638.351,453,655.333,453.8c10.135.481,21.035-.649,28.827,6.942A77.209,77.209,0,0,1,700.1,483.955v24.208s11.614,11.4,12.78,23.408-4.9,37.884-7.393,40.775-2.523,17.454-2.523,17.454l-.679,4.764H610.907Z" transform="translate(-583.007 -438.311)" fill="#ffcdd2"/><g transform="translate(24.057 34.027)"><ellipse cx="20.667" cy="20.629" rx="20.667" ry="20.629" transform="translate(1.033)" fill="#fff" stroke="#003b5b" stroke-miterlimit="10" stroke-width="0.7"/><ellipse cx="14.601" cy="14.574" rx="14.601" ry="14.574" transform="translate(11 -0.015)" fill="#003b5b"/></g><path d="M637.538,510.686c-11.022-5.5-23.28-11.462-20.118-20.456" transform="translate(-575.075 -410.817)" fill="none" stroke="#003b5b" stroke-miterlimit="10" stroke-width="0.7"/><path d="M617.694,506.215a22.466,22.466,0,0,1-3.291-8.028c-.592-3.35-.031-6.611,3.291-7.957" transform="translate(-577.103 -410.817)" fill="none" stroke="#003b5b" stroke-miterlimit="10" stroke-width="0.7"/><path d="M608.554,520.17c-2.342,2.831-2.729,7.746,1.287,14.815" transform="translate(-582.621 -388.572)" fill="none" stroke="#003b5b" stroke-miterlimit="10" stroke-width="0.7"/><path d="M621.95,538.378H602.906a7.855,7.855,0,0,1,4.638-7.908c5.441-2.75,5.546-1.072,6.484-1.485" transform="translate(-585.559 -382.123)" fill="none" stroke="#003b5b" stroke-miterlimit="10" stroke-width="0.7"/><g transform="translate(36.945 117.06)"><path d="M614.935,511.829c0,2.965,2.972,6.36,4.65,6.275,0,0-3.014,6.92-2.453,10.573s6.8,14.01,6.8,14.01-2.282-1.032-6.674.429-2.909,7.908-2.909,7.908h18.927V536.511" transform="translate(-614.111 -511.829)" fill="none" stroke="#003b5b" stroke-miterlimit="2" stroke-width="0.7"/><path d="M629.86,538.164H614.249v-4.7l3.446-3.377,7-.951" transform="translate(-614.008 -498.969)" fill="#003b5b"/></g><path d="M619.123,537.763H603.512v-4.7l3.446-3.377,6.836-.294" transform="translate(-585.075 -381.717)" fill="#003b5b"/><path d="M626.554,461.16c.323-6-17.308-7.727-17.308-7.727s.775,10.242,4.263,12.175a17.456,17.456,0,0,0,7.879,1.806Z" transform="matrix(0.799, 0.602, -0.602, 0.799, -163.444, -726.327)" fill="#ffcdd2" stroke="#003b5b" stroke-miterlimit="10" stroke-width="0.7"/><path d="M635.826,453.445c13.779-.343,40.646,6.533,43.058,36.1,1.018,12.492-3.127,20.905-8.775,26.437-7.72,7.561-18.248,9.738-22.227,9.585" transform="translate(-560.963 -438.156)" fill="none" stroke="#003b5b" stroke-miterlimit="10" stroke-width="0.7"/><g transform="translate(83.303 34.027)"><ellipse cx="20.667" cy="20.629" rx="20.667" ry="20.629" fill="#fff" stroke="#003b5b" stroke-miterlimit="10" stroke-width="0.7"/><ellipse cx="14.601" cy="14.574" rx="14.601" ry="14.574" transform="translate(10.166 -0.015)" fill="#003b5b"/></g><path d="M642.928,510.686c11.022-5.5,23.28-11.462,20.118-20.456" transform="translate(-555.663 -410.817)" fill="none" stroke="#003b5b" stroke-miterlimit="10" stroke-width="0.7"/><path d="M655.454,506.215a22.466,22.466,0,0,0,3.29-8.028c.592-3.35.033-6.611-3.29-7.957" transform="translate(-546.316 -410.817)" fill="none" stroke="#003b5b" stroke-miterlimit="10" stroke-width="0.7"/><path d="M664.462,548.723c12.864-14.786,10.8-53.987-3.2-63.7" transform="translate(-541.985 -414.686)" fill="none" stroke="#003b5b" stroke-miterlimit="10" stroke-width="0.7"/><path d="M661.819,519.547c3.257,2.557,4.42,7.821-.171,15.9" transform="translate(-541.695 -389.035)" fill="none" stroke="#003b5b" stroke-miterlimit="10" stroke-width="0.7"/><path d="M656.4,538.378h19.046a7.854,7.854,0,0,0-4.64-7.908c-5.439-2.75-5.544-1.072-6.484-1.485" transform="translate(-545.614 -382.123)" fill="none" stroke="#003b5b" stroke-miterlimit="10" stroke-width="0.7"/><path d="M663.445,511.829c0,2.965-2.97,6.36-4.65,6.275,0,0,3.014,6.92,2.455,10.573s-6.8,14.01-6.8,14.01,2.282-1.032,6.674.429,2.909,7.908,2.909,7.908H645.1V536.511" transform="translate(-554.04 -394.769)" fill="none" stroke="#003b5b" stroke-miterlimit="2" stroke-width="0.7"/><path d="M648.419,538.164h15.611v-4.7l-3.446-3.377-7-.951" transform="translate(-554.04 -381.909)" fill="#003b5b"/><path d="M659.156,537.763h15.611v-4.7l-3.445-3.377-6.836-.294" transform="translate(-546.028 -381.717)" fill="#003b5b"/><path d="M651.2,466.268c-4.207-4.293,10.716-20.477,10.716-20.477s6.377,13.4,5.034,17.149-9.014,8.8-9.014,8.8Z" transform="translate(-550.048 -443.834)" fill="#ffcdd2" stroke="#003b5b" stroke-miterlimit="10" stroke-width="0.7"/><ellipse cx="16.835" cy="13.203" rx="16.835" ry="13.203" transform="translate(58.029 48.26)" fill="#ff73f2" stroke="#003b5b" stroke-miterlimit="10" stroke-width="0.7"/><path d="M2.613,0C4.056,0,5.228,2.1,5.23,4.688S4.064,9.372,2.62,9.371.006,7.271,0,4.684,1.17,0,2.613,0Z" transform="matrix(0.468, -0.884, 0.884, 0.468, 63.733, 60.252)" fill="#003b5b"/><path d="M4.684,0C7.271.006,9.37,1.177,9.371,2.62s-2.1,2.612-4.682,2.61S0,4.056,0,2.613,2.1,0,4.684,0Z" transform="matrix(0.884, -0.468, 0.468, 0.884, 76.376, 60.009)" fill="#003b5b"/><line x2="34.951" transform="translate(56.112 156.255)" fill="none" stroke="#003b5b" stroke-miterlimit="10" stroke-width="0.7"/><path d="M0,0S3.589,2.064,6.75,2.064A11.1,11.1,0,0,0,12.643,0" transform="translate(69.099 80.843)" fill="none" stroke="#003b5b" stroke-width="0.7"/><path d="M614.537,519.639A11.87,11.87,0,0,1,601.2,529.821a9.486,9.486,0,0,1-8.16-10.653,7.6,7.6,0,0,1,8.537-6.515,6.07,6.07,0,0,1,5.223,6.817,4.862,4.862,0,0,1-5.464,4.171,3.885,3.885,0,0,1-3.342-4.363,3.112,3.112,0,0,1,3.5-2.67" transform="translate(-592.954 -394.207)" fill="none" stroke="#003b5b" stroke-miterlimit="10" stroke-width="0.7"/></g></svg>