<svg id="Layer_1" data-name="Layer 1" xmlns="http://www.w3.org/2000/svg" viewBox="0 0 400 400"><defs><style>.cls-1{fill:#ddf5f7;}.cls-1,.cls-10,.cls-11,.cls-12,.cls-13,.cls-14,.cls-15,.cls-18,.cls-19,.cls-2,.cls-20,.cls-21,.cls-23,.cls-3,.cls-4,.cls-5,.cls-6,.cls-7,.cls-8,.cls-9{fill-rule:evenodd;}.cls-2,.cls-24{fill:#e03e24;}.cls-3{fill:#c83b26;}.cls-4{fill:#d73c25;}.cls-5{fill:#c72c26;}.cls-6{fill:#fef5f3;}.cls-7{fill:#b82424;}.cls-8{fill:#dd3e25;}.cls-9{fill:#ea4823;}.cls-10{fill:#fefefe;}.cls-11{fill:#e04124;}.cls-12{fill:#cdcccd;}.cls-13,.cls-16{fill:#013a5b;}.cls-14{fill:#056196;}.cls-15{fill:#ffcdd2;}.cls-17,.cls-20{fill:#221f20;}.cls-18{fill:#fcfdfe;}.cls-19{fill:#fe71f3;}.cls-21{fill:#2e5d61;}.cls-22{fill:none;stroke:#fefefe;stroke-miterlimit:10;stroke-width:0.51px;}.cls-23{fill:#162112;}</style></defs><path class="cls-1" d="M194.47,61.33S71.39,42.79,29.07,104.19,54.92,183.56,54.47,214s-40.73,29.6-24.83,80.31,218.83,46.17,275.84-2.78-9.75-92.24-41.27-114.75S308.48,68.08,194.47,61.33Z"/><path class="cls-1" d="M106.37,353.75c35.29,0,64.06-3,64.06-6.6s-28.77-6.64-64.06-6.64-64,3-64,6.64,28.77,6.6,64,6.6Z"/><path class="cls-2" d="M170.29,335.7,161.53,347s-3.48,3.65,2.1,4.11c16.73,1.33,56.69,1.1,73.39-.23,5.58-.45,2.1-3.88,2.1-3.88l-8.76-11.28c-1.82-1.62-7.14-1.73-7.14-1.73l-17.64-68.12a3.68,3.68,0,0,0-1.9-.85,14.1,14.1,0,0,0-6.71,0,3.91,3.91,0,0,0-1.93.85L177.41,334s-5.33.11-7.12,1.73Z"/><path class="cls-3" d="M223.9,336.21c3.23,5.16-13.13,6.54-23.19,6.74-.06,0-.11,0-.17,0v0a.8.8,0,0,1-.23,0h0a.68.68,0,0,1-.22,0l0,0c-.05,0-.11,0-.2,0-10-.2-26.41-1.58-23.18-6.74,0,0-5.33,1.21-7.68,4.25s2.15,8.93,30.21,9.07h2.13c28.06-.14,32.54-6,30.22-9.07s-7.71-4.25-7.71-4.25Z"/><path class="cls-4" d="M200.31,343c-10-.17-26.84-1.5-23.58-6.74,0,0-5.33,1.21-7.68,4.25s2.26,9.07,31.26,9.07h0c29,0,33.62-6,31.27-9.07s-7.71-4.25-7.71-4.25c3.28,5.24-13.55,6.57-23.59,6.74Z"/><path class="cls-5" d="M161.08,346.69l8.73-11.25.06-.06c1.64-1.47,5.75-1.81,7.11-1.87l17.52-67.74.11-.2a4.2,4.2,0,0,1,2.22-1,16.52,16.52,0,0,1,3.48-.43,16.23,16.23,0,0,1,3.49.43,4.4,4.4,0,0,1,2.24,1l.11.2,17.52,67.74c1.36.06,5.47.4,7.09,1.87l.05.06,8.73,11.25c.34.32,3.92,4.14-2.46,4.62-8.54.71-23.11,1.08-37.56,1.14-13.92,0-27.73-.26-35.92-.91-6.4-.51-2.77-4.56-2.52-4.85ZM170.72,336,162,347.23l0,0s-2.81,3,1.73,3.35c8.19.65,22,.93,35.83.88,14.43,0,29-.43,37.47-1.11,4.48-.34,1.7-3.09,1.7-3.09l-.05-.06L229.93,336c-1.67-1.48-6.71-1.56-6.71-1.56l-.46,0-.08-.37-17.58-68a4,4,0,0,0-1.56-.63,16.4,16.4,0,0,0-3.23-.39,16.21,16.21,0,0,0-3.2.39,3.74,3.74,0,0,0-1.56.63l-17.58,68-.11.37-.42,0s-5.05.08-6.72,1.56Z"/><path class="cls-6" d="M190.28,284.25l-4,15.42c5.67,3.37,22.36,3.37,28,0l-4-15.42c-5.08,1.3-15,1.3-20.07,0Z"/><path class="cls-7" d="M163.72,350.66c-2.64,0-3.26-1-3.21-1.84a3.23,3.23,0,0,0-.14,2.32c.43,1.08,2.84,1.31,2.84,1.31h74.21s2.44-.23,2.86-1.31-.17-2.72-.14-2.32.06,1.9-4.08,1.9Z"/><path class="cls-6" d="M183.56,310l-3.66,14.45c5,6.07,35.86,6.07,40.85,0L217.09,310c-5.58,2.32-28,2.32-33.53,0Z"/><path class="cls-7" d="M195,265.85s-.09.37,1.27.45,8,0,8,0,.93.08,1.24-.43a3.68,3.68,0,0,0-1.9-.85,14.1,14.1,0,0,0-6.71,0,3.91,3.91,0,0,0-1.93.85Z"/><path class="cls-7" d="M200.34,266.33c2,0,4-.05,4-.05s.93.08,1.24-.43a3.68,3.68,0,0,0-1.9-.85,15.44,15.44,0,0,0-3.85-.4l.48.88a.75.75,0,0,1,0,.85Z"/><path class="cls-8" d="M204.34,266.28s-2,.05-4,.05l.4,18.88a42.29,42.29,0,0,0,9.61-1l-4.77-18.4c-.31.51-1.24.43-1.24.43Z"/><path class="cls-6" d="M210.35,284.25a42.29,42.29,0,0,1-9.61,1l.34,17c5.33-.06,10.57-.91,13.26-2.52Z"/><path class="cls-8" d="M214.34,299.67c-2.69,1.61-7.93,2.46-13.26,2.52l.2,9.5c6.6-.06,13-.63,15.73-1.7Z"/><path class="cls-6" d="M217,310c-2.7,1.07-9.13,1.64-15.73,1.7l.36,17.26c8.51-.14,16.73-1.64,19.11-4.54L217.09,310a.09.09,0,0,0-.08,0Z"/><path class="cls-9" d="M196.06,285.07c1.5.11,3.09.17,4.68.14l-.4-18.88c-1.11,0-2.18,0-3,0Z"/><path class="cls-10" d="M200.74,285.21c-1.59,0-3.18,0-4.68-.14l-1.16,16.87a56.79,56.79,0,0,0,6.18.25Z"/><path class="cls-9" d="M201.08,302.19a56.79,56.79,0,0,1-6.18-.25l-.68,9.6c2.26.12,4.67.17,7.06.15Z"/><path class="cls-10" d="M201.28,311.69c-2.39,0-4.8,0-7.06-.15l-1.17,17.1a78.27,78.27,0,0,0,8.59.31Z"/><path class="cls-9" d="M201.64,329l.29,12.59h0l0,1.38c-.26,0-.74,0-1.17,0h-.7c-2.41,0-5.22-.14-8-.37l1-13.94a78.27,78.27,0,0,0,8.59.31Zm.32,14h0Z"/><path class="cls-11" d="M202.07,349.53l0-1.93-.06-2.83,0-1.85c-.43,0-.85,0-1.25,0h-.4c-2.46,0-5.33-.14-8.22-.37l-.48,6.75c2.32.11,4.85.2,7.6.2h2.86Z"/><path class="cls-3" d="M192.18,341.17c-7.26-.57-14.63-1.82-15.71-4.42-1.36,3.57,7.17,5.18,15.62,5.83Z"/><path class="cls-7" d="M201.81,341.54c8.14,0,22.14-1.59,22.37-4.79,1.59,4.62-13.49,5.86-22.25,6.17Z"/><path class="cls-5" d="M201.9,341.51l-9.72-.34-.09,1.41c1.76.15,3.54.23,5.22.29h0c1,.05,1.9.08,2.78.08h.62l1.22,0-.09-.93,0-.45h.12Z"/><path class="cls-12" d="M192.12,352.45H163.21a5.14,5.14,0,0,1-2.58-.94s-1.45,1.68,4.48,2,71.17,0,71.17,0,2.7-.08,3.8-2.09a5.22,5.22,0,0,1-2.66,1h-45.3Z"/><path class="cls-9" d="M204.42,285.1c.91-.06,1.79-.14,2.61-.26l-2.95-18.54h-1.76Z"/><path class="cls-10" d="M207,284.84c-.82.12-1.7.2-2.61.26l1.9,16.75c1.16-.11,2.27-.31,3.29-.51Z"/><path class="cls-9" d="M209.61,301.34c-1,.2-2.13.4-3.29.51l1.11,9.64c1.33-.09,2.58-.2,3.74-.31Z"/><path class="cls-10" d="M211.17,311.18c-1.16.11-2.41.22-3.74.31l1.9,16.95c1.58-.23,3.09-.48,4.45-.79Z"/><path class="cls-9" d="M213.78,327.65c-1.36.31-2.87.56-4.45.79l1.44,12.61c1.73-.17,3.43-.39,5-.65Z"/><path class="cls-5" d="M215.79,340.4c-1.59.26-3.29.48-5,.65l.14,1.28c1.73-.2,3.46-.43,5.08-.71Z"/><path class="cls-11" d="M216,341.68c-1.59.28-3.32.51-5.08.68l.77,6.8c2-.14,3.77-.31,5.41-.51Z"/><path class="cls-7" d="M183.81,341.25a94.78,94.78,0,0,0,33,0,19.32,19.32,0,0,0,5.44-1.7c1.22-.68,1.87-1.47,1.67-2.41a1.82,1.82,0,0,0-.34-.82l-.34-.57.71.17s5.47,1.25,7.88,4.4a3,3,0,0,1,.54,1.13,3.22,3.22,0,0,1-1.39,3.09A16.07,16.07,0,0,1,225,347.4c-4.88,1.39-12.59,2.38-24.3,2.41H200c-11.68,0-19.39-1-24.26-2.41a16.31,16.31,0,0,1-6.1-2.86,3.25,3.25,0,0,1-1.36-3.09,2.69,2.69,0,0,1,.54-1.13c2.41-3.15,7.85-4.4,7.85-4.4l.74-.17-.37.57a2.92,2.92,0,0,0-.34.82c-.2.94.45,1.73,1.67,2.41a19.67,19.67,0,0,0,5.47,1.7Zm16.5,2a104.79,104.79,0,0,1-16.64-1.45A21.43,21.43,0,0,1,178,340c-1.41-.79-2.18-1.75-1.95-2.94a2.26,2.26,0,0,1,.11-.43c-1.47.43-5,1.67-6.86,4a2.22,2.22,0,0,0-.42.91,2.77,2.77,0,0,0,1.19,2.6,14.68,14.68,0,0,0,5.84,2.72c4.87,1.39,12.61,2.41,24.4,2.41h0c11.79,0,19.53-1,24.41-2.41a14.65,14.65,0,0,0,5.81-2.72,2.8,2.8,0,0,0,1.22-2.6,2.45,2.45,0,0,0-.46-.91c-1.78-2.33-5.38-3.57-6.86-4a1.8,1.8,0,0,1,.14.43c.23,1.19-.53,2.15-2,2.94a20.7,20.7,0,0,1-5.64,1.79,105.3,105.3,0,0,1-16.64,1.45Z"/><path class="cls-13" d="M167.88,202.07c11.6,0,21.09-16.61,21.09-37s-9.49-37-21.09-37-21.11,16.61-21.11,37,9.49,37,21.11,37Z"/><path class="cls-14" d="M159.21,131.4c-7.31,5.79-12.44,18.71-12.44,33.71,0,12.73,3.68,23.95,9.27,30.58,7.34-5.78,12.44-18.71,12.44-33.7,0-12.73-3.69-24-9.27-30.59Z"/><path class="cls-13" d="M51.63,202.07c11.6,0,21.09-16.61,21.09-37s-9.49-37-21.09-37-21.11,16.61-21.11,37,9.49,37,21.11,37Z"/><path class="cls-14" d="M60.28,131.4c7.34,5.79,12.44,18.71,12.44,33.71,0,12.73-3.68,23.95-9.26,30.58C56.14,189.91,51,177,51,162c0-12.73,3.66-24,9.24-30.59Z"/><path class="cls-15" d="M73.29,190.53s-2,1.08-5.19,3.12a13.37,13.37,0,0,1,2.58,3.55s-22.5,11.28-36.88,34.92a26.87,26.87,0,0,1-2.91,4.14c-4.63,8.5-7,14.6-7.4,16.64-.71,3.31,1.92,6.74,7.2,6.74s10.15-7.11,13.8-9.69a51.34,51.34,0,0,1,4.57-3.06,3,3,0,0,0-.06.31,11.45,11.45,0,0,1,5-2.67S48.86,263,57.45,290.91c.36,1.22.65,2.27.9,3.26,2.19,4.65,3.32,7,4.2,12.36a117,117,0,0,0,11.34,32.91c5.78,10.91,10.46,9.58,14.62,7.48s2.53-8.59,4.06-12.64,8.81-19.76,8.81-19.76l7.32-.2,7.28.2s7.31,15.71,8.85,19.76-.12,10.54,4,12.64,8.81,3.43,14.6-7.48,10-24.07,11.36-32.91c.94-5.78,2.21-8.08,4.74-13.61,1-3.83,2.78-11.05,4.45-21.26,2.52-15.7-.12-25.82-.12-25.82a7,7,0,0,1,4.51,1.64c0-.4-.08-.59-.08-.59s.9.48,4.56,3.06,8.5,9.69,13.78,9.69,7.91-3.43,7.2-6.74S187.5,235.72,175.11,218c-.11-.17-.23-.31-.34-.48a314.77,314.77,0,0,0-26.7-20.7c-.2.26,2.13-2.57,2.13-2.57-3.69-2.47-6.13-3.75-6.13-3.75-9.47-2.55-27.64-.37-35.37.77-7.77-1.14-25.91-3.32-35.41-.77Z"/><path class="cls-16" d="M73.46,191c-1,.56-18.85,10.23-30.81,27.32a195.08,195.08,0,0,0-11.71,18.91C26.58,245.3,24.39,251,24,253a5,5,0,0,0-.11,1,4.64,4.64,0,0,0,1.19,3,6.42,6.42,0,0,0,3.54,1.92,9.08,9.08,0,0,0,2.1.2c3.46,0,6.83-3.31,9.75-6.21a34,34,0,0,1,3.74-3.37c3.69-2.61,4.65-3.12,4.65-3.12l.85-.42-.14.93c0,.06-2.72,17.07,3.51,33.39,2.61,6.81,4.51,10.92,6,14,2.07,4.45,3.18,6.86,4,12.13a104.62,104.62,0,0,0,4.31,16.47,117.47,117.47,0,0,0,7,16.27c2.81,5.33,5.33,7.65,7.62,8.36s4.34-.08,6.33-1.1c2.43-1.22,2.69-4.28,2.94-7.34a19,19,0,0,1,.86-5h0c1.53-4.08,8.81-19.76,8.84-19.82l.14-.25.31,0,7.29-.17h0L116,314l.31,0,.11.25c0,.06,7.32,15.74,8.85,19.82a18.56,18.56,0,0,1,.85,5c.25,3.06.51,6.12,3,7.34,2,1,4.08,1.84,6.32,1.1s4.79-3,7.59-8.36a117.53,117.53,0,0,0,7-16.27,104.48,104.48,0,0,0,4.3-16.47c.85-5.27,2-7.68,4-12.13,1.44-3.09,3.34-7.2,5.95-14,6.24-16.32,3.55-33.33,3.52-33.39l-.14-.93.87.42s.94.51,4.62,3.12a29.32,29.32,0,0,1,3.75,3.37c2.92,2.9,6.32,6.21,9.75,6.21a9.19,9.19,0,0,0,2.1-.2,6.49,6.49,0,0,0,3.54-1.92,4.7,4.7,0,0,0,1.19-3,3.77,3.77,0,0,0-.11-1c-.43-2-2.61-7.71-7-15.79a187.48,187.48,0,0,0-11.71-18.91c-12-17.09-29.79-26.76-30.81-27.32A54.2,54.2,0,0,0,130,189.85a189.45,189.45,0,0,0-21.21,2h-.14a189.24,189.24,0,0,0-21.2-2,54.36,54.36,0,0,0-14,1.14ZM41.83,217.75C54.3,200,73,190.11,73.06,190.08l.09,0c3.8-1,9-1.3,14.29-1.19a184.24,184.24,0,0,1,21.26,2,183.35,183.35,0,0,1,21.26-2c5.3-.11,10.46.17,14.25,1.19l.12,0s18.76,9.89,31.21,27.67a192.11,192.11,0,0,1,11.76,19c4.42,8.19,6.63,14,7.09,16a6.06,6.06,0,0,1,.11,1.19,5.51,5.51,0,0,1-1.45,3.72A7.29,7.29,0,0,1,189,259.9a9.88,9.88,0,0,1-2.32.25c-3.86,0-7.37-3.48-10.43-6.52a42,42,0,0,0-3.63-3.29c-1.87-1.3-3-2-3.66-2.49.48,4,1.7,18.68-3.71,32.85-2.61,6.81-4.54,10.95-6,14.06-2,4.37-3.12,6.75-3.94,11.85A102.68,102.68,0,0,1,151,323.25a117.26,117.26,0,0,1-7,16.41c-3,5.62-5.7,8.08-8.22,8.88s-4.88-.09-7.06-1.16c-3-1.48-3.23-4.82-3.51-8.17a18.48,18.48,0,0,0-.8-4.76c-1.39-3.71-7.68-17.32-8.67-19.45l-7-.17-7,.17c-1,2.13-7.28,15.74-8.67,19.45h0a18.49,18.49,0,0,0-.79,4.76c-.29,3.35-.57,6.69-3.52,8.17-2.15,1.07-4.48,2-7.06,1.16s-5.24-3.26-8.19-8.88a117.42,117.42,0,0,1-7.06-16.41A105.74,105.74,0,0,1,62,306.61c-.82-5.1-1.93-7.48-3.94-11.85-1.45-3.11-3.38-7.25-6-14.06-5.42-14.17-4.2-28.85-3.72-32.85-.65.45-1.78,1.19-3.62,2.49a32.81,32.81,0,0,0-3.63,3.29c-3.06,3-6.61,6.52-10.46,6.52a9.89,9.89,0,0,1-2.3-.25,7.28,7.28,0,0,1-4.08-2.21A5.66,5.66,0,0,1,22.86,254a6.13,6.13,0,0,1,.14-1.19c.43-2,2.67-7.85,7.06-16a192.41,192.41,0,0,1,11.77-19Z"/><path class="cls-16" d="M48.89,246.4s12.86-4.13,16.41-8.19a18,18,0,0,0,4.25-7.76l1,.19a19.56,19.56,0,0,1-4.48,8.22c-3.74,4.28-16.83,8.48-16.86,8.48Z"/><path class="cls-13" d="M40.32,253.72c-1.78-9.95-11.14-14.23-11.14-14.23-3.51,6.8-5.32,11.62-5.69,13.41-.71,3.31,1.92,6.74,7.2,6.74,3.46,0,6.74-3.06,9.63-5.92Z"/><path class="cls-16" d="M39.79,253.55c-1.62-8.28-8.59-12.45-10.38-13.41C28,243,26.83,245.44,26,247.45A35.07,35.07,0,0,0,24,253a5,5,0,0,0-.11,1,4.64,4.64,0,0,0,1.19,3,6.42,6.42,0,0,0,3.54,1.92,9.08,9.08,0,0,0,2.1.2,8.61,8.61,0,0,0,4.76-1.78,34.14,34.14,0,0,0,4.34-3.8ZM29.38,239s9.58,4.37,11.43,14.6l0,.26-.2.2A37.24,37.24,0,0,1,36,258.17a9.69,9.69,0,0,1-5.33,2,9.89,9.89,0,0,1-2.3-.25,7.28,7.28,0,0,1-4.08-2.21A5.66,5.66,0,0,1,22.86,254a6.13,6.13,0,0,1,.14-1.19,35.25,35.25,0,0,1,2.05-5.72c.9-2.13,2.12-4.77,3.68-7.8l.23-.42Z"/><path class="cls-13" d="M92.28,335.19c-4.14.9-12.53,2.21-20.41.19.66,1.37,1.34,2.73,2,4.06,5.78,10.91,10.46,9.58,14.62,7.48,3.86-1.93,2.72-7.68,3.77-11.73Z"/><path class="cls-16" d="M91.63,335.84a58,58,0,0,1-10.2,1.1,39.7,39.7,0,0,1-8.68-.85c.2.4.37.77.57,1.14.31.62.65,1.3,1,2,2.81,5.33,5.33,7.65,7.62,8.36s4.34-.08,6.33-1.1c2.43-1.22,2.69-4.28,2.94-7.34a31.46,31.46,0,0,1,.4-3.29Zm-10.2.08a55.05,55.05,0,0,0,10.74-1.22l.79-.19-.19.79a22.48,22.48,0,0,0-.54,3.91c-.29,3.35-.57,6.69-3.52,8.17-2.15,1.07-4.48,2-7.06,1.16s-5.24-3.26-8.19-8.88c-.34-.62-.68-1.3-1-2s-.68-1.42-1-2.1l-.45-1,1,.25a35.93,35.93,0,0,0,9.44,1.05Z"/><path class="cls-16" d="M64.13,298.73s9,11.26,22.12,13.21l-.15,1c-13.49-2-22.7-13.55-22.73-13.57Z"/><path class="cls-16" d="M168.17,247.34s-13.1-4.2-16.84-8.48a19.14,19.14,0,0,1-4.48-8.22l1-.19a18,18,0,0,0,4.26,7.76c3.57,4.06,16.38,8.19,16.41,8.19Z"/><path class="cls-13" d="M177,253.72c1.81-9.95,11.14-14.23,11.14-14.23,3.51,6.8,5.33,11.62,5.7,13.41.71,3.31-1.93,6.74-7.2,6.74-3.46,0-6.75-3.06-9.64-5.92Z"/><path class="cls-16" d="M176.56,253.63C178.4,243.4,188,239,188,239l.43-.19.22.42c1.56,3,2.78,5.67,3.69,7.8a40.74,40.74,0,0,1,2.07,5.72,6.06,6.06,0,0,1,.11,1.19,5.51,5.51,0,0,1-1.45,3.72A7.29,7.29,0,0,1,189,259.9a9.88,9.88,0,0,1-2.32.25,9.49,9.49,0,0,1-5.3-2,36.88,36.88,0,0,1-4.68-4.08l-.2-.2ZM188,240.14c-1.81,1-8.79,5.13-10.4,13.41a34.29,34.29,0,0,0,4.36,3.8,8.45,8.45,0,0,0,4.74,1.78,9.19,9.19,0,0,0,2.1-.2,6.49,6.49,0,0,0,3.54-1.92,4.7,4.7,0,0,0,1.19-3,3.77,3.77,0,0,0-.11-1,35.45,35.45,0,0,0-2-5.56c-.85-2-2-4.48-3.43-7.31Z"/><path class="cls-13" d="M125.08,335.19c4.14.9,12.53,2.21,20.44.19-.65,1.37-1.33,2.73-2,4.06-5.79,10.91-10.46,9.58-14.6,7.48-3.88-1.93-2.75-7.68-3.8-11.73Z"/><path class="cls-16" d="M125.19,334.7a55.07,55.07,0,0,0,10.75,1.22,35.89,35.89,0,0,0,9.44-1.05l1.05-.25-.46,1c-.34.68-.68,1.36-1,2.1s-.71,1.36-1,2c-3,5.62-5.7,8.08-8.22,8.88s-4.88-.09-7.06-1.16c-3-1.48-3.23-4.82-3.51-8.17a24.58,24.58,0,0,0-.54-3.91l-.2-.79Zm10.75,2.24a57.79,57.79,0,0,1-10.18-1.1,31.51,31.51,0,0,1,.37,3.29c.25,3.06.51,6.12,3,7.34,2,1,4.08,1.84,6.32,1.1s4.79-3,7.59-8.36c.37-.68.71-1.33,1-2,.2-.37.37-.74.57-1.14a39.5,39.5,0,0,1-8.67.85Z"/><path class="cls-16" d="M154,299.36s-9.24,11.56-22.7,13.57l-.17-1c13.09-1.95,22.08-13.18,22.11-13.21Z"/><path class="cls-16" d="M103,199.38s4.53,6.43,12.36.48l.45.85c-8.45,6.41-13.43-.65-13.43-.65Z"/><path class="cls-16" d="M70.12,199.43s-3.32,5.45,3.14,11.91a44.18,44.18,0,0,0,14,9.47l-.26,1a46.12,46.12,0,0,1-14.26-9.66c-7.06-7.06-3.31-13.21-3.31-13.24Z"/><path class="cls-16" d="M66.54,200.46S61.1,206.52,68,217.8l-.65.6C60,206.41,66,199.75,66,199.75Z"/><path class="cls-16" d="M150.88,193.57s-1.39,5.86-11.26,11-12.27,4.34-12.3,4.34l.2-1s2.24.74,11.79-4.28,10.77-10.38,10.77-10.38Z"/><path class="cls-16" d="M146.14,199.75s2,6.88-4.28,12.75a49.58,49.58,0,0,1-13.77,8.71l-.26-1a47.62,47.62,0,0,0,13.55-8.53c5.75-5.42,4-11.65,4-11.65Z"/><path class="cls-16" d="M148.64,199.32s5.47,8.85-.17,17.86l-.63-.6c5.25-8.41.14-16.64.14-16.66Z"/><path class="cls-15" d="M77.09,149.52H78a22.88,22.88,0,0,1,21.43,17.29c.08.31.16.65.22,1a22.32,22.32,0,0,1,9.3-2,21.86,21.86,0,0,1,10.46,2.58A22.87,22.87,0,0,1,142,149.52h.74a23.16,23.16,0,0,1,5.84,1,30.36,30.36,0,0,0-2.92-7.4,19.4,19.4,0,0,1,2.44-1.76c1.59-1,8.9-7.51,7.2-13.69a119.16,119.16,0,0,0-4.76-13.4s-2.36,2.89-7,8.9a28.11,28.11,0,0,0-5.36,13.32s-3.15-2.1-7-4.48l-.09.14s-.85-1-9.58-3.26-19.3,1.5-19.3,1.5l-8.48,1.51a11.6,11.6,0,0,0-.7-3c-.74-2.92-5.82-7.68-7.8-10.6S83.38,114,83.38,114s-4,2.92-5.07,9.58c-.91,5.84,3.31,9.81,4.36,10.68a36.75,36.75,0,0,0,5,0,51.19,51.19,0,0,0-5.3,5.61,39.3,39.3,0,0,0-5.33,9.64Z"/><path class="cls-16" d="M75.9,140.19a38.52,38.52,0,0,0-9,11.25,22.54,22.54,0,0,1,4.29-1.61,22.83,22.83,0,0,1,6.12-.82l.37,0H78a23.36,23.36,0,0,1,21.91,17.64v0c0,.15.08.29.11.4a20.93,20.93,0,0,1,4-1.25,23.28,23.28,0,0,1,4.93-.51,23,23,0,0,1,5.61.68,19.64,19.64,0,0,1,4.48,1.65A23.41,23.41,0,0,1,142,149l.37,0h.37a22,22,0,0,1,3,.29,16.54,16.54,0,0,1,2.09.45,27.44,27.44,0,0,0-2.66-6.43L145,143l.31-.29a24.93,24.93,0,0,1,2.5-1.81,21.73,21.73,0,0,0,6-6.8,8.84,8.84,0,0,0,1-6.35A119,119,0,0,0,150.28,115c-.94.6-3.2,2-7.77,4.74-6.18,3.68-11,12.64-11.08,12.67l-.34.65-.48-.57s-.74-.91-9.3-3.12-19,1.48-19,1.48l-.57.2-.08-.6s-.29-1.87-3.4-6.92c-2.84-4.59-13-8.3-14.77-8.9a14.73,14.73,0,0,0-4.68,9.07c-1,6.38,4.39,10.41,4.42,10.41l.85.65L83,135s-.73.08-7.11,5.24ZM65.27,152.44a40.3,40.3,0,0,1,10-13A67.16,67.16,0,0,1,82,134.38c-1.44-1.33-5.07-5.27-4.19-10.86,1-6.86,5.24-9.89,5.24-9.89l.23-.14.22.08S95.8,117.66,99.09,123a32,32,0,0,1,3.37,6.74c2.24-.71,11.37-3.34,19.11-1.33,5.92,1.53,8.33,2.55,9.26,3.06,1.08-1.9,5.62-9.27,11.17-12.58,6.24-3.72,8.22-5,8.22-5l.51-.34.23.57a125.64,125.64,0,0,1,4.79,13.46,9.65,9.65,0,0,1-1.1,7.06,22.37,22.37,0,0,1-6.33,7.17,23.59,23.59,0,0,0-2.07,1.5,30,30,0,0,1,2.78,7.15l.23.85-.85-.26a19.79,19.79,0,0,0-2.84-.65,19.26,19.26,0,0,0-2.89-.28H142a22.37,22.37,0,0,0-22,18.48l-.11.68-.63-.34a18.59,18.59,0,0,0-4.84-1.87,21.68,21.68,0,0,0-5.36-.65,23.41,23.41,0,0,0-4.73.48,21.06,21.06,0,0,0-4.34,1.44l-.57.26-.14-.6c0-.17-.06-.31-.08-.51s-.09-.34-.15-.48h0A22.4,22.4,0,0,0,78,150h-.71a22.23,22.23,0,0,0-5.87.76A23.08,23.08,0,0,0,66,153.06Z"/><path class="cls-15" d="M85.14,118.25c-2-2.92-1.76-4.22-1.76-4.22s-4,2.92-5.07,9.58c-.91,5.84,3.31,9.81,4.36,10.68a24.82,24.82,0,0,0,8.56-.68c3.41-1.21,2.44-1.87,1.71-4.76s-5.82-7.68-7.8-10.6Z"/><path class="cls-17" d="M84.74,118.53A12,12,0,0,1,83,115a15.12,15.12,0,0,0-4.22,8.64,10.06,10.06,0,0,0,.65,5.39,13.65,13.65,0,0,0,3.43,4.76,34.08,34.08,0,0,0,4.65,0,14.62,14.62,0,0,0,3.54-.62h0c2.36-.85,2.21-1.36,1.73-2.92L92.45,129c-.45-1.76-2.69-4.37-4.76-6.75-1.13-1.36-2.24-2.64-3-3.69Zm-.87-4.42s-.18,1.11,1.7,3.86c.68,1,1.75,2.26,2.89,3.6,2.12,2.46,4.45,5.16,5,7.14.11.45.25.88.37,1.25.68,2.21.9,2.95-2.39,4.14h0a15.81,15.81,0,0,1-3.79.68,37.28,37.28,0,0,1-5,0l-.29-.12a13.75,13.75,0,0,1-3.82-5.24,10.71,10.71,0,0,1-.71-5.9c1-6.86,5.24-9.89,5.24-9.89l1-.71Z"/><path class="cls-15" d="M143.48,123.13a28.11,28.11,0,0,0-5.36,13.32c3.09,1.67,7.51,6.63,7.51,6.63a19.4,19.4,0,0,1,2.44-1.76c1.59-1,8.9-7.51,7.2-13.69a119.16,119.16,0,0,0-4.76-13.4s-2.36,2.89-7,8.9Z"/><path class="cls-17" d="M143.85,123.44a27.4,27.4,0,0,0-5.19,12.72,38.66,38.66,0,0,1,7,6.24c.43-.31,1.13-.85,2.13-1.5a21.73,21.73,0,0,0,6-6.8,8.84,8.84,0,0,0,1-6.35,117,117,0,0,0-4.42-12.56c-.94,1.13-3.07,3.85-6.52,8.25Zm-6.21,12.95a28.53,28.53,0,0,1,5.44-13.58c4.62-5.92,7-8.9,7-8.9l.51-.65.34.77a125.64,125.64,0,0,1,4.79,13.46,9.65,9.65,0,0,1-1.1,7.06,22.37,22.37,0,0,1-6.33,7.17,22.47,22.47,0,0,0-2.38,1.76l-.37.31-.31-.37s-4.36-4.9-7.37-6.55l-.31-.14Z"/><path class="cls-16" d="M67.59,193.57s1.39,5.86,11.23,11,12.3,4.34,12.3,4.34l-.17-1s-2.24.74-11.79-4.28-10.77-10.38-10.77-10.38Z"/><path class="cls-18" d="M77.29,195.27a22.88,22.88,0,1,0-22.88-22.88,22.94,22.94,0,0,0,22.88,22.88Z"/><path class="cls-16" d="M77.29,149a23.42,23.42,0,1,1-16.53,6.86A23.32,23.32,0,0,1,77.29,149Zm15.82,7.56a22.4,22.4,0,1,0,6.54,15.82,22.3,22.3,0,0,0-6.54-15.82Z"/><path class="cls-13" d="M78,149.52a22.88,22.88,0,0,1,21.43,17.29A17.31,17.31,0,1,1,78,149.52Z"/><path class="cls-18" d="M142,195.27a22.88,22.88,0,1,0-22.87-22.88A22.94,22.94,0,0,0,142,195.27Z"/><path class="cls-16" d="M142,149a23.42,23.42,0,1,1-16.52,6.86A23.33,23.33,0,0,1,142,149Zm15.82,7.56a22.38,22.38,0,1,0,6.55,15.82,22.29,22.29,0,0,0-6.55-15.82Z"/><path class="cls-13" d="M142.71,149.52a22.87,22.87,0,0,1,21.43,17.29,17.31,17.31,0,1,1-21.43-17.29Z"/><path class="cls-19" d="M109,194.13c10,0,18.17-6.35,18.17-14.14S119,165.82,109,165.82s-18.2,6.37-18.2,14.17S99,194.13,109,194.13Z"/><path class="cls-16" d="M109,165.33a21.38,21.38,0,0,1,13.15,4.26,12.54,12.54,0,0,1,0,20.8,22.52,22.52,0,0,1-26.33,0,12.54,12.54,0,0,1,0-20.8A21.41,21.41,0,0,1,109,165.33Zm12.53,5a21.45,21.45,0,0,0-25.09,0,11.57,11.57,0,0,0,0,19.22,21.45,21.45,0,0,0,25.09,0,11.53,11.53,0,0,0,0-19.22Z"/><path class="cls-20" d="M115.78,176.28c2.44-1.59,5-1.93,5.79-.77s-.6,3.4-3,5-5,1.93-5.78.76.56-3.4,3-5Z"/><path class="cls-20" d="M103.93,176.28c-2.41-1.59-5-1.93-5.75-.77s.57,3.4,3,5,5,1.93,5.79.76-.6-3.4-3-5Z"/><path class="cls-17" d="M61.13,299.21s-8.79,16.16-24.29,8.39c-6.44-3.23-8.17-8.5-7.2-13.26a14,14,0,0,1,2.18-5.1,13.67,13.67,0,0,1,3.94-3.83,9.56,9.56,0,0,1,8.5-1c3.58,1.33,5.53,3.54,6.38,5.92a9.38,9.38,0,0,1,.34,4.6,10.43,10.43,0,0,1-1.64,4,6.89,6.89,0,0,1-4.11,3A4.5,4.5,0,0,1,40.78,300a6.53,6.53,0,0,1-1.16-2.7,5.65,5.65,0,0,1,.19-2.92c.69-1.9,2.53-3.4,5.93-3.51l.06.57c-3,.11-4.63,1.44-5.22,3.09a5.44,5.44,0,0,0-.2,2.69,6.34,6.34,0,0,0,1.08,2.49A3.64,3.64,0,0,0,45,301.34a6,6,0,0,0,3.6-2.64,9.51,9.51,0,0,0,1.56-3.88,8.53,8.53,0,0,0-.31-4.36c-.8-2.24-2.64-4.29-6-5.56a8.53,8.53,0,0,0-7.65,1,13.17,13.17,0,0,0-3.74,3.63,13.72,13.72,0,0,0-2.13,4.93c-.9,4.57.74,9.61,6.89,12.7C52,314.49,60.39,299,60.42,299Z"/><path class="cls-13" d="M60.05,131.23a53.27,53.27,0,0,1,101-1.13,13.14,13.14,0,0,1,6.8-2l.88,0a61.15,61.15,0,0,0-116,0,14.2,14.2,0,0,1,7.28,3Z"/><path class="cls-16" d="M169,198s-12.45,16-41.27,14.2a9.65,9.65,0,0,1-6.1,2.07c-4.68,0-8.45-3-8.45-6.75s3.77-6.75,8.45-6.75a9,9,0,0,1,7.4,3.49c24,1.31,33.67-11.17,33.73-11.22Z"/><path class="cls-21" d="M37.15,106.4h0a.69.69,0,0,1,.68.68V114h4.45a.64.64,0,0,1,.65.65h0a.66.66,0,0,1-.65.68H37.83v6.92a.66.66,0,0,1-.68.65h0a.64.64,0,0,1-.65-.65v-6.92H32a.66.66,0,0,1-.65-.68h0A.64.64,0,0,1,32,114H36.5v-6.92a.66.66,0,0,1,.65-.68Z"/><path class="cls-21" d="M53.76,91.07h0a.47.47,0,0,1,.48.48v5h3.23a.48.48,0,0,1,.49.48h0a.46.46,0,0,1-.49.48H54.24v5a.46.46,0,0,1-.48.48h0a.48.48,0,0,1-.48-.48v-5H50.05a.47.47,0,0,1-.48-.48h0a.49.49,0,0,1,.48-.48h3.23v-5a.49.49,0,0,1,.48-.48Z"/><path class="cls-21" d="M34.4,78.51h0a.78.78,0,0,1,.79.76v8h5.13a.79.79,0,0,1,.77.79h0a.78.78,0,0,1-.77.77H35.19v8a.78.78,0,0,1-.79.77h0a.78.78,0,0,1-.77-.77v-8H28.5a.78.78,0,0,1-.76-.77h0a.79.79,0,0,1,.76-.79h5.13v-8a.78.78,0,0,1,.77-.76Z"/><path class="cls-21" d="M25.84,99.4h0a.43.43,0,0,1,.42.43v4.36h2.81a.39.39,0,0,1,.4.4h0a.39.39,0,0,1-.4.42H26.26v4.37a.4.4,0,0,1-.42.39h0a.41.41,0,0,1-.43-.39V105h-2.8a.42.42,0,0,1-.43-.42h0a.41.41,0,0,1,.43-.4h2.8V99.83a.44.44,0,0,1,.43-.43Z"/><path class="cls-21" d="M53.31,71.37h0a.51.51,0,0,1,.51.51V77h3.31a.51.51,0,0,1,.51.51h0a.5.5,0,0,1-.51.49H53.82v5.18a.51.51,0,0,1-.51.49h0a.5.5,0,0,1-.48-.49V78H49.48a.5.5,0,0,1-.48-.49h0a.51.51,0,0,1,.48-.51h3.35V71.88a.49.49,0,0,1,.48-.51Z"/><path class="cls-21" d="M20.48,85.91h0a.27.27,0,0,1,.29.28v2.89h1.87a.28.28,0,0,1,.28.29h0a.26.26,0,0,1-.28.28H20.77v2.89a.27.27,0,0,1-.29.28h0a.26.26,0,0,1-.25-.28V89.65H18.36a.27.27,0,0,1-.29-.28h0a.29.29,0,0,1,.29-.29h1.87V86.19a.26.26,0,0,1,.25-.28Z"/><path class="cls-21" d="M25.07,64.48h0a.48.48,0,0,1,.49.51v5.16H28.9a.48.48,0,0,1,.48.51h0a.48.48,0,0,1-.48.48H25.56v5.19a.48.48,0,0,1-.49.48h0a.51.51,0,0,1-.51-.48V71.14H21.25a.5.5,0,0,1-.51-.48h0a.5.5,0,0,1,.51-.51h3.31V65a.51.51,0,0,1,.51-.51Z"/><path class="cls-21" d="M6.17,93.28h0c.42,0,.76.25.76.56v6h5.13a.71.71,0,0,1,.77.59h0c0,.31-.34.57-.77.57H6.93v6c0,.34-.34.59-.76.59h0c-.43,0-.77-.25-.77-.59v-6H.24c-.42,0-.76-.26-.76-.57h0a.7.7,0,0,1,.76-.59H5.4v-6c0-.31.34-.56.77-.56Z"/><path class="cls-14" d="M217.21,73.8a21.23,21.23,0,0,1,6.37.14l1.51-3.28a2.49,2.49,0,0,1,3.31-1.25l4.48,2a2.49,2.49,0,0,1,1.22,3.32l-1.5,3.29a20.06,20.06,0,0,1,4.31,4.73l3.4-1.13a2.49,2.49,0,0,1,3.17,1.58L245,87.89a2.48,2.48,0,0,1-1.58,3.18l-3.38,1.13a20.21,20.21,0,0,1-.54,6.41l3.15,1.67a2.55,2.55,0,0,1,1,3.43L241.39,108a2.53,2.53,0,0,1-3.41,1l-3.11-1.67a19.07,19.07,0,0,1-2.87,2.57l1.33,3.29a2.55,2.55,0,0,1-1.38,3.29l-4.54,1.84a2.54,2.54,0,0,1-3.29-1.39l-1.33-3.26a19.25,19.25,0,0,1-6.43-.14l-1.48,3.23a2.54,2.54,0,0,1-3.34,1.25l-4.45-2a2.52,2.52,0,0,1-1.22-3.34l1.47-3.24a19.66,19.66,0,0,1-4.28-4.79l-3.4,1.14a2.51,2.51,0,0,1-3.18-1.56l-1.55-4.65a2.5,2.5,0,0,1,1.58-3.2l3.4-1.14a20.39,20.39,0,0,1,.54-6.38l-3.17-1.7a2.52,2.52,0,0,1-1-3.4l2.32-4.31a2.5,2.5,0,0,1,3.4-1l3.21,1.7A19.18,19.18,0,0,1,208,77.57l-1.39-3.34A2.56,2.56,0,0,1,208,70.94l4.54-1.84a2.48,2.48,0,0,1,3.26,1.36ZM220,80.44a13.29,13.29,0,1,1-13.29,13.29A13.29,13.29,0,0,1,220,80.44Z"/><path class="cls-14" d="M252,46.11A19.57,19.57,0,0,1,258.28,45l.82-3.52a2.52,2.52,0,0,1,3-1.9l4.79,1.14a2.52,2.52,0,0,1,1.87,3L268,47.19A20.31,20.31,0,0,1,273.11,51l3.09-1.81a2.54,2.54,0,0,1,3.45.94l2.44,4.22a2.54,2.54,0,0,1-.91,3.46l-3.09,1.78a20,20,0,0,1,.77,6.38l3.4,1a2.52,2.52,0,0,1,1.67,3.12l-1.41,4.7a2.53,2.53,0,0,1-3.15,1.68l-3.37-1a19.75,19.75,0,0,1-2.3,3.12l2,2.94A2.55,2.55,0,0,1,275,85l-4.09,2.72a2.5,2.5,0,0,1-3.48-.71l-2-2.92a19.69,19.69,0,0,1-6.35,1.14l-.79,3.46a2.54,2.54,0,0,1-3,1.87l-4.77-1.11a2.53,2.53,0,0,1-1.9-3l.83-3.46a19.08,19.08,0,0,1-5.16-3.83l-3.09,1.79a2.5,2.5,0,0,1-3.43-.91l-2.47-4.25a2.51,2.51,0,0,1,.94-3.43l3.09-1.79a19.94,19.94,0,0,1-.71-6.35l-3.46-1a2.53,2.53,0,0,1-1.7-3.14l1.42-4.68a2.53,2.53,0,0,1,3.14-1.7l3.46,1.05a20.89,20.89,0,0,1,2.27-3.06l-2-3a2.5,2.5,0,0,1,.7-3.48l4.06-2.72a2.55,2.55,0,0,1,3.51.68ZM256,52a13.29,13.29,0,1,1-10.37,15.68A13.28,13.28,0,0,1,256,52Z"/><path class="cls-16" d="M52,194.28c0,.17-1.61,55.27,51.48,84.16,26.39,14.34,45.92,27.27,58.76,38.63C175.51,328.81,181.72,339,181,347.29a9.68,9.68,0,0,1-.71,2.86c-2,4.6-7.63,7.46-14.86,9a87.23,87.23,0,0,1-23.86,1.08c-8-.65-15.45-2.19-20.16-4.17-2.72-1.16-4.25-2.47-4.79-3.8a3.45,3.45,0,0,1,.8-3.68,12.7,12.7,0,0,1,4.36-3c.4-.2.79-.37,1.22-.54a5.41,5.41,0,0,1,1.7-2.38c3.09-2.69,10.43-4.79,23.53-4.87,14.23-.12,22.33,1.67,26,4.11a5,5,0,0,1,2.52,3.4,4.49,4.49,0,0,1-1.33,3.6c-2.15,2.46-6.8,4.62-12.67,5.58a31.58,31.58,0,0,1-11.25-.31c-2.41.31-5.08.57-7.94.71-8.36.48-15.22-1.7-18.54-4.59a5.84,5.84,0,0,1-2.21-3.77v-.31a5.3,5.3,0,0,0-.65.28,11.21,11.21,0,0,0-4,2.75,2.49,2.49,0,0,0-.62,2.66c.45,1.11,1.78,2.21,4.25,3.23,4.59,2,11.9,3.46,19.84,4.09a86.22,86.22,0,0,0,23.56-1c6.94-1.48,12.36-4.14,14.17-8.39a8.17,8.17,0,0,0,.62-2.53c.66-8.05-5.44-17.88-18.45-29.39-12.78-11.34-32.23-24.24-58.54-38.55-53.63-29.17-52-84.87-52-85Zm72.34,150.2a59.43,59.43,0,0,1,23.36-2.38c7,.14,10.83.82,12.53,1.73a2.54,2.54,0,0,1,1.08,1,12,12,0,0,1,3.45,1.71c1.08.79,1.42,1.67,1.11,2.55a4.41,4.41,0,0,1-2.41,2.15,32.67,32.67,0,0,1-8.62,2.44,29.84,29.84,0,0,0,7.77-.2c5.64-.93,10.09-2.95,12.1-5.24a3.52,3.52,0,0,0,1.08-2.81,4.05,4.05,0,0,0-2.1-2.72c-3.51-2.33-11.42-4.05-25.42-3.94-12.84.08-20,2.1-22.91,4.62a6.89,6.89,0,0,0-1,1.13Zm27.95-.76c-1.56-.29-3.12-.48-4.68-.63-4.53-.08-7.08.54-8.16,1.53a1.5,1.5,0,0,0-.28,1.9,7.15,7.15,0,0,0,2.58,2.67,27.79,27.79,0,0,0,9.8,3.94c5.22-.68,9.19-1.67,11.48-2.81,1.05-.54,1.71-1.07,1.9-1.61s-.08-.91-.79-1.45a11.26,11.26,0,0,0-2.78-1.39,2.82,2.82,0,0,1-1.1,1.25c-1.68,1.13-5.11,2.13-8.79,2.47l-.09-1c3.52-.34,6.78-1.24,8.31-2.29a2,2,0,0,0,.74-.74,58.88,58.88,0,0,0-8.14-1.84Zm-11.62-.85a51.93,51.93,0,0,0-16.81,2.86,4.94,4.94,0,0,0,0,.65,5,5,0,0,0,1.87,3.12c3.15,2.75,9.75,4.79,17.83,4.34,1.84-.09,3.57-.23,5.22-.4a26.12,26.12,0,0,1-7.6-3.46,8.34,8.34,0,0,1-2.89-3,2.42,2.42,0,0,1,.51-3.06,5.53,5.53,0,0,1,1.9-1Z"/><path class="cls-14" d="M212,212.13a6.31,6.31,0,0,1-.14,1.56c-.17.51-2.55,5.64-2.55,5.64a5.74,5.74,0,0,0,3.45,2.81c2.75,1,3.77.54,3.77.54a3.66,3.66,0,0,0,1.08-1.28c.68-1.07,2.64-5.58,2.64-5.58s.17-.74.56-.17a9.69,9.69,0,0,1,1,4.45c.22,4.45-.69,7-4.63,8.5-.82.32-4.22.51-4.9.71s-3.83,3.74-4.42,4.25-31.38,36.88-31.38,36.88a3.16,3.16,0,0,0-.57,2.16c.14,1.33,1.16,3.43-.56,5.92a10.66,10.66,0,0,1-5.36,4.11c-1.14.26-1.22.37-1-.05s2.21-4.82,2.29-5.48-1.56-2.92-3.12-3.45-3-.63-3.34-.26-2.21,4.65-2.47,5.27-1.13.77-1.36-.54-.14-5.66.65-7.14a5.56,5.56,0,0,1,2.78-2.78,15.59,15.59,0,0,1,3.83-.62,3.74,3.74,0,0,0,2.1-.91c.34-.39,34.15-40.56,34.15-40.56s.91-2,.32-3.37a5.87,5.87,0,0,1,.17-5.16,12.9,12.9,0,0,1,4.7-4.88c1-.42,2.07-.82,2.27-.57Z"/><path class="cls-10" d="M212,229.54c-1.08.82-3.54,3.57-4.05,4s-31.38,36.88-31.38,36.88a3.15,3.15,0,0,0-.48,1.08,1.37,1.37,0,0,1-.74-.91,1.48,1.48,0,0,1,.17-.71l34.84-41.47c.85-.56,1.64,1.11,1.64,1.11Z"/><path class="cls-22" d="M212,212.13a6.31,6.31,0,0,1-.14,1.56c-.17.51-2.55,5.64-2.55,5.64a4.55,4.55,0,0,0,1.3,1.59,15.7,15.7,0,0,1-1.81-1.44c-.34-.43,0-.83.11-1.31a29,29,0,0,1,2.81-6.12.41.41,0,0,1,.28.08Zm-.68,9.3Z"/><path class="cls-23" d="M209.75,226.85a19.28,19.28,0,0,0,3.46,1.13,2.82,2.82,0,0,0-.85.62.86.86,0,0,0,0,.71s-1.3-1.22-1.39-1.25-4-2-4.56-2.29-1.82.34-1.82.34a4.48,4.48,0,0,0,.71-2c-.08-.68-.11-1-.11-1,1,1.84,2.13,2.77,4.59,3.77Z"/><path class="cls-10" d="M214.49,227.84c4.36-.74,6.66-3.57,6.66-8,0-1.62,0-2.07,0-2.07,1.19,5.84-.4,9.69-6.63,10.09Z"/><path class="cls-23" d="M168.14,268.12a13.6,13.6,0,0,1,4.42,1.78,14,14,0,0,1,2.92,4s-.2-2.13-.31-2.5-3.77-3.11-4.14-3.31a16.23,16.23,0,0,0-2.89,0Z"/><path class="cls-22" d="M167.91,272.88c-1.56-.54-3-.65-3.34-.26a57.48,57.48,0,0,0-2.47,5.28c-.2.45-.71.65-1,.22.23,1.31,1.11,1.19,1.36.54s2.13-4.87,2.47-5.27,1.78-.28,3.34.26A6.15,6.15,0,0,1,171,276.2a6,6,0,0,0-3.09-3.32Z"/><path class="cls-17" d="M212.56,212.16a6.65,6.65,0,0,1-.17,1.7c-.14.46-2,4.4-2.44,5.45a5.45,5.45,0,0,0,3,2.32c2.3.85,3.21.6,3.35.54a4.65,4.65,0,0,0,.85-1c.59-1,2.41-5.13,2.58-5.5,0-.17.48-1.76,1.5-.28a5.63,5.63,0,0,1,.79,2,15.54,15.54,0,0,1,.37,2.75,11.59,11.59,0,0,1-.82,5.64,6.93,6.93,0,0,1-4.2,3.4,15.69,15.69,0,0,1-3,.48,16.59,16.59,0,0,0-1.9.26,27.14,27.14,0,0,0-3.09,3l-1.1,1.13c-.57.48-31.24,36.71-31.33,36.79h0a2.64,2.64,0,0,0-.42,1.76,5,5,0,0,0,.14.85,6.26,6.26,0,0,1-.85,5.44,11.74,11.74,0,0,1-2.61,2.72,8.35,8.35,0,0,1-3.06,1.62h0l-.59.14a1.09,1.09,0,0,1-.83,0h0c-.53-.26-.42-.51-.19-1h0c.12-.28,1-2.13,1.62-3.63a11.51,11.51,0,0,0,.62-1.67h0a3.69,3.69,0,0,0-1-1.56,4.45,4.45,0,0,0-1.73-1.28,9.56,9.56,0,0,0-2-.45,1.68,1.68,0,0,0-.77,0,12,12,0,0,0-.82,1.64h0c-.65,1.39-1.42,3.09-1.56,3.46h0a1.37,1.37,0,0,1-.56.68,1.05,1.05,0,0,1-.68.14,1.24,1.24,0,0,1-.63-.31,2,2,0,0,1-.54-1.16,20.59,20.59,0,0,1,0-4.25,10.56,10.56,0,0,1,.74-3.23,7.76,7.76,0,0,1,1.33-1.87,5,5,0,0,1,1.7-1.14,8.24,8.24,0,0,1,2.75-.57,6.37,6.37,0,0,0,1.2-.14,4.71,4.71,0,0,0,1.24-.34,1.34,1.34,0,0,0,.57-.37c.34-.36,32.71-38.83,34.1-40.47a4.42,4.42,0,0,0,.28-2.87,6.25,6.25,0,0,1-.56-2.78,7.1,7.1,0,0,1,.71-2.86,12.23,12.23,0,0,1,2.09-2.83,11.48,11.48,0,0,1,2.92-2.3c.51-.2,1-.42,1.5-.57.63-.17,1.17-.17,1.42.23Zm-1.22,1.36a3.17,3.17,0,0,0,.11-.9.63.63,0,0,1-.11.08c-.37.11-.88.31-1.39.51a10.25,10.25,0,0,0-2.52,2,10.12,10.12,0,0,0-1.9,2.55,6,6,0,0,0-.63,2.41,4.91,4.91,0,0,0,.49,2.3c.68,1.56-.32,3.82-.32,3.82l-.08.15L170.8,267a2.42,2.42,0,0,1-1,.65,6.68,6.68,0,0,1-1.45.43,10.07,10.07,0,0,1-1.33.14h0a7.37,7.37,0,0,0-2.35.45,4.63,4.63,0,0,0-1.42.94,6.48,6.48,0,0,0-1.1,1.59,7.9,7.9,0,0,0-.6,2.83,18.46,18.46,0,0,0,0,3.94,1.1,1.1,0,0,0,.23.54l0,0h0a.41.41,0,0,0,.08-.12h0c.17-.39.94-2.15,1.59-3.54h0a13.43,13.43,0,0,1,1-1.9,2.2,2.2,0,0,1,1.67-.4,9.71,9.71,0,0,1,2.24.52,5.49,5.49,0,0,1,2.21,1.58,4.39,4.39,0,0,1,1.28,2.47h0a11.84,11.84,0,0,1-.71,1.93c-.42,1-1,2.24-1.33,3l.08,0h0a7.51,7.51,0,0,0,2.64-1.41,11.44,11.44,0,0,0,2.38-2.5,5.19,5.19,0,0,0,.65-4.56c-.05-.34-.14-.66-.17-1a3.71,3.71,0,0,1,.68-2.55l0,0c.09-.11,30.82-36.39,31.44-36.93.14-.14.54-.57,1-1,1.22-1.28,3-3.12,3.6-3.32.34-.08,1.16-.19,2.07-.28a19,19,0,0,0,2.78-.4,6,6,0,0,0,3.57-2.86,10.33,10.33,0,0,0,.71-5.13,16.66,16.66,0,0,0-.32-2.52,7.19,7.19,0,0,0-.39-1.19c-.48,1-1.93,4.36-2.53,5.32-.73,1.22-1.3,1.45-1.3,1.45l-.06,0s-1.16.57-4.11-.51a6.36,6.36,0,0,1-3.77-3.12l-.11-.25.11-.23s2.36-5.05,2.5-5.56Z"/><path class="cls-14" d="M250.14,131.63H393.78a6.76,6.76,0,0,1,6.74,6.75v97.51a6.76,6.76,0,0,1-6.74,6.74H250.14a6.76,6.76,0,0,1-6.74-6.74V138.38a6.76,6.76,0,0,1,6.74-6.75Zm7.29,6.75H386.49a6.09,6.09,0,0,1,6.07,6.06v84.08a6.09,6.09,0,0,1-6.07,6.06H257.43a6.09,6.09,0,0,1-6.07-6.06V144.44a6.09,6.09,0,0,1,6.07-6.06Z"/><path class="cls-24" d="M294.45,172.79l-16.21,18,.56,7.14h15.51v5.25h8.11V198h3.26v-6.77h-3.26v-18.4Zm-7.34,18.4,7.2-8v8Zm30.81-5c0-4.59,2.44-6.52,5.44-6.52s5.3,2,5.3,6.52v4.14c0,4.65-2.35,6.69-5.38,6.69s-5.36-2-5.36-6.69Zm-8.45,4.14c0,9.95,6.75,13.74,14,13.74s13.6-4.05,13.6-13.8v-4.11c0-9.55-6.09-13.75-13.69-13.75s-13.89,3.83-13.89,13.75Zm46.66-17.52-16.21,18,.57,7.14H356v5.25h8.08V198h3.26v-6.77h-3.26v-18.4Zm-7.34,18.4,7.2-8v8Z"/></svg>